<svg xmlns="http://www.w3.org/2000/svg" width="90.123" height="90.183" viewBox="0 0 90.123 90.183">
  <g id="inspire-idea_14781822_1_" data-name="inspire-idea_14781822 (1)" transform="translate(-7.208 -7.1)">
    <g id="Grupo_1173811" data-name="Grupo 1173811" transform="translate(7.75 7.5)">
      <path id="Trazado_1030754" data-name="Trazado 1030754" d="M118.589,354.778v-6.532a3.972,3.972,0,0,0,3.228-3.9V333.114h20.514v11.231a3.972,3.972,0,0,0,3.228,3.9l.559,5.626Z" transform="translate(-98.68 -274.627)" fill="#ca6e59"/>
      <path id="Trazado_1030755" data-name="Trazado 1030755" d="M78.2,25.178c0,12.924-6.955,28.276-24.66,23.2l-14.774-6.72a5.834,5.834,0,0,1-.384-8.627l1.491-.411L40.9,31.592A6.164,6.164,0,0,1,42.14,21.018a.544.544,0,0,0,.318-.633,5.852,5.852,0,0,1-.163-1.377,5.7,5.7,0,0,1,5.633-5.755,5.638,5.638,0,0,1,1.1.11,2.674,2.674,0,0,1,.426-.431,2.275,2.275,0,0,0,.945-1.985,6.349,6.349,0,0,1,8.894-.628.536.536,0,0,0,.8-.129,5.573,5.573,0,0,1,9.538,0,.536.536,0,0,0,.805.128,6.327,6.327,0,0,1,1.266-.84C78.2,11.449,78.2,20.515,78.2,25.178Z" transform="translate(-31.467 -7.5)" fill="#73788c"/>
      <path id="Trazado_1030756" data-name="Trazado 1030756" d="M170.162,43.076a5.79,5.79,0,0,1-2.107,4.487l-16.9,9.182h-15.1l-5.414-2.463a26.541,26.541,0,0,0,18.16-38.9,6.287,6.287,0,0,1,2.86-.684,6.374,6.374,0,0,1,4.769,2.154l.3,1.45,1.074.966a5.634,5.634,0,0,1,1.094-.11,5.7,5.7,0,0,1,5.635,5.755,5.883,5.883,0,0,1-.3,1.841A6.158,6.158,0,0,1,165.917,37.5,5.736,5.736,0,0,1,170.162,43.076Z" transform="translate(-108.566 -13.407)" fill="#5e6577"/>
      <path id="Trazado_1030757" data-name="Trazado 1030757" d="M88.259,206.01a9.834,9.834,0,0,0,7.491-9.55h0a3.91,3.91,0,0,0-3.91-3.911H88.259l-39.392.005H45.285a3.91,3.91,0,0,0-3.91,3.911h0a9.834,9.834,0,0,0,7.491,9.55Z" transform="translate(-35.335 -159.31)" fill="#ca6e59"/>
      <path id="Trazado_1030758" data-name="Trazado 1030758" d="M112.839,131.111a3.891,3.891,0,0,1,5.081,1.674,15.616,15.616,0,0,0,1.3,1.98l.849,1.13c.359,1.049,1.16,5.948,2.269,5.948v14.919a12.446,12.446,0,0,1-4.25,9.368l-7.729,6.764a8.3,8.3,0,0,1-5.462,2.051h-4.584a8.3,8.3,0,0,1-5.462-2.051l-7.729-6.764a12.445,12.445,0,0,1-4.251-9.368V141.842a2.642,2.642,0,0,0,2.455-1.8l1.7-6.641a3.89,3.89,0,0,1,5.359-2.249l.249.119,2,.767a22.169,22.169,0,0,0,15.864,0l2-.767Z" transform="translate(-69.381 -108.603)" fill="#d78878"/>
      <path id="Trazado_1030759" data-name="Trazado 1030759" d="M172.552,302.63c-4.261,0-4.451-3.933-4.379-5.36a.537.537,0,0,1,.538-.509h7.67a.537.537,0,0,1,.539.523C176.955,298.721,176.673,302.63,172.552,302.63Z" transform="translate(-139.349 -244.803)" fill="#eaf6ff"/>
      <path id="Trazado_1030760" data-name="Trazado 1030760" d="M19.563,445.292l-11.274-.026a.538.538,0,0,1-.539-.539v-10.01a.54.54,0,0,1,.289-.48,17.422,17.422,0,0,1,4.7-1.617l1.3-.26,11.457,4.25Z" transform="translate(-7.75 -356.047)" fill="#9be69d"/>
      <path id="Trazado_1030761" data-name="Trazado 1030761" d="M308.566,437.775l-4.349,7.1-15.013.011-5.432-9.513c.059-.061,10.982-3.49,10.982-3.49l.742.142a17.427,17.427,0,0,1,4.909,1.728Z" transform="translate(-234.193 -355.653)" fill="#9be69d"/>
      <path id="Trazado_1030762" data-name="Trazado 1030762" d="M134.733,418.39l1.641,8.242-5.93,7.179-18.006.021-6.83-7.529,2.548-7.871A18.443,18.443,0,0,0,134.733,418.39Z" transform="translate(-88.03 -344.586)" fill="#eaf6ff"/>
      <path id="Trazado_1030763" data-name="Trazado 1030763" d="M57.347,417.205l-4.9-17.636a1.974,1.974,0,0,0-2.476-1.359l-10.9,3.323a.854.854,0,0,0-.534,1.165l2.3,5.208a.539.539,0,0,0,.372.308l5.6,1.286a.539.539,0,0,1,.321.833l-3.041,4.358a.539.539,0,0,0-.065.49l.732,2.024Z" transform="translate(-32.94 -327.96)" fill="#bbf49b"/>
      <path id="Trazado_1030764" data-name="Trazado 1030764" d="M243.879,417l4.911-17.657a1.973,1.973,0,0,1,2.476-1.359l10.9,3.321a.857.857,0,0,1,.534,1.166l-2.3,5.208a.538.538,0,0,1-.372.307l-5.6,1.285a.539.539,0,0,0-.322.834l3.042,4.359a.538.538,0,0,1,.065.49l-.735,2.05Z" transform="translate(-201.466 -327.772)" fill="#bbf49b"/>
      <g id="Grupo_1173808" data-name="Grupo 1173808" transform="translate(66.492 48.726)">
        <path id="Trazado_1030765" data-name="Trazado 1030765" d="M399.276,387.922v6.908a21.044,21.044,0,0,1-.474,4.188,14.713,14.713,0,0,1-1.7,3.061c-1.089,1.832-.612,3.718-.6,5.849l-1.38.883H381.5v-2.957a7.428,7.428,0,0,0-1.954-5.02,6.15,6.15,0,0,1-1.615-4.149v-2.976a3.643,3.643,0,0,1,1.555-2.985Z" transform="translate(-377.933 -368.316)" fill="#d78878"/>
        <g id="Grupo_1173807" data-name="Grupo 1173807" transform="translate(16.613 11.598)">
          <path id="Trazado_1030766" data-name="Trazado 1030766" d="M475.155,344.508v6.849a1.436,1.436,0,0,1-.577,1.286c-.431.431-1.946-.228-2.6-.223l-1.171-1.252-.379-4.452,1.243-.96a2.408,2.408,0,0,1,2.346-2.405C474.8,343.643,475.155,344.05,475.155,344.508Z" transform="translate(-470.425 -343.349)" fill="#d78878"/>
          <path id="Trazado_1030767" data-name="Trazado 1030767" d="M483.568,345.747v5.412a2.411,2.411,0,0,1-4.359,1.416l-.154-.163A2.411,2.411,0,0,0,481.443,350v-5.407a2.4,2.4,0,0,0-.35-1.252c.022,0,.043,0,.065,0A2.409,2.409,0,0,1,483.568,345.747Z" transform="translate(-477.504 -343.34)" fill="#ca6e59"/>
        </g>
        <path id="Trazado_1030768" data-name="Trazado 1030768" d="M479.055,386.87v7.2a11.746,11.746,0,0,1-1.652,6.008,11.753,11.753,0,0,0-1.651,6.053l.005,1.27a.539.539,0,0,1-.539.541h-1.658l-.007-1.811a11.771,11.771,0,0,1,1.653-6.053,11.746,11.746,0,0,0,1.652-6.008v-6.894Z" transform="translate(-456.378 -367.453)" fill="#ca6e59"/>
        <path id="Trazado_1030769" data-name="Trazado 1030769" d="M393.191,282.344V301.8c0,1.4-2.286,2.54-3.684,2.54l1.188-3.174-1.642-1.562V282.344a2.543,2.543,0,0,1,1.5-2.313A2.349,2.349,0,0,1,393.191,282.344Z" transform="translate(-387.055 -279.804)" fill="#d78878"/>
        <path id="Trazado_1030770" data-name="Trazado 1030770" d="M419.69,333.165v6.384c0,1.029-1.671,1.92-2.555,2.317a2.546,2.546,0,0,1-1.5-2.317l-.62-.137v-6.027l.62-.22a2.546,2.546,0,0,1,1.5-2.315C419.265,331.122,419.69,332.138,419.69,333.165Z" transform="translate(-408.351 -321.495)" fill="#d78878"/>
        <path id="Trazado_1030771" data-name="Trazado 1030771" d="M449.365,333.165v6.77c0,1.027-1.858,1.918-2.742,2.315a2.543,2.543,0,0,1-1.5-2.315l-.605-.386V333.44l.605-.274a2.545,2.545,0,0,1,1.5-2.315C449.031,331.177,449.365,332.138,449.365,333.165Z" transform="translate(-432.555 -321.495)" fill="#d78878"/>
        <path id="Trazado_1030772" data-name="Trazado 1030772" d="M401.179,281.31v18.421a1.149,1.149,0,0,1-2.288,0V281.31a2.546,2.546,0,0,0-1.5-2.314,2.5,2.5,0,0,1,1.042-.226h.2A2.547,2.547,0,0,1,401.179,281.31Z" transform="translate(-393.898 -278.77)" fill="#ca6e59"/>
        <path id="Trazado_1030773" data-name="Trazado 1030773" d="M430.615,332.14v6.384a2.548,2.548,0,0,1-2.54,2.542h-.2a2.481,2.481,0,0,1-1.036-.225,2.546,2.546,0,0,0,1.5-2.317V332.14a2.545,2.545,0,0,0-1.5-2.315,2.482,2.482,0,0,1,1.036-.224h.2A2.548,2.548,0,0,1,430.615,332.14Z" transform="translate(-418.05 -320.47)" fill="#ca6e59"/>
        <path id="Trazado_1030774" data-name="Trazado 1030774" d="M460.035,332.14v6.77a2.548,2.548,0,0,1-2.542,2.54h-.2a2.474,2.474,0,0,1-1.036-.225,2.543,2.543,0,0,0,1.5-2.315v-6.77a2.546,2.546,0,0,0-1.5-2.315,2.476,2.476,0,0,1,1.036-.224h.2A2.549,2.549,0,0,1,460.035,332.14Z" transform="translate(-442.186 -320.47)" fill="#ca6e59"/>
        <path id="Trazado_1030775" data-name="Trazado 1030775" d="M406.885,368.343a5.472,5.472,0,0,1-.116,1.118c-.472,2.259-3.834,2.539-6.215,2.787,0,0-2.588-1.205-4.5-.613-1.424.441-2.318,2.728-2.339,2.712l-4.663-2.439v-2.3l4.5-3.237a5.043,5.043,0,0,1,2.882-.938l7.475-.071A2.98,2.98,0,0,1,406.885,368.343Z" transform="translate(-387.053 -349.812)" fill="#ca6e59"/>
        <path id="Trazado_1030776" data-name="Trazado 1030776" d="M393.443,384.51l2.127-2.862a.54.54,0,0,1,.368-.214l4.6-.557a3.648,3.648,0,0,0,2.514-3.5,1.227,1.227,0,0,0-1.235-1.2H395.05a4.565,4.565,0,0,0-2.619.825l-5.836,4.084Z" transform="translate(-385.039 -358.682)" fill="#d78878"/>
      </g>
      <g id="Grupo_1173810" data-name="Grupo 1173810" transform="translate(49.354 2.539)">
        <path id="Trazado_1030777" data-name="Trazado 1030777" d="M318.545,36.027a20.924,20.924,0,0,1-20.776,21.247c-3.79,0-12.111-2.781-13.194-5.8l.2-.826a.534.534,0,0,0-.047-.375A19.613,19.613,0,0,1,315.1,26.526C317.622,30.466,318.545,33.742,318.545,36.027Z" transform="translate(-282.517 -21.635)" fill="#eaf6ff"/>
        <path id="Trazado_1030778" data-name="Trazado 1030778" d="M322.426,67.731a19.643,19.643,0,0,1-29.44,12.543.536.536,0,0,0-.381-.07l-8.088,1.541a.54.54,0,0,1-.625-.659l1.8-7.275a21.151,21.151,0,0,0,30.528-24.946A19.566,19.566,0,0,1,322.426,67.731Z" transform="translate(-283.632 -43.974)" fill="#d8ecfe"/>
        <g id="Grupo_1173809" data-name="Grupo 1173809" transform="translate(9.492 4.886)">
          <path id="Trazado_1030779" data-name="Trazado 1030779" d="M353.285,59.48c0,5.255-5.52,10.339-10.883,10.339-.814,0-1.693.553-3.114-1.545a11.429,11.429,0,0,0-1.405-2.472,9.735,9.735,0,0,1,5.494-16.12C350.746,49.682,353.285,54.805,353.285,59.48Z" transform="translate(-335.361 -49.53)" fill="#ffe177"/>
          <path id="Trazado_1030780" data-name="Trazado 1030780" d="M371.408,58.572a9.7,9.7,0,0,1-2.477,6.486,11.754,11.754,0,0,0-2.357,7.009v.609l-9.8.032V72.17a16.453,16.453,0,0,0-1.2-5.355,9.857,9.857,0,0,0,2.359.283c5.363,0,10.009-3.492,10.009-8.748a9.572,9.572,0,0,0-7.981-9.362,9.742,9.742,0,0,1,11.454,9.584Z" transform="translate(-351.938 -48.837)" fill="#ffd15b"/>
          <path id="Trazado_1030781" data-name="Trazado 1030781" d="M369.559,179.51l1.524,2.976c0,1.615-.967,2.976-4.445,2.976h-.763a2.923,2.923,0,0,1-2.923-2.923V179.51h6.608Z" transform="translate(-357.995 -156.039)" fill="#5e6577"/>
          <path id="Trazado_1030782" data-name="Trazado 1030782" d="M389.346,179.511v3.028a2.923,2.923,0,0,1-2.923,2.923h-2.949a2.922,2.922,0,0,0,2.922-2.923v-3.028Z" transform="translate(-374.832 -156.039)" fill="#4d5263"/>
          <path id="Trazado_1030783" data-name="Trazado 1030783" d="M359.77,161.394c0,.647.392,1.38,0,1.805s-3.307.927-3.907.927h-7.189a2.262,2.262,0,0,1-2.17-2.343,2.441,2.441,0,0,1,.635-1.658,2.092,2.092,0,0,1,1.535-.686h7.189C357.062,159.439,359.77,160.1,359.77,161.394Z" transform="translate(-344.502 -139.573)" fill="#73788c"/>
          <path id="Trazado_1030784" data-name="Trazado 1030784" d="M404.719,161.783a2.438,2.438,0,0,1-.635,1.657,2.092,2.092,0,0,1-1.535.686h-3.937a2.089,2.089,0,0,0,1.535-.686,2.438,2.438,0,0,0,.635-1.657,2.262,2.262,0,0,0-2.17-2.344h3.937A2.262,2.262,0,0,1,404.719,161.783Z" transform="translate(-387.25 -139.573)" fill="#5e6577"/>
        </g>
      </g>
    </g>
    <g id="Grupo_1173820" data-name="Grupo 1173820" transform="translate(7.75 7.5)">
      <g id="Grupo_1173812" data-name="Grupo 1173812" transform="translate(6.04 33.244)">
        <path id="Trazado_1030785" data-name="Trazado 1030785" d="M48.777,206.016a9.834,9.834,0,0,1-7.4-9.528h0a3.91,3.91,0,0,1,3.91-3.911h3.581" transform="translate(-41.376 -192.577)" fill="none" stroke="#000" stroke-linecap="round" stroke-linejoin="round" stroke-miterlimit="10" stroke-width="0.8"/>
        <path id="Trazado_1030786" data-name="Trazado 1030786" d="M309.9,232.041a9.85,9.85,0,0,1-6.845,6.338" transform="translate(-256.054 -224.952)" fill="none" stroke="#000" stroke-linecap="round" stroke-linejoin="round" stroke-miterlimit="10" stroke-width="0.8"/>
      </g>
      <path id="Trazado_1030787" data-name="Trazado 1030787" d="M209.872,133.283a22.165,22.165,0,0,0,4.819-1.248l2-.767.332-.156a3.89,3.89,0,0,1,5.336,2.259" transform="translate(-173.567 -108.603)" fill="none" stroke="#000" stroke-linecap="round" stroke-linejoin="round" stroke-miterlimit="10" stroke-width="0.8"/>
      <path id="Trazado_1030788" data-name="Trazado 1030788" d="M122.342,149.212v7.67a12.446,12.446,0,0,1-4.25,9.368l-7.729,6.764a8.3,8.3,0,0,1-5.462,2.051h-4.584a8.3,8.3,0,0,1-5.462-2.051l-7.729-6.764a12.445,12.445,0,0,1-4.251-9.368V141.964a2.642,2.642,0,0,0,2.455-1.805l1.7-6.641a3.89,3.89,0,0,1,5.359-2.249l.249.119,2,.767a22.153,22.153,0,0,0,4.789,1.244" transform="translate(-69.381 -108.724)" fill="none" stroke="#000" stroke-linecap="round" stroke-linejoin="round" stroke-miterlimit="10" stroke-width="0.8"/>
      <g id="Grupo_1173814" data-name="Grupo 1173814" transform="translate(21.827 31.536)">
        <g id="Grupo_1173813" data-name="Grupo 1173813">
          <path id="Trazado_1030789" data-name="Trazado 1030789" d="M185.865,262.089a4.164,4.164,0,0,1-3.776,0" transform="translate(-172.601 -247.896)" fill="none" stroke="#000" stroke-linecap="round" stroke-linejoin="round" stroke-miterlimit="10" stroke-width="0.8"/>
          <path id="Trazado_1030790" data-name="Trazado 1030790" d="M136.172,183.958a7.184,7.184,0,0,0-6.906,0" transform="translate(-129.266 -183.073)" fill="none" stroke="#000" stroke-linecap="round" stroke-linejoin="round" stroke-miterlimit="10" stroke-width="0.8"/>
          <path id="Trazado_1030791" data-name="Trazado 1030791" d="M224.392,183.958a7.184,7.184,0,0,0-6.906,0" transform="translate(-201.64 -183.073)" fill="none" stroke="#000" stroke-linecap="round" stroke-linejoin="round" stroke-miterlimit="10" stroke-width="0.8"/>
          <line id="Línea_813" data-name="Línea 813" y1="3.06" transform="translate(19.299 5.186)" fill="none" stroke="#000" stroke-linecap="round" stroke-linejoin="round" stroke-miterlimit="10" stroke-width="0.8"/>
          <line id="Línea_814" data-name="Línea 814" y1="3.06" transform="translate(3.453 5.186)" fill="none" stroke="#000" stroke-linecap="round" stroke-linejoin="round" stroke-miterlimit="10" stroke-width="0.8"/>
        </g>
        <path id="Trazado_1030792" data-name="Trazado 1030792" d="M172.552,302.63c-5.206,0-4.335-5.87-4.335-5.87h8.67S177.6,302.63,172.552,302.63Z" transform="translate(-161.176 -276.34)" fill="none" stroke="#000" stroke-linecap="round" stroke-linejoin="round" stroke-miterlimit="10" stroke-width="0.8"/>
      </g>
      <path id="Trazado_1030793" data-name="Trazado 1030793" d="M86.079,15.268a5.554,5.554,0,0,0-5.377-1.9,6.465,6.465,0,0,0-6.139-4.57,6.362,6.362,0,0,0-4.612,1.985,5.585,5.585,0,0,0-10.173,0,6.362,6.362,0,0,0-4.612-1.985,6.465,6.465,0,0,0-6.139,4.57,5.551,5.551,0,0,0-1.1-.11A5.7,5.7,0,0,0,42.3,19.008a5.856,5.856,0,0,0,.3,1.841,6.159,6.159,0,0,0-1.687,10.744A5.8,5.8,0,0,0,38.77,41.657" transform="translate(-31.47 -7.5)" fill="none" stroke="#000" stroke-linecap="round" stroke-linejoin="round" stroke-miterlimit="10" stroke-width="0.8"/>
      <path id="Trazado_1030794" data-name="Trazado 1030794" d="M62.869,142.671a5.639,5.639,0,0,1-2.542-1.03" transform="translate(-50.883 -117.547)" fill="none" stroke="#000" stroke-linecap="round" stroke-linejoin="round" stroke-miterlimit="10" stroke-width="0.8"/>
      <path id="Trazado_1030795" data-name="Trazado 1030795" d="M105.6,40.2a5.346,5.346,0,0,1,3.388,2.251" transform="translate(-88.024 -34.326)" fill="none" stroke="#000" stroke-linecap="round" stroke-linejoin="round" stroke-miterlimit="10" stroke-width="0.8"/>
      <path id="Trazado_1030796" data-name="Trazado 1030796" d="M269.268,40.183a5.354,5.354,0,0,0-2.722,2.074" transform="translate(-220.061 -34.312)" fill="none" stroke="#000" stroke-linecap="round" stroke-linejoin="round" stroke-miterlimit="10" stroke-width="0.8"/>
      <path id="Trazado_1030797" data-name="Trazado 1030797" d="M319.447,43.035q-.09.569-.214,1.139a20.22,20.22,0,0,1-30.49,12.8l-9.387,1.789,2.318-9.383A20.169,20.169,0,0,1,296.105,20" transform="translate(-230.52 -17.756)" fill="none" stroke="#000" stroke-linecap="round" stroke-linejoin="round" stroke-miterlimit="10" stroke-width="0.8"/>
      <path id="Trazado_1030798" data-name="Trazado 1030798" d="M407.545,19.544q.725.1,1.452.261a20.192,20.192,0,0,1,15.669,16.569" transform="translate(-335.734 -17.381)" fill="none" stroke="#000" stroke-linecap="round" stroke-linejoin="round" stroke-miterlimit="10" stroke-width="0.8"/>
      <g id="Grupo_1173815" data-name="Grupo 1173815" transform="translate(58.844 7.43)">
        <path id="Trazado_1030799" data-name="Trazado 1030799" d="M339.586,68.393a11.483,11.483,0,0,0-1.713-3.3,9.725,9.725,0,1,1,14.457-.049,12,12,0,0,0-1.743,3.306" transform="translate(-335.355 -48.863)" fill="none" stroke="#000" stroke-linecap="round" stroke-linejoin="round" stroke-miterlimit="10" stroke-width="0.8"/>
        <line id="Línea_815" data-name="Línea 815" y1="7.149" transform="translate(9.724 12.342)" fill="none" stroke="#000" stroke-linecap="round" stroke-linejoin="round" stroke-miterlimit="10" stroke-width="0.8"/>
        <path id="Trazado_1030800" data-name="Trazado 1030800" d="M372.466,186.134v1.107a3.592,3.592,0,0,1-3.592,3.592H366.51a3.592,3.592,0,0,1-3.592-3.592v-1.107" transform="translate(-357.967 -161.477)" fill="none" stroke="#000" stroke-linecap="round" stroke-linejoin="round" stroke-miterlimit="10" stroke-width="0.8"/>
        <path id="Trazado_1030801" data-name="Trazado 1030801" d="M361,162.657h-9.678a2.459,2.459,0,0,1-2.459-2.459v-.145a2.459,2.459,0,0,1,2.459-2.459H361a2.459,2.459,0,0,1,2.459,2.459v.145A2.459,2.459,0,0,1,361,162.657Z" transform="translate(-346.44 -138.065)" fill="none" stroke="#000" stroke-linecap="round" stroke-linejoin="round" stroke-miterlimit="10" stroke-width="0.8"/>
        <line id="Línea_816" data-name="Línea 816" x2="6.226" transform="translate(6.741 12.327)" fill="none" stroke="#000" stroke-linecap="round" stroke-linejoin="round" stroke-miterlimit="10" stroke-width="0.8"/>
      </g>
      <path id="Trazado_1030802" data-name="Trazado 1030802" d="M346.53,432.2l.451.086a17.4,17.4,0,0,1,4.908,1.728" transform="translate(-285.678 -355.911)" fill="none" stroke="#000" stroke-linecap="round" stroke-linejoin="round" stroke-miterlimit="10" stroke-width="0.8"/>
      <path id="Trazado_1030803" data-name="Trazado 1030803" d="M250.768,358.351v6.7a3.972,3.972,0,0,0,3.228,3.9" transform="translate(-207.117 -295.331)" fill="none" stroke="#000" stroke-linecap="round" stroke-linejoin="round" stroke-miterlimit="10" stroke-width="0.8"/>
      <path id="Trazado_1030804" data-name="Trazado 1030804" d="M118.589,417.362h0a18.447,18.447,0,0,0,26.97,0h0" transform="translate(-98.68 -343.743)" fill="none" stroke="#000" stroke-linecap="round" stroke-linejoin="round" stroke-miterlimit="10" stroke-width="0.8"/>
      <path id="Trazado_1030805" data-name="Trazado 1030805" d="M13.443,371.763l-.706.142a17.394,17.394,0,0,0-4.987,1.77m23.137-15.323v6.7a3.972,3.972,0,0,1-3.228,3.9l-.206.039" transform="translate(-7.75 -295.331)" fill="none" stroke="#000" stroke-linecap="round" stroke-linejoin="round" stroke-miterlimit="10" stroke-width="0.8"/>
      <g id="Grupo_1173816" data-name="Grupo 1173816" transform="translate(5.021 70.164)">
        <path id="Trazado_1030806" data-name="Trazado 1030806" d="M52.509,409.7l-2.819-10.135a1.974,1.974,0,0,0-2.476-1.359l-10.9,3.323a.854.854,0,0,0-.534,1.165l2.409,5.455,6.646,1.525-3.657,5.241L42,417.231" transform="translate(-35.703 -398.124)" fill="none" stroke="#000" stroke-linecap="round" stroke-linejoin="round" stroke-miterlimit="10" stroke-width="0.8"/>
        <line id="Línea_817" data-name="Línea 817" x1="0.409" y1="1.471" transform="translate(18.49 17.637)" fill="none" stroke="#000" stroke-linecap="round" stroke-linejoin="round" stroke-miterlimit="10" stroke-width="0.8"/>
        <path id="Trazado_1030807" data-name="Trazado 1030807" d="M244.868,417.232l4.913-17.662a1.973,1.973,0,0,1,2.476-1.359l10.9,3.321a.857.857,0,0,1,.534,1.166l-2.409,5.456-6.646,1.524,3.658,5.243-.829,2.312" transform="translate(-207.298 -398.125)" fill="none" stroke="#000" stroke-linecap="round" stroke-linejoin="round" stroke-miterlimit="10" stroke-width="0.8"/>
      </g>
      <g id="Grupo_1173819" data-name="Grupo 1173819" transform="translate(66.504 48.777)">
        <g id="Grupo_1173817" data-name="Grupo 1173817" transform="translate(17.857 11.598)">
          <path id="Trazado_1030808" data-name="Trazado 1030808" d="M482.233,346.033a2.407,2.407,0,0,0-2.407-2.407h0a2.41,2.41,0,0,0-2.41,2.41v5.406a2.41,2.41,0,0,0,2.41,2.41h0a2.41,2.41,0,0,0,2.41-2.41Z" transform="translate(-477.412 -343.626)" fill="none" stroke="#000" stroke-linecap="round" stroke-linejoin="round" stroke-miterlimit="10" stroke-width="0.8"/>
          <path id="Trazado_1030809" data-name="Trazado 1030809" d="M490.831,400.563" transform="translate(-488.421 -390.336)" fill="none" stroke="#000" stroke-linecap="round" stroke-linejoin="round" stroke-miterlimit="10" stroke-width="0.8"/>
        </g>
        <g id="Grupo_1173818" data-name="Grupo 1173818" transform="translate(19.374 19.484)">
          <path id="Trazado_1030810" data-name="Trazado 1030810" d="M489.161,387.53v7.2a11.7,11.7,0,0,1-1.652,5.943h0a11.759,11.759,0,0,0-1.652,6.053l.007,1.811" transform="translate(-485.858 -387.53)" fill="none" stroke="#000" stroke-linecap="round" stroke-linejoin="round" stroke-miterlimit="10" stroke-width="0.8"/>
        </g>
        <path id="Trazado_1030811" data-name="Trazado 1030811" d="M433.859,414.75a9.854,9.854,0,0,1,2.1,9.01l-.075.288" transform="translate(-423.825 -390.377)" fill="none" stroke="#000" stroke-linecap="round" stroke-linejoin="round" stroke-miterlimit="10" stroke-width="0.8"/>
        <path id="Trazado_1030812" data-name="Trazado 1030812" d="M389.115,301.041V281.6a2.547,2.547,0,0,1,2.54-2.54h.2a2.547,2.547,0,0,1,2.54,2.54v15.8" transform="translate(-387.118 -279.057)" fill="none" stroke="#000" stroke-linecap="round" stroke-linejoin="round" stroke-miterlimit="10" stroke-width="0.8"/>
        <path id="Trazado_1030813" data-name="Trazado 1030813" d="M418.532,332.433a2.548,2.548,0,0,1,2.54-2.54h.2a2.548,2.548,0,0,1,2.54,2.54v5.782" transform="translate(-411.252 -320.762)" fill="none" stroke="#000" stroke-linecap="round" stroke-linejoin="round" stroke-miterlimit="10" stroke-width="0.8"/>
        <path id="Trazado_1030814" data-name="Trazado 1030814" d="M447.947,338.153v-5.72a2.548,2.548,0,0,1,2.54-2.54h.2a2.547,2.547,0,0,1,2.54,2.54v2.425" transform="translate(-435.383 -320.762)" fill="none" stroke="#000" stroke-linecap="round" stroke-linejoin="round" stroke-miterlimit="10" stroke-width="0.8"/>
        <path id="Trazado_1030815" data-name="Trazado 1030815" d="M386.4,384.8l2.265-3.047,4.538-.585a3.647,3.647,0,0,0,2.514-3.465,1.235,1.235,0,0,0-1.235-1.234H388.01a4.564,4.564,0,0,0-2.619.825l-5.836,4.084A3.646,3.646,0,0,0,378,384.363v2.975a6.141,6.141,0,0,0,1.615,4.149,7.431,7.431,0,0,1,1.954,5.022v2.956" transform="translate(-377.999 -358.971)" fill="none" stroke="#000" stroke-linecap="round" stroke-linejoin="round" stroke-miterlimit="10" stroke-width="0.8"/>
      </g>
    </g>
  </g>
</svg>
