<svg xmlns="http://www.w3.org/2000/svg" xmlns:xlink="http://www.w3.org/1999/xlink" width="108" height="108" viewBox="0 0 108 108">
  <defs>
    <filter id="Trazado_904820" x="0" y="0" width="108" height="108" filterUnits="userSpaceOnUse">
      <feOffset dy="3" input="SourceAlpha"/>
      <feGaussianBlur stdDeviation="3" result="blur"/>
      <feFlood flood-opacity="0.161"/>
      <feComposite operator="in" in2="blur"/>
      <feComposite in="SourceGraphic"/>
    </filter>
  </defs>
  <g id="Grupo_1205249" data-name="Grupo 1205249" transform="translate(-619 -4413)">
    <g id="Grupo_1202052" data-name="Grupo 1202052" transform="translate(-0.477 1944)">
      <g id="Grupo_1178821" data-name="Grupo 1178821" transform="translate(628.477 2475)">
        <g id="Grupo_1173585" data-name="Grupo 1173585" transform="translate(0 0)">
          <g id="Grupo_1173428" data-name="Grupo 1173428">
            <g id="Grupo_1171958" data-name="Grupo 1171958">
              <g id="Grupo_1167341" data-name="Grupo 1167341">
                <g id="Grupo_1166792" data-name="Grupo 1166792">
                  <g transform="matrix(1, 0, 0, 1, -9, -6)" filter="url(#Trazado_904820)">
                    <g id="Trazado_904820-2" data-name="Trazado 904820" transform="translate(9 6)" fill="#fef9e7">
                      <path d="M 44.99999618530273 88.49995422363281 C 39.12687301635742 88.49995422363281 33.43022155761719 87.35002899169922 28.06829643249512 85.08213043212891 C 22.88852119445801 82.89126586914062 18.23629570007324 79.75455474853516 14.24084663391113 75.75910186767578 C 10.24540901184082 71.76364898681641 7.108683586120605 67.11144256591797 4.917821407318115 61.93166351318359 C 2.649921178817749 56.56974029541016 1.499996185302734 50.87310028076172 1.499996185302734 44.99997711181641 C 1.499996185302734 39.12685394287109 2.649921178817749 33.43021392822266 4.917821407318115 28.06828880310059 C 7.108683586120605 22.88851547241211 10.24540901184082 18.23630142211914 14.24084663391113 14.24085235595703 C 18.23629570007324 10.24540233612061 22.88852119445801 7.108689785003662 28.06829643249512 4.917827129364014 C 33.43022155761719 2.649927139282227 39.12687301635742 1.500002145767212 44.99999618530273 1.500002145767212 C 50.87311935424805 1.500002145767212 56.56977081298828 2.649927139282227 61.93169784545898 4.917827129364014 C 67.11147308349609 7.108689785003662 71.76369476318359 10.24540233612061 75.75914764404297 14.24085235595703 C 79.75458526611328 18.23630142211914 82.89131164550781 22.88851547241211 85.08216857910156 28.06828880310059 C 87.35007476806641 33.43021392822266 88.5 39.12685394287109 88.5 44.99997711181641 C 88.5 50.87310028076172 87.35007476806641 56.56974029541016 85.08216857910156 61.93166351318359 C 82.89131164550781 67.11144256591797 79.75458526611328 71.76364898681641 75.75914764404297 75.75910186767578 C 71.76369476318359 79.75455474853516 67.11147308349609 82.89126586914062 61.93169784545898 85.08213043212891 C 56.56977081298828 87.35002899169922 50.87311935424805 88.49995422363281 44.99999618530273 88.49995422363281 Z" stroke="none"/>
                      <path d="M 44.99999618530273 2.999992370605469 C 39.32870864868164 2.999992370605469 33.82865142822266 4.11004638671875 28.65262603759766 6.299331665039062 C 23.65165710449219 8.414566040039062 19.15968322753906 11.44333648681641 15.301513671875 15.30150604248047 C 11.44333648681641 19.15967559814453 8.414566040039062 23.65163421630859 6.299339294433594 28.65260696411133 C 4.110054016113281 33.82864761352539 2.999992370605469 39.32868957519531 2.999992370605469 44.99997711181641 C 2.999992370605469 50.6712646484375 4.110054016113281 56.17130661010742 6.299339294433594 61.34733581542969 C 8.414566040039062 66.34830474853516 11.44333648681641 70.84026336669922 15.301513671875 74.69844818115234 C 19.15968322753906 78.55661773681641 23.65165710449219 81.58537292480469 28.65262603759766 83.70062255859375 C 33.82865142822266 85.889892578125 39.32870864868164 86.99994659423828 44.99999618530273 86.99994659423828 C 50.67128372192383 86.99994659423828 56.17134094238281 85.889892578125 61.34736633300781 83.70062255859375 C 66.34834289550781 81.58537292480469 70.84030914306641 78.55661773681641 74.69847869873047 74.69844818115234 C 78.55665588378906 70.84026336669922 81.58542633056641 66.34830474853516 83.70065307617188 61.34733581542969 C 85.88993835449219 56.17130661010742 87 50.6712646484375 87 44.99997711181641 C 87 39.32868957519531 85.88993835449219 33.82864761352539 83.70065307617188 28.65260696411133 C 81.58542633056641 23.65163421630859 78.55665588378906 19.15967559814453 74.69847869873047 15.30150604248047 C 70.84030914306641 11.44333648681641 66.34834289550781 8.414566040039062 61.34736633300781 6.299331665039062 C 56.17134094238281 4.11004638671875 50.67128372192383 2.999992370605469 44.99999618530273 2.999992370605469 M 44.99999618530273 -7.62939453125e-06 C 69.85281372070312 -7.62939453125e-06 90 20.14717864990234 90 44.99997711181641 C 90 69.85277557373047 69.85281372070312 89.99994659423828 44.99999618530273 89.99994659423828 C 20.14717864990234 89.99994659423828 -7.62939453125e-06 69.85277557373047 -7.62939453125e-06 44.99997711181641 C -7.62939453125e-06 20.14717864990234 20.14717864990234 -7.62939453125e-06 44.99999618530273 -7.62939453125e-06 Z" stroke="none" fill="#887013"/>
                    </g>
                  </g>
                </g>
              </g>
            </g>
          </g>
        </g>
      </g>
    </g>
    <g id="Layer_31" data-name="Layer 31" transform="translate(644 4435.012)">
      <rect id="Rectángulo_417952" data-name="Rectángulo 417952" width="48.792" height="28.914" rx="2" transform="translate(2.904 26.395)" fill="#baced3"/>
      <path id="Trazado_1043514" data-name="Trazado 1043514" d="M13,33H49.142V54.685H13Z" transform="translate(-1.061 -2.991)" fill="#d6e4e8"/>
      <circle id="Elipse_12592" data-name="Elipse 12592" cx="14.457" cy="14.457" r="14.457" transform="translate(14.65 2.902)" fill="#2678db"/>
      <circle id="Elipse_12593" data-name="Elipse 12593" cx="10.843" cy="10.843" r="10.843" transform="translate(18.264 6.517)" fill="#62b5e8"/>
      <path id="Trazado_1043515" data-name="Trazado 1043515" d="M31.421,11,26,14.614v7.165l5.421,3.614,5.421-3.614V14.614Z" transform="translate(-2.315 -0.869)" fill="#fcbe42"/>
      <circle id="Elipse_12594" data-name="Elipse 12594" cx="1.807" cy="1.807" r="1.807" transform="translate(5.614 39.045)" fill="#2678db"/>
      <path id="Trazado_1043516" data-name="Trazado 1043516" d="M55.124,26.561,35.807,45.878,34,50.4l4.518-1.807L57.835,29.272a1.917,1.917,0,0,0-2.711-2.711Z" transform="translate(-3.086 -2.316)" fill="#fcbe42"/>
      <g id="Grupo_1205248" data-name="Grupo 1205248" transform="translate(4.711 2.902)">
        <circle id="Elipse_12595" data-name="Elipse 12595" cx="1.807" cy="1.807" r="1.807" transform="translate(22.589 35.239)" fill="#2678db"/>
        <circle id="Elipse_12596" data-name="Elipse 12596" cx="1.807" cy="1.807" r="1.807" transform="translate(10.843 30.721)" fill="#2678db"/>
        <circle id="Elipse_12597" data-name="Elipse 12597" cx="1.807" cy="1.807" r="1.807" transform="translate(5.421)" fill="#2678db"/>
        <circle id="Elipse_12598" data-name="Elipse 12598" cx="1.807" cy="1.807" r="1.807" transform="translate(0 12.65)" fill="#2678db"/>
        <circle id="Elipse_12599" data-name="Elipse 12599" cx="1.807" cy="1.807" r="1.807" transform="translate(39.756)" fill="#2678db"/>
        <circle id="Elipse_12600" data-name="Elipse 12600" cx="1.807" cy="1.807" r="1.807" transform="translate(45.178 12.65)" fill="#2678db"/>
      </g>
      <path id="Trazado_1043517" data-name="Trazado 1043517" d="M30.746,29.492A11.746,11.746,0,1,0,19,17.746,11.746,11.746,0,0,0,30.746,29.492Zm0-21.685a9.939,9.939,0,1,1-9.939,9.939,9.939,9.939,0,0,1,9.939-9.939Z" transform="translate(-1.64 -0.387)"/>
      <path id="Trazado_1043518" data-name="Trazado 1043518" d="M25.4,22.435l5.421,3.614a.9.9,0,0,0,1,0l5.421-3.614a.9.9,0,0,0,.4-.752V14.518a.9.9,0,0,0-.4-.752l-5.421-3.614a.9.9,0,0,0-1,0L25.4,13.766a.9.9,0,0,0-.4.752v7.165a.9.9,0,0,0,.4.752ZM26.807,15l4.518-3.013L35.843,15v6.2l-4.518,3.012L26.807,21.2Z" transform="translate(-2.218 -0.773)"/>
      <path id="Trazado_1043519" data-name="Trazado 1043519" d="M7.711,42a2.711,2.711,0,1,0,2.711,2.711A2.711,2.711,0,0,0,7.711,42Zm0,3.614a.9.9,0,1,1,.9-.9A.9.9,0,0,1,7.711,45.614Z" transform="translate(-0.289 -3.859)"/>
      <path id="Trazado_1043520" data-name="Trazado 1043520" d="M6,34H9.614v1.807H6Z" transform="translate(-0.386 -3.087)"/>
      <path id="Trazado_1043521" data-name="Trazado 1043521" d="M6,38H9.614v1.807H6Z" transform="translate(-0.386 -3.473)"/>
      <path id="Trazado_1043522" data-name="Trazado 1043522" d="M6,50H9.614v1.807H6Z" transform="translate(-0.386 -4.631)"/>
      <path id="Trazado_1043523" data-name="Trazado 1043523" d="M6,54H9.614v1.807H6Z" transform="translate(-0.386 -5.016)"/>
      <path id="Trazado_1043524" data-name="Trazado 1043524" d="M56.213,25.6A2.82,2.82,0,0,0,51.4,23.606l-1.885,1.885h-7.4a15.238,15.238,0,0,0,2.307-7.228h4.73a2.711,2.711,0,1,0,0-1.807H44.421a15.213,15.213,0,0,0-1.333-5.421h3.186a.9.9,0,0,0,.9-.9V7.254a2.711,2.711,0,1,0-1.807,0V9.227H42.118a15.318,15.318,0,0,0-26.022,0H12.843V7.254a2.711,2.711,0,1,0-1.807,0v2.877a.9.9,0,0,0,.9.9h3.186a15.213,15.213,0,0,0-1.333,5.421H9.062a2.711,2.711,0,1,0,0,1.807h4.73a15.238,15.238,0,0,0,2.3,7.228H4.711A2.711,2.711,0,0,0,2,28.2V53.5a2.711,2.711,0,0,0,2.711,2.711H49.888A2.711,2.711,0,0,0,52.6,53.5V30.383l2.788-2.788a2.8,2.8,0,0,0,.826-1.994ZM46.274,3.806a.9.9,0,1,1-.9.9A.9.9,0,0,1,46.274,3.806Zm-34.335,0a.9.9,0,1,1-.9.9A.9.9,0,0,1,11.939,3.806ZM47.707,27.3,45.9,29.105H38.984A15.421,15.421,0,0,0,40.8,27.3ZM30.275,48.719a.9.9,0,0,0,.974.2l4.518-1.807a.913.913,0,0,0,.3-.2L47.178,35.8V50.791H12.843V30.913h8.132v3.614H19.9a2.711,2.711,0,1,0,0,1.807h1.973a.9.9,0,0,0,.9-.9V31.341A15.213,15.213,0,0,0,28.2,32.674V37.4a2.711,2.711,0,1,0,1.807,0v-4.73a15.234,15.234,0,0,0,6.541-1.889v.128h7.542L32.082,42.923a.918.918,0,0,0-.2.3l-1.807,4.518a.9.9,0,0,0,.2.975ZM18.264,35.43a.9.9,0,1,1-.9-.9A.9.9,0,0,1,18.264,35.43ZM30.01,39.948a.9.9,0,1,1-.9-.9A.9.9,0,0,1,30.01,39.948ZM51.7,16.456a.9.9,0,1,1-.9.9A.9.9,0,0,1,51.7,16.456ZM6.518,18.263a.9.9,0,1,1,.9-.9A.9.9,0,0,1,6.518,18.263ZM29.107,3.806A13.553,13.553,0,1,1,15.553,17.359,13.553,13.553,0,0,1,29.107,3.806ZM50.792,53.5a.9.9,0,0,1-.9.9H4.711a.9.9,0,0,1-.9-.9V28.2a.9.9,0,0,1,.9-.9H17.416a15.422,15.422,0,0,0,1.813,1.807h-7.29a.9.9,0,0,0-.9.9V51.694a.9.9,0,0,0,.9.9H48.081a.9.9,0,0,0,.9-.9V34l1.807-1.807ZM54.11,26.317,34.924,45.5l-2.384.955L33.5,44.07,52.677,24.884a1.013,1.013,0,0,1,1.433,1.433Z" transform="translate(0)"/>
    </g>
  </g>
</svg>
