<svg xmlns="http://www.w3.org/2000/svg" xmlns:xlink="http://www.w3.org/1999/xlink" width="108" height="108" viewBox="0 0 108 108">
  <defs>
    <filter id="Trazado_904820" x="0" y="0" width="108" height="108" filterUnits="userSpaceOnUse">
      <feOffset dy="3" input="SourceAlpha"/>
      <feGaussianBlur stdDeviation="3" result="blur"/>
      <feFlood flood-opacity="0.161"/>
      <feComposite operator="in" in2="blur"/>
      <feComposite in="SourceGraphic"/>
    </filter>
  </defs>
  <g id="Grupo_1205251" data-name="Grupo 1205251" transform="translate(-200.023 -976.299)">
    <g id="Grupo_1202054" data-name="Grupo 1202054" transform="translate(209.023 982.299)">
      <g id="Grupo_1178821" data-name="Grupo 1178821" transform="translate(0 0)">
        <g id="Grupo_1173585" data-name="Grupo 1173585">
          <g id="Grupo_1173428" data-name="Grupo 1173428">
            <g id="Grupo_1171958" data-name="Grupo 1171958">
              <g id="Grupo_1167341" data-name="Grupo 1167341">
                <g id="Grupo_1166792" data-name="Grupo 1166792">
                  <g transform="matrix(1, 0, 0, 1, -9, -6)" filter="url(#Trazado_904820)">
                    <g id="Trazado_904820-2" data-name="Trazado 904820" transform="translate(9 6)" fill="#edf5fb">
                      <path d="M 44.99999618530273 88.49994659423828 C 39.12687301635742 88.49994659423828 33.43022155761719 87.35002136230469 28.06829643249512 85.08212280273438 C 22.88852119445801 82.89125823974609 18.23629570007324 79.75454711914062 14.24084663391113 75.75910186767578 C 10.24540901184082 71.76364898681641 7.108683586120605 67.11143493652344 4.917821407318115 61.93165969848633 C 2.649921178817749 56.56973648071289 1.499996185302734 50.87309646606445 1.499996185302734 44.99997329711914 C 1.499996185302734 39.12685012817383 2.649921178817749 33.43021011352539 4.917821407318115 28.06828498840332 C 7.108683586120605 22.88851165771484 10.24540901184082 18.23629760742188 14.24084663391113 14.24084854125977 C 18.23629570007324 10.24539852142334 22.88852119445801 7.108685970306396 28.06829643249512 4.917823314666748 C 33.43022155761719 2.649923324584961 39.12687301635742 1.499998331069946 44.99999618530273 1.499998331069946 C 50.87311935424805 1.499998331069946 56.56977081298828 2.649923324584961 61.93169784545898 4.917823314666748 C 67.11147308349609 7.108685970306396 71.76369476318359 10.24539852142334 75.75914764404297 14.24084854125977 C 79.75458526611328 18.23629760742188 82.89131164550781 22.88851165771484 85.08216857910156 28.06828498840332 C 87.35007476806641 33.43021011352539 88.5 39.12685012817383 88.5 44.99997329711914 C 88.5 50.87309646606445 87.35007476806641 56.56973648071289 85.08216857910156 61.93165969848633 C 82.89131164550781 67.11143493652344 79.75458526611328 71.76364898681641 75.75914764404297 75.75910186767578 C 71.76369476318359 79.75454711914062 67.11147308349609 82.89125823974609 61.93169784545898 85.08212280273438 C 56.56977081298828 87.35002136230469 50.87311935424805 88.49994659423828 44.99999618530273 88.49994659423828 Z" stroke="none"/>
                      <path d="M 44.99999618530273 3 C 39.32870864868164 3 33.82865142822266 4.110061645507812 28.65262603759766 6.299331665039062 C 23.65165710449219 8.414573669433594 19.15968322753906 11.44332885742188 15.301513671875 15.30149841308594 C 11.44333648681641 19.15969085693359 8.414566040039062 23.65164184570312 6.299339294433594 28.65261459350586 C 4.110054016113281 33.82864379882812 2.999992370605469 39.32868576049805 2.999992370605469 44.99997329711914 C 2.999992370605469 50.67126083374023 4.110054016113281 56.17130279541016 6.299339294433594 61.34732818603516 C 8.414566040039062 66.34829711914062 11.44333648681641 70.84025573730469 15.301513671875 74.69844055175781 C 19.15968322753906 78.55661773681641 23.65165710449219 81.58537292480469 28.65262603759766 83.70061492919922 C 33.82865142822266 85.88988494873047 39.32870864868164 86.99994659423828 44.99999618530273 86.99994659423828 C 50.67128372192383 86.99994659423828 56.17134094238281 85.88988494873047 61.34736633300781 83.70061492919922 C 66.34834289550781 81.58537292480469 70.84030914306641 78.55661773681641 74.69847869873047 74.69844055175781 C 78.55665588378906 70.84025573730469 81.58542633056641 66.34829711914062 83.70065307617188 61.34732818603516 C 85.88993835449219 56.17130279541016 87 50.67126083374023 87 44.99997329711914 C 87 39.32868576049805 85.88993835449219 33.82864379882812 83.70065307617188 28.65261459350586 C 81.58542633056641 23.65164184570312 78.55665588378906 19.15969085693359 74.69847869873047 15.30149841308594 C 70.84030914306641 11.44332885742188 66.34834289550781 8.414573669433594 61.34736633300781 6.299331665039062 C 56.17134094238281 4.110061645507812 50.67128372192383 3 44.99999618530273 3 M 44.99999618530273 0 C 69.85281372070312 0 90 20.14717102050781 90 44.99997329711914 C 90 69.85277557373047 69.85281372070312 89.99994659423828 44.99999618530273 89.99994659423828 C 20.14717864990234 89.99994659423828 -7.62939453125e-06 69.85277557373047 -7.62939453125e-06 44.99997329711914 C -7.62939453125e-06 20.14717102050781 20.14717864990234 0 44.99999618530273 0 Z" stroke="none" fill="#5e7076"/>
                    </g>
                  </g>
                </g>
              </g>
            </g>
          </g>
        </g>
      </g>
    </g>
    <g id="fisica" transform="translate(227.364 1000.638)">
      <path id="Trazado_1043525" data-name="Trazado 1043525" d="M8,408H59.542v7.109H8V408Z" transform="translate(-7.113 -362.679)" fill="#29abe2"/>
      <path id="Trazado_1043526" data-name="Trazado 1043526" d="M8,344H52.433v7.109H8V344Z" transform="translate(-7.113 -305.788)" fill="#fbb03b"/>
      <circle id="Elipse_12601" data-name="Elipse 12601" cx="4.443" cy="4.443" r="4.443" transform="translate(21.327 21.328)" fill="#0071bc"/>
      <circle id="Elipse_12602" data-name="Elipse 12602" cx="4.443" cy="4.443" r="4.443" transform="translate(30.214 21.328)" fill="#29abe2"/>
      <circle id="Elipse_12603" data-name="Elipse 12603" cx="4.443" cy="4.443" r="4.443" transform="translate(43.543 21.328)" fill="#0071bc"/>
      <path id="Trazado_1043527" data-name="Trazado 1043527" d="M19.553,157.127s11.552-2.666,11.552,7.109a16.44,16.44,0,0,1-5.126,11.974,4.949,4.949,0,0,1-5.662.85l-.765-.383-.765.383a4.949,4.949,0,0,1-5.662-.85A16.44,16.44,0,0,1,8,164.237c0-9.775,11.552-7.109,11.552-7.109Z" transform="translate(-7.112 -139.378)" fill="#da4836"/>
      <g id="Grupo_1205250" data-name="Grupo 1205250" transform="translate(6.22 45.322)">
        <path id="Trazado_1043528" data-name="Trazado 1043528" d="M56,408h3.555v7.109H56Z" transform="translate(-56.001 -408.001)" fill="#0071bc"/>
        <path id="Trazado_1043529" data-name="Trazado 1043529" d="M392,408h3.555v7.109H392Z" transform="translate(-354.678 -408.001)" fill="#0071bc"/>
      </g>
      <path id="Trazado_1043530" data-name="Trazado 1043530" d="M328,344h3.555v7.109H328Z" transform="translate(-291.567 -305.788)" fill="#f15a24"/>
      <path id="Trazado_1043531" data-name="Trazado 1043531" d="M56,344H63.11v3.555H56Z" transform="translate(-49.781 -305.788)" fill="#da4836"/>
      <path id="Trazado_1043532" data-name="Trazado 1043532" d="M115.428,87.785h1.9V88.8a3.428,3.428,0,0,1-3.428,3.428H112V91.213a3.427,3.427,0,0,1,3.428-3.428Z" transform="translate(-99.56 -78.033)" fill="#009245"/>
      <path id="Trazado_1043533" data-name="Trazado 1043533" d="M17.778,8H62.21a1.777,1.777,0,0,1,1.777,1.777h0a1.777,1.777,0,0,1-1.777,1.777H17.778A1.777,1.777,0,0,1,16,9.778h0A1.777,1.777,0,0,1,17.778,8Z" transform="translate(-14.224 -7.111)" fill="#0071bc"/>
      <path id="Trazado_1043534" data-name="Trazado 1043534" d="M42.655,25.772a5.332,5.332,0,1,0,6.03-5.28L44.7,5.333h3.288a2.666,2.666,0,1,0,0-5.332H3.554a2.666,2.666,0,0,0,0,5.332H7.109V16.668a9.023,9.023,0,0,0-4.4,1.74A7.779,7.779,0,0,0,0,24.859,17.252,17.252,0,0,0,5.25,37.324H.888A.889.889,0,0,0,0,38.213V52.431a.889.889,0,0,0,.889.889H52.43a.889.889,0,0,0,.889-.889V45.322a.889.889,0,0,0-.889-.889H46.209V38.213a.889.889,0,0,0-.889-.889H19.632a17.772,17.772,0,0,0,4.244-6.582,5.277,5.277,0,0,0,6.338-2.029,5.332,5.332,0,1,0,5.332-8.193V5.333h7.313l4.007,15.228a5.339,5.339,0,0,0-4.21,5.211ZM2.666,2.667a.889.889,0,0,1,.889-.889H47.987a.889.889,0,1,1,0,1.777H3.554A.889.889,0,0,1,2.666,2.667ZM24.882,20.523a5.275,5.275,0,0,0-.858.222,6.679,6.679,0,0,0-1.856-2.338,9.023,9.023,0,0,0-4.4-1.741v-3.3a4.272,4.272,0,0,0,.889-2.594V9.752a.889.889,0,0,0-.889-.889V5.333h7.109ZM13.322,16.7a13.973,13.973,0,0,0-.118-1.612h1.141A4.29,4.29,0,0,0,16,14.752V16.53a17.751,17.751,0,0,0-2.673.166Zm3.562-6.055v.127a2.542,2.542,0,0,1-2.539,2.539H13.329V13.18a2.542,2.542,0,0,1,2.539-2.539Zm-8-5.308H16V8.863h-.127A4.3,4.3,0,0,0,12.1,11.109a14.145,14.145,0,0,0-1.617-2.781L9.064,9.394a12.514,12.514,0,0,1,2.481,7.3,17.634,17.634,0,0,0-2.659-.162V5.333ZM3.816,19.8c3-2.39,8.372-1.2,8.426-1.185a.944.944,0,0,0,.4,0c.053-.013,5.409-1.212,8.421,1.183a6.1,6.1,0,0,1,2.044,5.06A15.551,15.551,0,0,1,18.248,36.2a4.062,4.062,0,0,1-4.645.692l-.765-.382a.889.889,0,0,0-.794,0l-.765.382a4.109,4.109,0,0,1-1.823.436H9.443A4.013,4.013,0,0,1,6.634,36.2,15.551,15.551,0,0,1,1.777,24.859,6.11,6.11,0,0,1,3.816,19.8ZM7.109,39.1h5.332v1.777H7.109Zm-5.332,0H5.332v2.666a.889.889,0,0,0,.889.889h7.109a.889.889,0,0,0,.889-.889V39.1H35.546v5.332H1.777V39.1ZM46.209,46.21v5.332H44.432V46.21Zm-3.555,5.332H10.664V46.21H42.655ZM8.886,46.21v5.332H7.109V46.21Zm28.437-1.777V39.1H39.1v5.332ZM1.777,46.21H5.332v5.332H1.777Zm49.764,5.332H47.987V46.21h3.555Zm-7.109-7.109H40.877V39.1h3.555ZM25.77,29.326a3.539,3.539,0,0,1-1.381-.285,17.631,17.631,0,0,0,.492-4.182,10.731,10.731,0,0,0-.272-2.44,3.555,3.555,0,1,1,1.161,6.907Zm12.441-3.555a3.555,3.555,0,1,1-3.555-3.555A3.555,3.555,0,0,1,38.211,25.772ZM33.768,20.52a5.339,5.339,0,0,0-3.555,2.31,5.339,5.339,0,0,0-3.555-2.31V5.333h7.109Zm14.218,1.7a3.555,3.555,0,1,1-3.555,3.555A3.555,3.555,0,0,1,47.987,22.217Z"/>
      <path id="Trazado_1043535" data-name="Trazado 1043535" d="M46.222,185.778V184c-3.732,0-6.221,1.057-6.221,6.22h1.777C41.778,186.449,42.942,185.778,46.222,185.778Z" transform="translate(-35.558 -163.561)"/>
      <path id="Trazado_1043536" data-name="Trazado 1043536" d="M40,256h1.777v1.777H40Z" transform="translate(-35.558 -227.563)"/>
      <path id="Trazado_1043537" data-name="Trazado 1043537" d="M112,432h24.882v1.777H112Z" transform="translate(-99.56 -384.013)"/>
      <path id="Trazado_1043538" data-name="Trazado 1043538" d="M352,432h1.777v1.777H352Z" transform="translate(-312.901 -384.013)"/>
      <path id="Trazado_1043539" data-name="Trazado 1043539" d="M144,368h14.218v1.777H144Z" transform="translate(-128.006 -327.122)"/>
      <path id="Trazado_1043540" data-name="Trazado 1043540" d="M288,368h1.777v1.777H288Z" transform="translate(-256.01 -327.122)"/>
    </g>
  </g>
</svg>
