<svg xmlns="http://www.w3.org/2000/svg" xmlns:xlink="http://www.w3.org/1999/xlink" width="108" height="108" viewBox="0 0 108 108">
  <defs>
    <filter id="Trazado_904820" x="0" y="0" width="108" height="108" filterUnits="userSpaceOnUse">
      <feOffset dy="3" input="SourceAlpha"/>
      <feGaussianBlur stdDeviation="3" result="blur"/>
      <feFlood flood-opacity="0.161"/>
      <feComposite operator="in" in2="blur"/>
      <feComposite in="SourceGraphic"/>
    </filter>
  </defs>
  <g id="Grupo_1205254" data-name="Grupo 1205254" transform="translate(-200.023 -4455.065)">
    <g id="Grupo_1202071" data-name="Grupo 1202071" transform="translate(209.023 4461.065)">
      <g id="Grupo_1178821" data-name="Grupo 1178821" transform="translate(0 0)">
        <g id="Grupo_1173585" data-name="Grupo 1173585">
          <g id="Grupo_1173428" data-name="Grupo 1173428">
            <g id="Grupo_1171958" data-name="Grupo 1171958">
              <g id="Grupo_1167341" data-name="Grupo 1167341">
                <g id="Grupo_1166792" data-name="Grupo 1166792">
                  <g transform="matrix(1, 0, 0, 1, -9, -6)" filter="url(#Trazado_904820)">
                    <g id="Trazado_904820-2" data-name="Trazado 904820" transform="translate(9 6)" fill="#fef9e7">
                      <path d="M 44.99999618530273 88.49994659423828 C 39.12687301635742 88.49994659423828 33.43022155761719 87.35002136230469 28.06829643249512 85.08212280273438 C 22.88852119445801 82.89125823974609 18.23629570007324 79.75454711914062 14.24084663391113 75.75910186767578 C 10.24540901184082 71.76364898681641 7.108683586120605 67.11143493652344 4.917821407318115 61.93165969848633 C 2.649921178817749 56.56973648071289 1.499996185302734 50.87309646606445 1.499996185302734 44.99997329711914 C 1.499996185302734 39.12685012817383 2.649921178817749 33.43021011352539 4.917821407318115 28.06828498840332 C 7.108683586120605 22.88851165771484 10.24540901184082 18.23629760742188 14.24084663391113 14.24084854125977 C 18.23629570007324 10.24539852142334 22.88852119445801 7.108685970306396 28.06829643249512 4.917823314666748 C 33.43022155761719 2.649923324584961 39.12687301635742 1.499998331069946 44.99999618530273 1.499998331069946 C 50.87311935424805 1.499998331069946 56.56977081298828 2.649923324584961 61.93169784545898 4.917823314666748 C 67.11147308349609 7.108685970306396 71.76369476318359 10.24539852142334 75.75914764404297 14.24084854125977 C 79.75458526611328 18.23629760742188 82.89131164550781 22.88851165771484 85.08216857910156 28.06828498840332 C 87.35007476806641 33.43021011352539 88.5 39.12685012817383 88.5 44.99997329711914 C 88.5 50.87309646606445 87.35007476806641 56.56973648071289 85.08216857910156 61.93165969848633 C 82.89131164550781 67.11143493652344 79.75458526611328 71.76364898681641 75.75914764404297 75.75910186767578 C 71.76369476318359 79.75454711914062 67.11147308349609 82.89125823974609 61.93169784545898 85.08212280273438 C 56.56977081298828 87.35002136230469 50.87311935424805 88.49994659423828 44.99999618530273 88.49994659423828 Z" stroke="none"/>
                      <path d="M 44.99999618530273 3 C 39.32870864868164 3 33.82865142822266 4.110061645507812 28.65262603759766 6.299331665039062 C 23.65165710449219 8.414573669433594 19.15968322753906 11.44332885742188 15.301513671875 15.30149841308594 C 11.44333648681641 19.15969085693359 8.414566040039062 23.65164184570312 6.299339294433594 28.65261459350586 C 4.110054016113281 33.82864379882812 2.999992370605469 39.32868576049805 2.999992370605469 44.99997329711914 C 2.999992370605469 50.67126083374023 4.110054016113281 56.17130279541016 6.299339294433594 61.34732818603516 C 8.414566040039062 66.34829711914062 11.44333648681641 70.84025573730469 15.301513671875 74.69844055175781 C 19.15968322753906 78.55661773681641 23.65165710449219 81.58537292480469 28.65262603759766 83.70061492919922 C 33.82865142822266 85.88988494873047 39.32870864868164 86.99994659423828 44.99999618530273 86.99994659423828 C 50.67128372192383 86.99994659423828 56.17134094238281 85.88988494873047 61.34736633300781 83.70061492919922 C 66.34834289550781 81.58537292480469 70.84030914306641 78.55661773681641 74.69847869873047 74.69844055175781 C 78.55665588378906 70.84025573730469 81.58542633056641 66.34829711914062 83.70065307617188 61.34732818603516 C 85.88993835449219 56.17130279541016 87 50.67126083374023 87 44.99997329711914 C 87 39.32868576049805 85.88993835449219 33.82864379882812 83.70065307617188 28.65261459350586 C 81.58542633056641 23.65164184570312 78.55665588378906 19.15969085693359 74.69847869873047 15.30149841308594 C 70.84030914306641 11.44332885742188 66.34834289550781 8.414573669433594 61.34736633300781 6.299331665039062 C 56.17134094238281 4.110061645507812 50.67128372192383 3 44.99999618530273 3 M 44.99999618530273 0 C 69.85281372070312 0 90 20.14717102050781 90 44.99997329711914 C 90 69.85277557373047 69.85281372070312 89.99994659423828 44.99999618530273 89.99994659423828 C 20.14717864990234 89.99994659423828 -7.62939453125e-06 69.85277557373047 -7.62939453125e-06 44.99997329711914 C -7.62939453125e-06 20.14717102050781 20.14717864990234 0 44.99999618530273 0 Z" stroke="none" fill="#887013"/>
                    </g>
                  </g>
                </g>
              </g>
            </g>
          </g>
        </g>
      </g>
    </g>
    <g id="rodillo-de-camino" transform="translate(212.727 4409.402)">
      <g id="Grupo_1205253" data-name="Grupo 1205253" transform="translate(9.915 73.804)">
        <path id="Trazado_1043541" data-name="Trazado 1043541" d="M390.868,125.535h-1.925a.655.655,0,0,1-.654-.654v-7.306a.655.655,0,0,1,.654-.654h1.925a.655.655,0,0,1,.654.654v7.306A.655.655,0,0,1,390.868,125.535Z" transform="translate(-339.611 -112.248)" fill="#636c77" fill-rule="evenodd"/>
        <path id="Trazado_1043542" data-name="Trazado 1043542" d="M151.154,99.984v13.239h42.079V100.2a.628.628,0,0,0-.133-.4L187.547,92.5a.635.635,0,0,0-.521-.258H175.108V81.831a.655.655,0,0,0-.654-.654h-18.07Z" transform="translate(-133.482 -81.177)" fill="#fdcd56" fill-rule="evenodd"/>
        <circle id="Elipse_12604" data-name="Elipse 12604" cx="13.792" cy="13.792" r="13.792" transform="translate(0 18.254)" fill="#636c77"/>
        <circle id="Elipse_12605" data-name="Elipse 12605" cx="9.818" cy="9.818" r="9.818" transform="translate(0.975 26.734) rotate(-22.514)" fill="#e4e8eb"/>
        <path id="Trazado_1043543" data-name="Trazado 1043543" d="M164.387,304.86H115.912a.655.655,0,0,0-.654.654v4.29a.655.655,0,0,0,.654.654h48.476a.655.655,0,0,0,.654-.654v-4.29A.655.655,0,0,0,164.387,304.86Z" transform="translate(-102.28 -275.613)" fill="#daa33b" fill-rule="evenodd"/>
        <circle id="Elipse_12606" data-name="Elipse 12606" cx="8.858" cy="8.858" r="8.858" transform="translate(42.036 28.123)" fill="#636c77"/>
        <circle id="Elipse_12607" data-name="Elipse 12607" cx="3.849" cy="3.849" r="3.849" transform="translate(47.044 33.131)" fill="#e4e8eb"/>
        <g id="Grupo_1205252" data-name="Grupo 1205252" transform="translate(10.56 0)">
          <path id="Trazado_1043544" data-name="Trazado 1043544" d="M118.764,290.5H101.439a4.676,4.676,0,1,0,0,9.352h17.325a.655.655,0,0,0,.654-.654v-8.044A.655.655,0,0,0,118.764,290.5Z" transform="translate(-96.763 -263.135)" fill="#f5b945" fill-rule="evenodd"/>
          <path id="Trazado_1043545" data-name="Trazado 1043545" d="M173.625,81.178H150.854a.655.655,0,0,0-.654.654v1.891a.655.655,0,0,0,.654.654h23.425V81.832A.655.655,0,0,0,173.625,81.178Z" transform="translate(-143.213 -81.178)" fill="#f5b945" fill-rule="evenodd"/>
          <path id="Trazado_1043546" data-name="Trazado 1043546" d="M334.355,165.763h1.831V183.95h-1.831Z" transform="translate(-303.289 -154.703)" fill="#f5b945" fill-rule="evenodd"/>
        </g>
        <path id="Trazado_1043547" data-name="Trazado 1043547" d="M175.475,116.492V105.637h-12.4l-3.2,11.509h14.947A.655.655,0,0,0,175.475,116.492Z" transform="translate(-141.062 -102.439)" fill="#a4d4ff" fill-rule="evenodd"/>
      </g>
      <path id="Trazado_1043548" data-name="Trazado 1043548" d="M57.192,98.409a.915.915,0,0,1,.916-.915H63.1a.915.915,0,0,1,0,1.831H58.107A.916.916,0,0,1,57.192,98.409Zm0-3.917a.915.915,0,0,1,.916-.915H63.1a.915.915,0,0,1,0,1.831H58.107A.916.916,0,0,1,57.192,94.492Zm0-3.917a.916.916,0,0,1,.916-.915H63.1a.915.915,0,0,1,0,1.831H58.107A.915.915,0,0,1,57.192,90.574Zm3.618,23.218a2.934,2.934,0,1,1,2.934-2.934A2.937,2.937,0,0,1,60.809,113.792Zm0-7.7a4.765,4.765,0,1,0,4.764,4.765A4.77,4.77,0,0,0,60.809,106.093Zm10.952,1.714h-1.67A9.78,9.78,0,0,0,67.8,104.04h3.961ZM60.809,118.8a7.942,7.942,0,1,0-7.943-7.942,7.95,7.95,0,0,0,7.943,7.942ZM44.046,107.807V104.04h9.771a9.785,9.785,0,0,0-2.291,3.767Zm-6.733-7.475A14.751,14.751,0,0,0,28.7,92.095l.72-2.6H44.328a.914.914,0,0,0,.915-.915V77.991h5.383V102.21h-6.58v-.962a.916.916,0,0,0-.916-.915Zm4.9,9.351v-7.521H25.152a3.76,3.76,0,1,0,0,7.521H42.215Zm-17.063,1.831a5.591,5.591,0,1,1,0-11.182h5.484a8.9,8.9,0,1,0,0,11.182H25.152ZM23.707,118.8a12.917,12.917,0,0,0,11.6-7.286H32.87a10.734,10.734,0,1,1,0-11.182h2.438a12.877,12.877,0,1,0-11.6,18.467Zm8.916-40.809-2.69,9.678h13.48V77.991ZM28.378,76.16V74.792H50.626V76.16Zm34.952,9.693H52.457V102.21h3.808a9.74,9.74,0,0,1,9.086,0h3.4V92.993Zm-3.821-6.386h1.4v4.556h-1.4ZM72.676,102.21H70.582V92.685a.906.906,0,0,0-.187-.553l-5.882-7.748a.914.914,0,0,0-.728-.361H62.741V78.552a.914.914,0,0,0-.915-.915h-.7V74.526h1.491a.915.915,0,1,0,0-1.831H60.209a.915.915,0,0,0-.916.915v4.026h-.7a.914.914,0,0,0-.915.915v5.471H52.457V73.877a.916.916,0,0,0-.915-.915H27.462a.916.916,0,0,0-.915.915v3.2a.915.915,0,0,0,.915.915h3.261l-3.778,13.59a14.7,14.7,0,1,0,10.368,19.933H43.13a.916.916,0,0,0,.916-.915v-.961h7.069a9.772,9.772,0,1,0,19.467,1.22,9.862,9.862,0,0,0-.079-1.22h2.173a.915.915,0,0,0,.916-.915v-5.6A.915.915,0,0,0,72.676,102.21Z" fill-rule="evenodd"/>
    </g>
  </g>
</svg>
