<svg xmlns="http://www.w3.org/2000/svg" xmlns:xlink="http://www.w3.org/1999/xlink" width="113" height="113" viewBox="0 0 113 113">
  <defs>
    <filter id="Trazado_982547" x="0" y="0" width="113" height="113" filterUnits="userSpaceOnUse">
      <feOffset dy="3" input="SourceAlpha"/>
      <feGaussianBlur stdDeviation="3" result="blur"/>
      <feFlood flood-opacity="0.161"/>
      <feComposite operator="in" in2="blur"/>
      <feComposite in="SourceGraphic"/>
    </filter>
  </defs>
  <g id="Grupo_1205258" data-name="Grupo 1205258" transform="translate(-799.49 -1339.49)">
    <g id="Grupo_1202075" data-name="Grupo 1202075" transform="translate(15 -1862.421)">
      <g id="Grupo_1178877" data-name="Grupo 1178877" transform="translate(-9 1712.477)">
        <g id="Grupo_1176922" data-name="Grupo 1176922" transform="translate(802.49 1495.435)">
          <g id="Grupo_1172322" data-name="Grupo 1172322" transform="translate(0 0)">
            <g id="Grupo_1164700" data-name="Grupo 1164700">
              <g id="Grupo_1160931" data-name="Grupo 1160931">
                <g id="Grupo_1160749" data-name="Grupo 1160749">
                  <g id="Grupo_1158891" data-name="Grupo 1158891">
                    <g id="Grupo_1157406" data-name="Grupo 1157406">
                      <g id="Grupo_1155793" data-name="Grupo 1155793">
                        <g id="Grupo_1154704" data-name="Grupo 1154704">
                          <g id="Grupo_1150790" data-name="Grupo 1150790">
                            <g id="Grupo_1154214" data-name="Grupo 1154214">
                              <g id="Grupo_1152583" data-name="Grupo 1152583">
                                <g id="Grupo_1146973" data-name="Grupo 1146973">
                                  <g id="Grupo_1146954" data-name="Grupo 1146954">
                                    <g transform="matrix(1, 0, 0, 1, -9, -6)" filter="url(#Trazado_982547)">
                                      <g id="Trazado_982547-2" data-name="Trazado 982547" transform="translate(9 6)" fill="#fbedfe">
                                        <path d="M 47.5000114440918 93.49987030029297 C 41.28938293457031 93.49987030029297 35.26534652709961 92.28384399414062 29.5951976776123 89.88558959960938 C 24.11773109436035 87.56881713867188 19.19814491271973 84.25183868408203 14.97310447692871 80.02680206298828 C 10.74805164337158 75.80176544189453 7.43107795715332 70.88218688964844 5.114304542541504 65.40472412109375 C 2.716038227081299 59.73458862304688 1.500011444091797 53.71054840087891 1.500011444091797 47.49993515014648 C 1.500011444091797 41.28932189941406 2.716038227081299 35.26528167724609 5.114304542541504 29.59514808654785 C 7.43107795715332 24.1176815032959 10.74805164337158 19.1981086730957 14.97310447692871 14.97306823730469 C 19.19814491271973 10.74802875518799 24.11773109436035 7.431055068969727 29.5951976776123 5.11428165435791 C 35.26534652709961 2.716028451919556 41.28938293457031 1.500001788139343 47.5000114440918 1.500001788139343 C 53.71063995361328 1.500001788139343 59.73467636108398 2.716028451919556 65.40482330322266 5.11428165435791 C 70.88229370117188 7.431055068969727 75.8018798828125 10.74802875518799 80.02691650390625 14.97306823730469 C 84.25196838378906 19.1981086730957 87.56894683837891 24.1176815032959 89.88571929931641 29.59514808654785 C 92.28398132324219 35.26528167724609 93.50001525878906 41.28932189941406 93.50001525878906 47.49993515014648 C 93.50001525878906 53.71054840087891 92.28398132324219 59.73458862304688 89.88571929931641 65.40472412109375 C 87.56894683837891 70.88218688964844 84.25196838378906 75.80176544189453 80.02691650390625 80.02680206298828 C 75.8018798828125 84.25183868408203 70.88229370117188 87.56881713867188 65.40482330322266 89.88558959960938 C 59.73467636108398 92.28384399414062 53.71063995361328 93.49987030029297 47.5000114440918 93.49987030029297 Z" stroke="none"/>
                                        <path d="M 47.5000114440918 3 C 41.49122619628906 3 35.66378021240234 4.1761474609375 30.17951965332031 6.495796203613281 C 24.880859375 8.7369384765625 20.12153625488281 11.94596862792969 16.03376770019531 16.03373718261719 C 11.94598388671875 20.12149047851562 8.736968994140625 24.88081359863281 6.495811462402344 30.17947387695312 C 4.176162719726562 35.66371917724609 3.000007629394531 41.49116516113281 3.000007629394531 47.49993515014648 C 3.000007629394531 53.50870513916016 4.176162719726562 59.33615112304688 6.495811462402344 64.82039642333984 C 8.736968994140625 70.11905670166016 11.94598388671875 74.87837982177734 16.03376770019531 78.96613311767578 C 20.12153625488281 83.05390167236328 24.880859375 86.26293182373047 30.17951965332031 88.50407409667969 C 35.66378021240234 90.82372283935547 41.49122619628906 91.99987030029297 47.5000114440918 91.99987030029297 C 53.50879669189453 91.99987030029297 59.33624267578125 90.82372283935547 64.82050323486328 88.50407409667969 C 70.11916351318359 86.26293182373047 74.87848663330078 83.05390167236328 78.96625518798828 78.96613311767578 C 83.05403900146484 74.87837982177734 86.2630615234375 70.11905670166016 88.50421142578125 64.82039642333984 C 90.82386016845703 59.33615112304688 92.00001525878906 53.50870513916016 92.00001525878906 47.49993515014648 C 92.00001525878906 41.49116516113281 90.82386016845703 35.66371917724609 88.50421142578125 30.17947387695312 C 86.2630615234375 24.88081359863281 83.05403900146484 20.12149047851562 78.96625518798828 16.03373718261719 C 74.87848663330078 11.94596862792969 70.11916351318359 8.7369384765625 64.82050323486328 6.495796203613281 C 59.33624267578125 4.1761474609375 53.50879669189453 3 47.5000114440918 3 M 47.5000114440918 0 C 73.73353576660156 0 95.00001525878906 21.26644134521484 95.00001525878906 47.49993515014648 C 95.00001525878906 73.73342895507812 73.73353576660156 94.99987030029297 47.5000114440918 94.99987030029297 C 21.26648712158203 94.99987030029297 7.62939453125e-06 73.73342895507812 7.62939453125e-06 47.49993515014648 C 7.62939453125e-06 21.26644134521484 21.26648712158203 0 47.5000114440918 0 Z" stroke="none" fill="#7b3289"/>
                                      </g>
                                    </g>
                                  </g>
                                </g>
                              </g>
                            </g>
                          </g>
                        </g>
                      </g>
                    </g>
                  </g>
                </g>
              </g>
            </g>
          </g>
        </g>
      </g>
    </g>
    <g id="relaxing_340003" transform="translate(826.889 1363.952)">
      <circle id="Elipse_12611" data-name="Elipse 12611" cx="27.718" cy="27.718" r="27.718" transform="translate(0.932 1.088)" fill="#9ae1d3"/>
      <path id="Trazado_1043597" data-name="Trazado 1043597" d="M84.114,99.745c-.711-.145-1.452-.327-2.192-.53C74.055,97.024,65.875,91.98,58.893,85S46.874,69.843,44.682,61.976c-.2-.74-.385-1.466-.53-2.192L43.993,59c-.682.566-1.335,1.169-1.974,1.8a29.666,29.666,0,0,0-4.21,5.305c.145.711.327,1.452.53,2.192,2.177,7.867,7.236,16.047,14.211,23.029s15.162,12.033,23.029,14.211c.74.2,1.466.385,2.192.53a29.1,29.1,0,0,0,5.305-4.21c.639-.639,1.234-1.292,1.8-1.974Z" transform="translate(-33.459 -52.309)" fill="#83c7c3"/>
      <g id="Grupo_1205260" data-name="Grupo 1205260" transform="translate(0.071 0)">
        <path id="Trazado_1043598" data-name="Trazado 1043598" d="M422.95,321.016a1.2,1.2,0,1,0,1.2,1.2A1.2,1.2,0,0,0,422.95,321.016Z" transform="translate(-373.926 -284.612)" fill="#000030"/>
        <path id="Trazado_1043599" data-name="Trazado 1043599" d="M283.75,67.064a1.2,1.2,0,1,0,1.2,1.2A1.2,1.2,0,0,0,283.75,67.064Z" transform="translate(-250.511 -59.459)" fill="#000030"/>
        <path id="Trazado_1043600" data-name="Trazado 1043600" d="M374.63,314.1a1.2,1.2,0,1,0,1.2,1.2A1.2,1.2,0,0,0,374.63,314.1Z" transform="translate(-331.085 -278.483)" fill="#000030"/>
        <path id="Trazado_1043601" data-name="Trazado 1043601" d="M52.245,46.565a29.039,29.039,0,0,0-40.68-40.68,1.208,1.208,0,0,0-.581-.421,1.34,1.34,0,0,0-1.292.225c-.123.1-.24.2-.363.3l-.065.065L6.136,9.187l-.065.065A31.93,31.93,0,0,0,3.247,13.1a1.289,1.289,0,0,0-.167.965c.1.479.218.944.327,1.415A29.317,29.317,0,0,0,.33,32.935a29.051,29.051,0,0,0,24.88,24.88,29.783,29.783,0,0,0,3.847.261,29.294,29.294,0,0,0,13.572-3.331c.479.116.944.225,1.415.327a1.149,1.149,0,0,0,.276.022,1.307,1.307,0,0,0,.689-.2,30.439,30.439,0,0,0,3.847-2.823l.065-.065,3.128-3.128.065-.065c.1-.116.2-.24.3-.348l.015-.015a1.312,1.312,0,0,0,.225-1.285A1.048,1.048,0,0,0,52.245,46.565ZM10.425,47.7A26.536,26.536,0,0,1,4.561,19.269,57.758,57.758,0,0,0,18.184,39.953,57.951,57.951,0,0,0,38.869,53.576,26.561,26.561,0,0,1,10.425,47.7ZM49.48,45.818c-.225-.058-.443-.116-.668-.181a42.419,42.419,0,0,1-6.554-2.46,1.313,1.313,0,0,0-1.125,2.373,44.168,44.168,0,0,0,6.975,2.62c.24.065.486.138.74.2l-1.735,1.756a28.561,28.561,0,0,1-3.041,2.272c-.53-.123-1.052-.247-1.575-.4h-.015C34.826,49.86,26.857,44.932,20.027,38.1S8.277,23.289,6.158,15.647c-.145-.523-.283-1.052-.4-1.589a27.943,27.943,0,0,1,2.257-3.041L9.765,9.267c.065.247.123.486.2.74,2.243,8.085,7.4,16.468,14.552,23.61a62.369,62.369,0,0,0,12.382,9.675,1.314,1.314,0,1,0,1.335-2.264,59.408,59.408,0,0,1-11.859-9.275c-6.83-6.83-11.75-14.8-13.884-22.456-.058-.218-.123-.443-.181-.668A26.416,26.416,0,0,1,49.48,45.818Z" transform="translate(-0.071 0)" fill="#000030"/>
      </g>
    </g>
  </g>
</svg>
