<svg xmlns="http://www.w3.org/2000/svg" xmlns:xlink="http://www.w3.org/1999/xlink" width="113" height="113" viewBox="0 0 113 113">
  <defs>
    <filter id="Trazado_982547" x="0" y="0" width="113" height="113" filterUnits="userSpaceOnUse">
      <feOffset dy="3" input="SourceAlpha"/>
      <feGaussianBlur stdDeviation="3" result="blur"/>
      <feFlood flood-opacity="0.161"/>
      <feComposite operator="in" in2="blur"/>
      <feComposite in="SourceGraphic"/>
    </filter>
  </defs>
  <g id="Grupo_1205261" data-name="Grupo 1205261" transform="translate(-7046.265 -1336.281)">
    <g id="Grupo_1202077" data-name="Grupo 1202077" transform="translate(6261.775 -1865.631)">
      <g id="Grupo_1178877" data-name="Grupo 1178877" transform="translate(-9 1712.477)">
        <g id="Grupo_1176922" data-name="Grupo 1176922" transform="translate(802.49 1495.435)">
          <g id="Grupo_1172322" data-name="Grupo 1172322" transform="translate(0 0)">
            <g id="Grupo_1164700" data-name="Grupo 1164700">
              <g id="Grupo_1160931" data-name="Grupo 1160931">
                <g id="Grupo_1160749" data-name="Grupo 1160749">
                  <g id="Grupo_1158891" data-name="Grupo 1158891">
                    <g id="Grupo_1157406" data-name="Grupo 1157406">
                      <g id="Grupo_1155793" data-name="Grupo 1155793">
                        <g id="Grupo_1154704" data-name="Grupo 1154704">
                          <g id="Grupo_1150790" data-name="Grupo 1150790">
                            <g id="Grupo_1154214" data-name="Grupo 1154214">
                              <g id="Grupo_1152583" data-name="Grupo 1152583">
                                <g id="Grupo_1146973" data-name="Grupo 1146973">
                                  <g id="Grupo_1146954" data-name="Grupo 1146954">
                                    <g transform="matrix(1, 0, 0, 1, -9, -6)" filter="url(#Trazado_982547)">
                                      <g id="Trazado_982547-2" data-name="Trazado 982547" transform="translate(9 6)" fill="#fbedfe">
                                        <path d="M 47.5000114440918 93.49987030029297 C 41.28938293457031 93.49987030029297 35.26534652709961 92.28384399414062 29.5951976776123 89.88558959960938 C 24.11773109436035 87.56881713867188 19.19814491271973 84.25183868408203 14.97310447692871 80.02680206298828 C 10.74805164337158 75.80176544189453 7.43107795715332 70.88218688964844 5.114304542541504 65.40472412109375 C 2.716038227081299 59.73458862304688 1.500011444091797 53.71054840087891 1.500011444091797 47.49993515014648 C 1.500011444091797 41.28932189941406 2.716038227081299 35.26528167724609 5.114304542541504 29.59514808654785 C 7.43107795715332 24.1176815032959 10.74805164337158 19.1981086730957 14.97310447692871 14.97306823730469 C 19.19814491271973 10.74802875518799 24.11773109436035 7.431055068969727 29.5951976776123 5.11428165435791 C 35.26534652709961 2.716028451919556 41.28938293457031 1.500001788139343 47.5000114440918 1.500001788139343 C 53.71063995361328 1.500001788139343 59.73467636108398 2.716028451919556 65.40482330322266 5.11428165435791 C 70.88229370117188 7.431055068969727 75.8018798828125 10.74802875518799 80.02691650390625 14.97306823730469 C 84.25196838378906 19.1981086730957 87.56894683837891 24.1176815032959 89.88571929931641 29.59514808654785 C 92.28398132324219 35.26528167724609 93.50001525878906 41.28932189941406 93.50001525878906 47.49993515014648 C 93.50001525878906 53.71054840087891 92.28398132324219 59.73458862304688 89.88571929931641 65.40472412109375 C 87.56894683837891 70.88218688964844 84.25196838378906 75.80176544189453 80.02691650390625 80.02680206298828 C 75.8018798828125 84.25183868408203 70.88229370117188 87.56881713867188 65.40482330322266 89.88558959960938 C 59.73467636108398 92.28384399414062 53.71063995361328 93.49987030029297 47.5000114440918 93.49987030029297 Z" stroke="none"/>
                                        <path d="M 47.5000114440918 3 C 41.49122619628906 3 35.66378021240234 4.1761474609375 30.17951965332031 6.495796203613281 C 24.880859375 8.7369384765625 20.12153625488281 11.94596862792969 16.03376770019531 16.03373718261719 C 11.94598388671875 20.12149047851562 8.736968994140625 24.88081359863281 6.495811462402344 30.17947387695312 C 4.176162719726562 35.66371917724609 3.000007629394531 41.49116516113281 3.000007629394531 47.49993515014648 C 3.000007629394531 53.50870513916016 4.176162719726562 59.33615112304688 6.495811462402344 64.82039642333984 C 8.736968994140625 70.11905670166016 11.94598388671875 74.87837982177734 16.03376770019531 78.96613311767578 C 20.12153625488281 83.05390167236328 24.880859375 86.26293182373047 30.17951965332031 88.50407409667969 C 35.66378021240234 90.82372283935547 41.49122619628906 91.99987030029297 47.5000114440918 91.99987030029297 C 53.50879669189453 91.99987030029297 59.33624267578125 90.82372283935547 64.82050323486328 88.50407409667969 C 70.11916351318359 86.26293182373047 74.87848663330078 83.05390167236328 78.96625518798828 78.96613311767578 C 83.05403900146484 74.87837982177734 86.2630615234375 70.11905670166016 88.50421142578125 64.82039642333984 C 90.82386016845703 59.33615112304688 92.00001525878906 53.50870513916016 92.00001525878906 47.49993515014648 C 92.00001525878906 41.49116516113281 90.82386016845703 35.66371917724609 88.50421142578125 30.17947387695312 C 86.2630615234375 24.88081359863281 83.05403900146484 20.12149047851562 78.96625518798828 16.03373718261719 C 74.87848663330078 11.94596862792969 70.11916351318359 8.7369384765625 64.82050323486328 6.495796203613281 C 59.33624267578125 4.1761474609375 53.50879669189453 3 47.5000114440918 3 M 47.5000114440918 0 C 73.73353576660156 0 95.00001525878906 21.26644134521484 95.00001525878906 47.49993515014648 C 95.00001525878906 73.73342895507812 73.73353576660156 94.99987030029297 47.5000114440918 94.99987030029297 C 21.26648712158203 94.99987030029297 7.62939453125e-06 73.73342895507812 7.62939453125e-06 47.49993515014648 C 7.62939453125e-06 21.26644134521484 21.26648712158203 0 47.5000114440918 0 Z" stroke="none" fill="#7b3289"/>
                                      </g>
                                    </g>
                                  </g>
                                </g>
                              </g>
                            </g>
                          </g>
                        </g>
                      </g>
                    </g>
                  </g>
                </g>
              </g>
            </g>
          </g>
        </g>
      </g>
    </g>
    <g id="Layer_21" data-name="Layer 21" transform="translate(7074.859 1362.435)">
      <path id="Trazado_1043602" data-name="Trazado 1043602" d="M2,26,53.108,51.554H2Z" transform="translate(-0.148 -3.721)" fill="#f4a93c"/>
      <path id="Trazado_1043603" data-name="Trazado 1043603" d="M2,56H53.108v5.111H2Z" transform="translate(-0.148 -8.167)" fill="#474747"/>
      <path id="Trazado_1043604" data-name="Trazado 1043604" d="M50.552,57.7V56H2v2.555H49.7A.852.852,0,0,0,50.552,57.7Z" transform="translate(-0.148 -8.167)" fill="#686868"/>
      <circle id="Elipse_12612" data-name="Elipse 12612" cx="13.629" cy="13.629" r="13.629" transform="translate(5.259 1.836)" fill="#3b5892"/>
      <path id="Trazado_1043605" data-name="Trazado 1043605" d="M20.072,2a13.555,13.555,0,0,0-6.236,1.52A13.619,13.619,0,0,0,28.864,26.034,13.623,13.623,0,0,0,20.072,2Z" transform="translate(-1.185 -0.164)" fill="#4c6cb5"/>
      <path id="Trazado_1043606" data-name="Trazado 1043606" d="M52.37,29H43v9.37l2.555-2.555,9.37,9.37,4.259-4.259-9.37-9.37Z" transform="translate(-6.225 -4.165)" fill="#559b2d"/>
      <path id="Trazado_1043607" data-name="Trazado 1043607" d="M52.37,18.184H43V8.814l2.555,2.555L54.925,2l4.259,4.259-9.37,9.37Z" transform="translate(-6.225 -0.164)" fill="#559b2d"/>
      <path id="Trazado_1043608" data-name="Trazado 1043608" d="M33.073,16.073h-1.7A9.381,9.381,0,0,0,22,6.7V5A11.086,11.086,0,0,1,33.073,16.073Z" transform="translate(-3.112 -0.608)" fill="#78a0d4"/>
      <path id="Trazado_1043609" data-name="Trazado 1043609" d="M44.59,47.295,2,26V47.295Z" transform="translate(-0.148 -3.721)" fill="#f6b940"/>
      <path id="Trazado_1043610" data-name="Trazado 1043610" d="M53.757,47.568c-.009-.026-.011-.055-.022-.08a.852.852,0,0,0-.17-.256c-.014-.015-.035-.023-.051-.037a.839.839,0,0,0-.17-.128L19.071,29.936a14.521,14.521,0,1,0-11.84-5.922l-5-2.5A.852.852,0,0,0,1,22.279V52.944a.852.852,0,0,0,.852.852H52.959a.852.852,0,0,0,.852-.852V47.833c0-.014-.008-.026-.009-.04a.805.805,0,0,0-.045-.225ZM18.888,2.688A12.777,12.777,0,1,1,6.111,15.465,12.777,12.777,0,0,1,18.888,2.688ZM2.7,23.657,49.351,46.981H2.7Zm49.4,28.435H2.7V48.685h49.4Z" transform="translate(0 0)"/>
      <path id="Trazado_1043611" data-name="Trazado 1043611" d="M50.871,31.407l1.953-1.953a.852.852,0,0,0-.6-1.454h-9.37a.852.852,0,0,0-.852.852v9.37a.852.852,0,0,0,1.454.6l1.953-1.953,8.768,8.768a.852.852,0,0,0,1.2,0l4.259-4.259a.852.852,0,0,0,0-1.2Zm3.906,12.424-8.768-8.768a.852.852,0,0,0-1.2,0l-1.1,1.1V29.7h6.462l-1.1,1.1a.852.852,0,0,0,0,1.2l8.768,8.768Z" transform="translate(-6.076 -4.017)"/>
      <path id="Trazado_1043612" data-name="Trazado 1043612" d="M42.852,18.888h9.37a.852.852,0,0,0,.6-1.454l-1.953-1.953,8.768-8.768a.852.852,0,0,0,0-1.2L55.379,1.25a.852.852,0,0,0-1.2,0l-8.768,8.768L43.454,8.064a.852.852,0,0,0-1.454.6v9.37A.852.852,0,0,0,42.852,18.888Zm.852-8.165,1.1,1.1a.852.852,0,0,0,1.2,0l8.768-8.768,3.055,3.055-8.768,8.768a.852.852,0,0,0,0,1.2l1.1,1.1H43.7Z" transform="translate(-6.076 -0.016)"/>
      <path id="Trazado_1043613" data-name="Trazado 1043613" d="M31.37,16.073h1.7A11.086,11.086,0,0,0,22,5V6.7a9.381,9.381,0,0,1,9.37,9.37Z" transform="translate(-3.112 -0.608)"/>
    </g>
  </g>
</svg>
