<svg xmlns="http://www.w3.org/2000/svg" xmlns:xlink="http://www.w3.org/1999/xlink" width="113" height="113" viewBox="0 0 113 113">
  <defs>
    <filter id="Trazado_982547" x="0" y="0" width="113" height="113" filterUnits="userSpaceOnUse">
      <feOffset dy="3" input="SourceAlpha"/>
      <feGaussianBlur stdDeviation="3" result="blur"/>
      <feFlood flood-opacity="0.161"/>
      <feComposite operator="in" in2="blur"/>
      <feComposite in="SourceGraphic"/>
    </filter>
  </defs>
  <g id="Grupo_1205262" data-name="Grupo 1205262" transform="translate(-7362.265 -1348.214)">
    <g id="Grupo_1202078" data-name="Grupo 1202078" transform="translate(6261.775 -1844.421)">
      <g id="Grupo_1178878" data-name="Grupo 1178878" transform="translate(307 1703.2)">
        <g id="Grupo_1176922" data-name="Grupo 1176922" transform="translate(802.49 1495.435)">
          <g id="Grupo_1172322" data-name="Grupo 1172322" transform="translate(0 0)">
            <g id="Grupo_1164700" data-name="Grupo 1164700">
              <g id="Grupo_1160931" data-name="Grupo 1160931">
                <g id="Grupo_1160749" data-name="Grupo 1160749">
                  <g id="Grupo_1158891" data-name="Grupo 1158891">
                    <g id="Grupo_1157406" data-name="Grupo 1157406">
                      <g id="Grupo_1155793" data-name="Grupo 1155793">
                        <g id="Grupo_1154704" data-name="Grupo 1154704">
                          <g id="Grupo_1150790" data-name="Grupo 1150790">
                            <g id="Grupo_1154214" data-name="Grupo 1154214">
                              <g id="Grupo_1152583" data-name="Grupo 1152583">
                                <g id="Grupo_1146973" data-name="Grupo 1146973">
                                  <g id="Grupo_1146954" data-name="Grupo 1146954">
                                    <g transform="matrix(1, 0, 0, 1, -9, -6)" filter="url(#Trazado_982547)">
                                      <g id="Trazado_982547-2" data-name="Trazado 982547" transform="translate(9 6)" fill="#fbedfe">
                                        <path d="M 47.5000114440918 93.49987030029297 C 41.28938293457031 93.49987030029297 35.26534652709961 92.28384399414062 29.5951976776123 89.88558959960938 C 24.11773109436035 87.56881713867188 19.19814491271973 84.25183868408203 14.97310447692871 80.02680206298828 C 10.74805164337158 75.80176544189453 7.43107795715332 70.88218688964844 5.114304542541504 65.40472412109375 C 2.716038227081299 59.73458862304688 1.500011444091797 53.71054840087891 1.500011444091797 47.49993515014648 C 1.500011444091797 41.28932189941406 2.716038227081299 35.26528167724609 5.114304542541504 29.59514808654785 C 7.43107795715332 24.1176815032959 10.74805164337158 19.1981086730957 14.97310447692871 14.97306823730469 C 19.19814491271973 10.74802875518799 24.11773109436035 7.431055068969727 29.5951976776123 5.11428165435791 C 35.26534652709961 2.716028451919556 41.28938293457031 1.500001788139343 47.5000114440918 1.500001788139343 C 53.71063995361328 1.500001788139343 59.73467636108398 2.716028451919556 65.40482330322266 5.11428165435791 C 70.88229370117188 7.431055068969727 75.8018798828125 10.74802875518799 80.02691650390625 14.97306823730469 C 84.25196838378906 19.1981086730957 87.56894683837891 24.1176815032959 89.88571929931641 29.59514808654785 C 92.28398132324219 35.26528167724609 93.50001525878906 41.28932189941406 93.50001525878906 47.49993515014648 C 93.50001525878906 53.71054840087891 92.28398132324219 59.73458862304688 89.88571929931641 65.40472412109375 C 87.56894683837891 70.88218688964844 84.25196838378906 75.80176544189453 80.02691650390625 80.02680206298828 C 75.8018798828125 84.25183868408203 70.88229370117188 87.56881713867188 65.40482330322266 89.88558959960938 C 59.73467636108398 92.28384399414062 53.71063995361328 93.49987030029297 47.5000114440918 93.49987030029297 Z" stroke="none"/>
                                        <path d="M 47.5000114440918 3 C 41.49122619628906 3 35.66378021240234 4.1761474609375 30.17951965332031 6.495796203613281 C 24.880859375 8.7369384765625 20.12153625488281 11.94596862792969 16.03376770019531 16.03373718261719 C 11.94598388671875 20.12149047851562 8.736968994140625 24.88081359863281 6.495811462402344 30.17947387695312 C 4.176162719726562 35.66371917724609 3.000007629394531 41.49116516113281 3.000007629394531 47.49993515014648 C 3.000007629394531 53.50870513916016 4.176162719726562 59.33615112304688 6.495811462402344 64.82039642333984 C 8.736968994140625 70.11905670166016 11.94598388671875 74.87837982177734 16.03376770019531 78.96613311767578 C 20.12153625488281 83.05390167236328 24.880859375 86.26293182373047 30.17951965332031 88.50407409667969 C 35.66378021240234 90.82372283935547 41.49122619628906 91.99987030029297 47.5000114440918 91.99987030029297 C 53.50879669189453 91.99987030029297 59.33624267578125 90.82372283935547 64.82050323486328 88.50407409667969 C 70.11916351318359 86.26293182373047 74.87848663330078 83.05390167236328 78.96625518798828 78.96613311767578 C 83.05403900146484 74.87837982177734 86.2630615234375 70.11905670166016 88.50421142578125 64.82039642333984 C 90.82386016845703 59.33615112304688 92.00001525878906 53.50870513916016 92.00001525878906 47.49993515014648 C 92.00001525878906 41.49116516113281 90.82386016845703 35.66371917724609 88.50421142578125 30.17947387695312 C 86.2630615234375 24.88081359863281 83.05403900146484 20.12149047851562 78.96625518798828 16.03373718261719 C 74.87848663330078 11.94596862792969 70.11916351318359 8.7369384765625 64.82050323486328 6.495796203613281 C 59.33624267578125 4.1761474609375 53.50879669189453 3 47.5000114440918 3 M 47.5000114440918 0 C 73.73353576660156 0 95.00001525878906 21.26644134521484 95.00001525878906 47.49993515014648 C 95.00001525878906 73.73342895507812 73.73353576660156 94.99987030029297 47.5000114440918 94.99987030029297 C 21.26648712158203 94.99987030029297 7.62939453125e-06 73.73342895507812 7.62939453125e-06 47.49993515014648 C 7.62939453125e-06 21.26644134521484 21.26648712158203 0 47.5000114440918 0 Z" stroke="none" fill="#7b3289"/>
                                      </g>
                                    </g>
                                  </g>
                                </g>
                              </g>
                            </g>
                          </g>
                        </g>
                      </g>
                    </g>
                  </g>
                </g>
              </g>
            </g>
          </g>
        </g>
      </g>
    </g>
    <g id="Layer_x0020_1" transform="translate(7390.869 1374.818)">
      <path id="Trazado_1043614" data-name="Trazado 1043614" d="M12.358,40.69H7.941a.455.455,0,0,0-.473.41v6.752a.455.455,0,0,0,.473.41h8.676a.455.455,0,0,0,.473-.41V41.1a.455.455,0,0,0-.473-.41Zm36.756,14.1H6.679A5.7,5.7,0,0,1,1,49.114V6.679A5.7,5.7,0,0,1,6.679,1H49.114a5.7,5.7,0,0,1,5.679,5.679V49.114A5.716,5.716,0,0,1,49.114,54.793ZM6.679,2.041A4.645,4.645,0,0,0,2.041,6.679V49.114a4.645,4.645,0,0,0,4.638,4.638H49.114a4.619,4.619,0,0,0,4.606-4.638V6.679a4.619,4.619,0,0,0-4.606-4.638ZM49.114,52.364H6.679a3.245,3.245,0,0,1-3.25-3.25V6.679a3.245,3.245,0,0,1,3.25-3.25H49.114a3.245,3.245,0,0,1,3.25,3.25V49.114A3.265,3.265,0,0,1,49.114,52.364ZM6.679,4.471A2.236,2.236,0,0,0,4.471,6.679V49.114a2.236,2.236,0,0,0,2.209,2.209H49.114a2.209,2.209,0,0,0,2.177-2.209V6.679a2.209,2.209,0,0,0-2.177-2.209Zm7.162,35.178a28.3,28.3,0,0,1,4.606-12.967,4.622,4.622,0,0,1-.883-.442c-.631.883-.947,1.861-1.578,1.483A.516.516,0,0,1,15.829,27a13.209,13.209,0,0,1,.915-1.388,5.669,5.669,0,0,1-.6-.631A31.319,31.319,0,0,0,11,39.649h.883c.032-.347,0-1.073.6-1.01s.473.694.442,1.01Zm5.4-13.819a5.11,5.11,0,0,0,1.073.158,4.271,4.271,0,0,0,4.1-5.364c-.032-.063-.032-.095-.063-.158A4.253,4.253,0,0,0,20.309,17.5a4.188,4.188,0,0,0-4.228,4.228A4.232,4.232,0,0,0,19.236,25.83Zm.284,1.136a27.624,27.624,0,0,0-4.638,12.683h1.735a1.508,1.508,0,0,1,1.514,1.483v6.72a1.488,1.488,0,0,1-1.514,1.483H7.941a1.488,1.488,0,0,1-1.514-1.483v-6.72a1.508,1.508,0,0,1,1.514-1.483H9.929A32.4,32.4,0,0,1,15.545,24a5.292,5.292,0,0,1,6.72-7.193A32.744,32.744,0,0,1,39.649,9.9V7.909a1.481,1.481,0,0,1,1.483-1.483h6.72a1.488,1.488,0,0,1,1.514,1.483v8.676A1.535,1.535,0,0,1,47.852,18.1h-6.72a1.508,1.508,0,0,1-1.483-1.514V14.914a27.464,27.464,0,0,0-14.166,5.711A5.3,5.3,0,0,1,19.52,26.966Zm5.616-7.414a28.613,28.613,0,0,1,14.513-5.711v-.978c-.947.063-1.988.41-2.114-.316a.534.534,0,0,1,.473-.6,12.6,12.6,0,0,1,1.641-.126V10.97a31.655,31.655,0,0,0-16.375,6.373,4.709,4.709,0,0,1,.852.726c.063-.442,1.42-1.167,1.988-1.546a.539.539,0,0,1,.568.915,12.956,12.956,0,0,1-2.051,1.23A8.024,8.024,0,0,1,25.136,19.551ZM40.69,14.283v2.3a.451.451,0,0,0,.442.442h6.72a.458.458,0,0,0,.473-.442l-.032-8.676a.451.451,0,0,0-.442-.442h-6.72a.475.475,0,0,0-.442.442Zm-6.941,31.96a.48.48,0,0,1-.5-.379L28.259,30.026a.51.51,0,0,1,.631-.663l15.838,4.985a.534.534,0,0,1,.221.883l-3.25,3.25,2.682,2.682a.48.48,0,0,1,0,.726l-3.628,3.628a.48.48,0,0,1-.726,0l-2.682-2.682-3.218,3.25A.655.655,0,0,1,33.749,46.243Zm-4.2-15.586L33.97,44.728l3.029-3a.48.48,0,0,1,.726,0l2.682,2.682,2.871-2.9L40.6,38.829a.535.535,0,0,1,0-.726l3.029-3.029Zm1.483-15.586a.53.53,0,0,1-.221-1.01c.663-.284,1.325-.568,1.988-.789a.519.519,0,1,1,.347.978ZM13.4,34.538a.531.531,0,0,1-.5-.663c.189-.694.41-1.357.663-2.019a.519.519,0,1,1,.978.347C14.062,33.5,14.03,34.538,13.4,34.538Z" fill-rule="evenodd"/>
      <path id="Trazado_1043615" data-name="Trazado 1043615" d="M35.388,81.073V38.638a3.245,3.245,0,0,1,3.25-3.25H81.073a3.245,3.245,0,0,1,3.25,3.25V81.073a3.265,3.265,0,0,1-3.25,3.25H38.638A3.245,3.245,0,0,1,35.388,81.073Zm3.25,4.638H81.073a4.619,4.619,0,0,0,4.606-4.638V38.638A4.619,4.619,0,0,0,81.073,34H38.638A4.645,4.645,0,0,0,34,38.638V81.073A4.645,4.645,0,0,0,38.638,85.711Z" transform="translate(-31.959 -31.959)" fill="#2a78c6" fill-rule="evenodd"/>
      <path id="Trazado_1043616" data-name="Trazado 1043616" d="M111,113.209v42.435a2.236,2.236,0,0,0,2.209,2.209h42.435a2.209,2.209,0,0,0,2.177-2.209V113.209A2.209,2.209,0,0,0,155.643,111H113.209A2.236,2.236,0,0,0,111,113.209Zm1.956,41.173v-6.72a1.508,1.508,0,0,1,1.514-1.483h1.988a32.4,32.4,0,0,1,5.616-15.649,5.292,5.292,0,0,1,6.72-7.193,32.744,32.744,0,0,1,17.384-6.909v-1.988a1.481,1.481,0,0,1,1.483-1.483h6.72a1.488,1.488,0,0,1,1.514,1.483v8.676a1.535,1.535,0,0,1-1.514,1.514h-6.72a1.508,1.508,0,0,1-1.483-1.514v-1.672a27.464,27.464,0,0,0-14.166,5.711,5.3,5.3,0,0,1-5.963,6.342,27.624,27.624,0,0,0-4.638,12.683h1.735a1.508,1.508,0,0,1,1.514,1.483v6.72a1.488,1.488,0,0,1-1.514,1.483h-8.676A1.488,1.488,0,0,1,112.956,154.381Zm27.322-1.609a.48.48,0,0,1-.5-.379l-4.985-15.838a.51.51,0,0,1,.631-.663l15.838,4.985a.534.534,0,0,1,.221.883l-3.25,3.25,2.682,2.682a.48.48,0,0,1,0,.726l-3.628,3.628a.48.48,0,0,1-.726,0l-2.682-2.682-3.218,3.25A.656.656,0,0,1,140.279,152.772Z" transform="translate(-106.529 -106.529)" fill="#c9f4ff" fill-rule="evenodd"/>
      <path id="Trazado_1043617" data-name="Trazado 1043617" d="M206.473,1259a.455.455,0,0,0-.473.41v6.752a.455.455,0,0,0,.473.41h8.676a.455.455,0,0,0,.473-.41v-6.752a.455.455,0,0,0-.473-.41h-8.676Z" transform="translate(-198.532 -1218.31)" fill="#2a78c6" fill-rule="evenodd"/>
      <path id="Trazado_1043618" data-name="Trazado 1043618" d="M323.143,761A31.32,31.32,0,0,0,318,775.671h.883c.032-.347,0-1.073.6-1.01s.473.694.442,1.01h.915a28.3,28.3,0,0,1,4.606-12.967,4.618,4.618,0,0,1-.883-.442c-.631.883-.946,1.861-1.578,1.483a.516.516,0,0,1-.158-.726,13.219,13.219,0,0,1,.915-1.388A5.672,5.672,0,0,1,323.143,761Zm-2.745,9.56a.532.532,0,0,1-.5-.663c.189-.694.41-1.357.663-2.019a.519.519,0,1,1,.978.347C321.06,769.519,321.029,770.56,320.4,770.56Z" transform="translate(-306.999 -736.022)" fill="#ffcf00" fill-rule="evenodd"/>
      <path id="Trazado_1043619" data-name="Trazado 1043619" d="M479,528.228a4.232,4.232,0,0,0,3.155,4.1,5.111,5.111,0,0,0,1.073.158,4.271,4.271,0,0,0,4.1-5.364c-.032-.063-.032-.095-.063-.158A4.253,4.253,0,0,0,483.228,524,4.188,4.188,0,0,0,479,528.228Z" transform="translate(-462.919 -506.499)" fill="#2a78c6" fill-rule="evenodd"/>
      <path id="Trazado_1043620" data-name="Trazado 1043620" d="M709.84,322.553a.539.539,0,0,1,.568.915,12.964,12.964,0,0,1-2.051,1.23,8.045,8.045,0,0,1,.5.883,28.613,28.613,0,0,1,14.513-5.711v-.978c-.947.063-1.988.41-2.114-.316a.534.534,0,0,1,.473-.6,12.594,12.594,0,0,1,1.641-.126V317A31.655,31.655,0,0,0,707,323.373a4.708,4.708,0,0,1,.852.726C707.915,323.657,709.272,322.931,709.84,322.553Zm4.922-1.451a.53.53,0,0,1-.221-1.01c.663-.284,1.325-.568,1.988-.789a.519.519,0,1,1,.347.978Z" transform="translate(-683.726 -306.03)" fill="#ffcf00" fill-rule="evenodd"/>
      <path id="Trazado_1043621" data-name="Trazado 1043621" d="M1259,206.442v8.676a.451.451,0,0,0,.442.442h6.72a.458.458,0,0,0,.473-.442l-.031-8.676a.451.451,0,0,0-.442-.442h-6.72A.475.475,0,0,0,1259,206.442Z" transform="translate(-1218.31 -198.532)" fill="#2a78c6" fill-rule="evenodd"/>
      <path id="Trazado_1043622" data-name="Trazado 1043622" d="M920.071,945.417,906,941l4.417,14.071,3.029-3a.48.48,0,0,1,.726,0l2.682,2.682,2.871-2.9-2.682-2.682a.535.535,0,0,1,0-.726Z" transform="translate(-876.447 -910.343)" fill="#fff" fill-rule="evenodd"/>
    </g>
  </g>
</svg>
