<svg xmlns="http://www.w3.org/2000/svg" xmlns:xlink="http://www.w3.org/1999/xlink" width="108" height="108" viewBox="0 0 108 108">
  <defs>
    <filter id="Trazado_904820" x="0" y="0" width="108" height="108" filterUnits="userSpaceOnUse">
      <feOffset dy="3" input="SourceAlpha"/>
      <feGaussianBlur stdDeviation="3" result="blur"/>
      <feFlood flood-opacity="0.161"/>
      <feComposite operator="in" in2="blur"/>
      <feComposite in="SourceGraphic"/>
    </filter>
  </defs>
  <g id="Grupo_1205257" data-name="Grupo 1205257" transform="translate(-618.977 -6740.965)">
    <g id="Grupo_1202103" data-name="Grupo 1202103" transform="translate(-0.5 4271.965)">
      <g id="Grupo_1178821" data-name="Grupo 1178821" transform="translate(628.477 2475)">
        <g id="Grupo_1173585" data-name="Grupo 1173585" transform="translate(0 0)">
          <g id="Grupo_1173428" data-name="Grupo 1173428">
            <g id="Grupo_1171958" data-name="Grupo 1171958">
              <g id="Grupo_1167341" data-name="Grupo 1167341">
                <g id="Grupo_1166792" data-name="Grupo 1166792">
                  <g transform="matrix(1, 0, 0, 1, -9, -6)" filter="url(#Trazado_904820)">
                    <g id="Trazado_904820-2" data-name="Trazado 904820" transform="translate(9 6)" fill="#fbedfe">
                      <path d="M 44.99999618530273 88.49995422363281 C 39.12687301635742 88.49995422363281 33.43022155761719 87.35002899169922 28.06829643249512 85.08213043212891 C 22.88852119445801 82.89126586914062 18.23629570007324 79.75455474853516 14.24084663391113 75.75910186767578 C 10.24540901184082 71.76364898681641 7.108683586120605 67.11144256591797 4.917821407318115 61.93166351318359 C 2.649921178817749 56.56974029541016 1.499996185302734 50.87310028076172 1.499996185302734 44.99997711181641 C 1.499996185302734 39.12685394287109 2.649921178817749 33.43021392822266 4.917821407318115 28.06828880310059 C 7.108683586120605 22.88851547241211 10.24540901184082 18.23630142211914 14.24084663391113 14.24085235595703 C 18.23629570007324 10.24540233612061 22.88852119445801 7.108689785003662 28.06829643249512 4.917827129364014 C 33.43022155761719 2.649927139282227 39.12687301635742 1.500002145767212 44.99999618530273 1.500002145767212 C 50.87311935424805 1.500002145767212 56.56977081298828 2.649927139282227 61.93169784545898 4.917827129364014 C 67.11147308349609 7.108689785003662 71.76369476318359 10.24540233612061 75.75914764404297 14.24085235595703 C 79.75458526611328 18.23630142211914 82.89131164550781 22.88851547241211 85.08216857910156 28.06828880310059 C 87.35007476806641 33.43021392822266 88.5 39.12685394287109 88.5 44.99997711181641 C 88.5 50.87310028076172 87.35007476806641 56.56974029541016 85.08216857910156 61.93166351318359 C 82.89131164550781 67.11144256591797 79.75458526611328 71.76364898681641 75.75914764404297 75.75910186767578 C 71.76369476318359 79.75455474853516 67.11147308349609 82.89126586914062 61.93169784545898 85.08213043212891 C 56.56977081298828 87.35002899169922 50.87311935424805 88.49995422363281 44.99999618530273 88.49995422363281 Z" stroke="none"/>
                      <path d="M 44.99999618530273 2.999992370605469 C 39.32870864868164 2.999992370605469 33.82865142822266 4.11004638671875 28.65262603759766 6.299331665039062 C 23.65165710449219 8.414566040039062 19.15968322753906 11.44333648681641 15.301513671875 15.30150604248047 C 11.44333648681641 19.15967559814453 8.414566040039062 23.65163421630859 6.299339294433594 28.65260696411133 C 4.110054016113281 33.82864761352539 2.999992370605469 39.32868957519531 2.999992370605469 44.99997711181641 C 2.999992370605469 50.6712646484375 4.110054016113281 56.17130661010742 6.299339294433594 61.34733581542969 C 8.414566040039062 66.34830474853516 11.44333648681641 70.84026336669922 15.301513671875 74.69844818115234 C 19.15968322753906 78.55661773681641 23.65165710449219 81.58537292480469 28.65262603759766 83.70062255859375 C 33.82865142822266 85.889892578125 39.32870864868164 86.99994659423828 44.99999618530273 86.99994659423828 C 50.67128372192383 86.99994659423828 56.17134094238281 85.889892578125 61.34736633300781 83.70062255859375 C 66.34834289550781 81.58537292480469 70.84030914306641 78.55661773681641 74.69847869873047 74.69844818115234 C 78.55665588378906 70.84026336669922 81.58542633056641 66.34830474853516 83.70065307617188 61.34733581542969 C 85.88993835449219 56.17130661010742 87 50.6712646484375 87 44.99997711181641 C 87 39.32868957519531 85.88993835449219 33.82864761352539 83.70065307617188 28.65260696411133 C 81.58542633056641 23.65163421630859 78.55665588378906 19.15967559814453 74.69847869873047 15.30150604248047 C 70.84030914306641 11.44333648681641 66.34834289550781 8.414566040039062 61.34736633300781 6.299331665039062 C 56.17134094238281 4.11004638671875 50.67128372192383 2.999992370605469 44.99999618530273 2.999992370605469 M 44.99999618530273 -7.62939453125e-06 C 69.85281372070312 -7.62939453125e-06 90 20.14717864990234 90 44.99997711181641 C 90 69.85277557373047 69.85281372070312 89.99994659423828 44.99999618530273 89.99994659423828 C 20.14717864990234 89.99994659423828 -7.62939453125e-06 69.85277557373047 -7.62939453125e-06 44.99997711181641 C -7.62939453125e-06 20.14717864990234 20.14717864990234 -7.62939453125e-06 44.99999618530273 -7.62939453125e-06 Z" stroke="none" fill="#7b3289"/>
                    </g>
                  </g>
                </g>
              </g>
            </g>
          </g>
        </g>
      </g>
    </g>
    <g id="plan-estrategico" transform="translate(626.728 6750.469)">
      <path id="Trazado_1043568" data-name="Trazado 1043568" d="M44.66,209.165a9.091,9.091,0,0,0-.694-1.635L46,205.5l-3.666-3.666L40.3,203.864a9.091,9.091,0,0,0-1.635-.694V200h-5.5v3.17a9.091,9.091,0,0,0-1.635.694L29.5,201.833,25.833,205.5l2.031,2.031a9.09,9.09,0,0,0-.694,1.635H24v5.5h3.17a9.091,9.091,0,0,0,.694,1.635l-2.031,2.031L29.5,222l2.031-2.031a9.092,9.092,0,0,0,1.635.694v3.17h5.5v-3.17a9.092,9.092,0,0,0,1.635-.694L42.331,222,46,218.331,43.966,216.3a9.091,9.091,0,0,0,.694-1.635h3.17v-5.5Z" transform="translate(-7.083 -162.919)" fill="#3397e8"/>
      <circle id="Elipse_12608" data-name="Elipse 12608" cx="6.296" cy="6.296" r="6.296" transform="translate(22.508 42.657)" fill="#e9eef2"/>
      <circle id="Elipse_12609" data-name="Elipse 12609" cx="2.938" cy="2.938" r="2.938" transform="translate(25.867 46.015)" fill="#2978b8"/>
      <path id="Trazado_1043569" data-name="Trazado 1043569" d="M172.662,77.16a3.666,3.666,0,0,0,3.666-3.666V24H136V77.16Z" transform="translate(-106.252 -7.084)" fill="#e9eef2"/>
      <path id="Trazado_1043570" data-name="Trazado 1043570" d="M47.426,41.46A7.333,7.333,0,0,0,45.537,38.2L32.3,24.972A3.319,3.319,0,0,0,29.958,24h0a3.319,3.319,0,0,0-2.347.972l-2.638,2.638a3.319,3.319,0,0,0,0,4.694L38.2,45.537a7.332,7.332,0,0,0,3.255,1.889l8.2,2.237Z" transform="translate(-7.084 -7.084)" fill="#fbe9d8"/>
      <path id="Trazado_1043571" data-name="Trazado 1043571" d="M27.611,24.972l-2.639,2.639A3.319,3.319,0,0,0,24,29.958h0a3.319,3.319,0,0,0,.972,2.347L27.666,35,35,27.666,32.3,24.972A3.319,3.319,0,0,0,29.958,24h0a3.319,3.319,0,0,0-2.347.972Z" transform="translate(-7.083 -7.084)" fill="#eb423f"/>
      <path id="Trazado_1043572" data-name="Trazado 1043572" d="M104,408h36.662v5.5a3.666,3.666,0,0,0,3.666,3.666H107.666A3.666,3.666,0,0,1,104,413.5Z" transform="translate(-77.918 -347.089)" fill="#dadcde"/>
      <rect id="Rectángulo_417953" data-name="Rectángulo 417953" width="8.395" height="16.79" transform="translate(56.089 22.509)" fill="#dadcde"/>
      <path id="Trazado_1043573" data-name="Trazado 1043573" d="M197.72,201.909l5.761,1.572-1.572-5.761Z" transform="translate(-160.901 -160.901)" fill="#414649"/>
      <path id="Trazado_1043574" data-name="Trazado 1043574" d="M56,63.332,66.538,73.87l0,0,7.332-7.332,0,0L63.332,56Z" transform="translate(-35.417 -35.417)" fill="#3397e8"/>
      <rect id="Rectángulo_417954" data-name="Rectángulo 417954" width="3.889" height="15.554" transform="translate(22.416 25.165) rotate(-45)" fill="#2978b8"/>
      <circle id="Elipse_12610" data-name="Elipse 12610" cx="2.099" cy="2.099" r="2.099" transform="translate(47.694 47.694)" fill="#3397e8"/>
      <rect id="Rectángulo_417955" data-name="Rectángulo 417955" width="9.235" height="7.556" transform="translate(35.101 46.015)" fill="#eb423f"/>
      <rect id="Rectángulo_417956" data-name="Rectángulo 417956" width="9.235" height="7.556" transform="translate(55.249 46.015)" fill="#3dc285"/>
      <rect id="Rectángulo_417957" data-name="Rectángulo 417957" width="9.235" height="4.198" transform="translate(45.175 56.929)" fill="#ffd33a"/>
      <rect id="Rectángulo_417958" data-name="Rectángulo 417958" width="10.37" height="2.592" transform="translate(18.75 26.082) rotate(-45)" fill="#ffd33a"/>
      <path id="Trazado_1043575" data-name="Trazado 1043575" d="M70.076,16H29.748a.917.917,0,0,0-.917.917V20.2l-2.962-2.962a4.236,4.236,0,0,0-5.99,0l-2.638,2.638a4.236,4.236,0,0,0,0,5.99L27.535,36.164H26.082a.917.917,0,0,0-.917.917V39.6q-.272.106-.537.228l-1.564-1.564a.917.917,0,0,0-1.3,0L18.1,41.932a.917.917,0,0,0,0,1.3l1.565,1.564q-.122.265-.228.537H16.917a.917.917,0,0,0-.917.917v5.5a.917.917,0,0,0,.917.917h2.521q.106.272.228.537L18.1,54.763a.917.917,0,0,0,0,1.3l3.666,3.666a.917.917,0,0,0,1.3,0l1.564-1.564q.265.122.537.228v8.02a4.588,4.588,0,0,0,4.583,4.583H66.41a4.588,4.588,0,0,0,4.583-4.583V16.916A.917.917,0,0,0,70.076,16ZM37.159,31.123l-1,1L26.92,22.874l1-1Zm4.115,10.151-2.69-.733,1.957-1.957Zm-4.727-1.289-1.929-.526a6.427,6.427,0,0,1-2.151-1.05l5.941-5.941a6.427,6.427,0,0,1,1.05,2.151l.526,1.929Zm-16.5-13.9,6.036-6.036.537.537-6.036,6.036Zm5.578-1.912,9.244,9.244-1.453,1.453L24.17,25.624Zm-7.087-3,2.638-2.638a2.4,2.4,0,0,1,3.4,0l.213.213L18.75,24.786l-.213-.213A2.4,2.4,0,0,1,18.537,21.175Zm4.337,5.745,9.244,9.244-1,1-9.244-9.244Zm5.958,23.909a1.833,1.833,0,1,1,0-3.666Zm0-5.5a3.666,3.666,0,1,0,0,7.332v1.833a5.5,5.5,0,0,1,0-11ZM24.886,56.242A.917.917,0,0,0,23.8,56.4l-1.383,1.383-2.37-2.37,1.383-1.383a.917.917,0,0,0,.156-1.087,8.179,8.179,0,0,1-.624-1.47.917.917,0,0,0-.875-.643H17.833V47.163h2.254a.917.917,0,0,0,.875-.642,8.178,8.178,0,0,1,.624-1.47.917.917,0,0,0-.156-1.087L20.046,42.58l2.37-2.37L23.8,41.593a.917.917,0,0,0,1.087.157,8.186,8.186,0,0,1,1.47-.624A.917.917,0,0,0,27,40.251V38h1.833v3.666a7.332,7.332,0,0,0,0,14.665v3.666H27V57.741a.917.917,0,0,0-.642-.875,8.186,8.186,0,0,1-1.47-.624ZM29.748,69.16A2.753,2.753,0,0,1,27,66.41V61.827H61.827V66.41a4.559,4.559,0,0,0,.919,2.75ZM49,49.912a.917.917,0,1,1,.917.917A.917.917,0,0,1,49,49.912Zm4.583,8.249v1.833H46.246V58.161ZM69.16,66.41a2.75,2.75,0,1,1-5.5,0v-5.5a.917.917,0,0,0-.917-.917H55.412v-2.75a.917.917,0,0,0-.917-.917H50.829V52.5A2.763,2.763,0,0,0,52.5,50.829H54.5v2.75a.917.917,0,0,0,.917.917h9.165a.917.917,0,0,0,.917-.917V46.246a.917.917,0,0,0-.917-.917H55.412a.917.917,0,0,0-.917.917V49H52.5a2.75,2.75,0,0,0-5.184,0H45.33v-2.75a.917.917,0,0,0-.917-.917H35.248a.917.917,0,0,0-.917.917v7.332a.917.917,0,0,0,.917.917h9.165a.917.917,0,0,0,.917-.917v-2.75H47.32A2.763,2.763,0,0,0,49,52.5v3.824H45.33a.917.917,0,0,0-.917.917v2.75H30.665V39.287a8.264,8.264,0,0,0,3.471,1.94l8.2,2.237a.914.914,0,0,0,.241.032H57.245a.917.917,0,0,0,.917-.917V39.83h6.416a.917.917,0,0,0,.917-.917v-16.5a.917.917,0,0,0-.917-.917H57.245a.917.917,0,0,0-.917.917V41.663H43.28L42.28,38h9.465a.917.917,0,0,0,0-1.833H41.78l-.5-1.833H51.745a.917.917,0,0,0,0-1.833H40.584a8.262,8.262,0,0,0-1.3-1.833H42.58a.917.917,0,0,0,0-1.833H38.914a.917.917,0,0,0-.858.6l-7.391-7.391v-4.2h38.5ZM56.328,52.662v-5.5h7.332v5.5ZM43.5,47.163v5.5H36.164v-5.5ZM58.161,38V23.332h5.5V38Z"/>
      <path id="Trazado_1043576" data-name="Trazado 1043576" d="M224.917,65.833h3.666a.917.917,0,1,0,0-1.833h-3.666a.917.917,0,0,0,0,1.833Z" transform="translate(-184.17 -42.501)"/>
      <path id="Trazado_1043577" data-name="Trazado 1043577" d="M208.917,97.833h12.832a.917.917,0,1,0,0-1.833H208.917a.917.917,0,0,0,0,1.833Z" transform="translate(-170.003 -70.835)"/>
      <path id="Trazado_1043578" data-name="Trazado 1043578" d="M288.917,65.833h3.666a.917.917,0,1,0,0-1.833h-3.666a.917.917,0,1,0,0,1.833Z" transform="translate(-240.837 -42.501)"/>
      <path id="Trazado_1043579" data-name="Trazado 1043579" d="M278.416,128h-5.5a.917.917,0,1,0,0,1.833h5.5a.917.917,0,1,0,0-1.833Z" transform="translate(-226.67 -99.168)"/>
    </g>
  </g>
</svg>
