<svg xmlns="http://www.w3.org/2000/svg" xmlns:xlink="http://www.w3.org/1999/xlink" width="108" height="108" viewBox="0 0 108 108">
  <defs>
    <filter id="Trazado_904820" x="0" y="0" width="108" height="108" filterUnits="userSpaceOnUse">
      <feOffset dy="3" input="SourceAlpha"/>
      <feGaussianBlur stdDeviation="3" result="blur"/>
      <feFlood flood-opacity="0.161"/>
      <feComposite operator="in" in2="blur"/>
      <feComposite in="SourceGraphic"/>
    </filter>
  </defs>
  <g id="Grupo_1205135" data-name="Grupo 1205135" transform="translate(-618.977 -1435.279)">
    <g id="Grupo_1202051" data-name="Grupo 1202051" transform="translate(-0.5 -1033.721)">
      <g id="Grupo_1178821" data-name="Grupo 1178821" transform="translate(628.477 2475)">
        <g id="Grupo_1173585" data-name="Grupo 1173585" transform="translate(0 0)">
          <g id="Grupo_1173428" data-name="Grupo 1173428">
            <g id="Grupo_1171958" data-name="Grupo 1171958">
              <g id="Grupo_1167341" data-name="Grupo 1167341">
                <g id="Grupo_1166792" data-name="Grupo 1166792">
                  <g transform="matrix(1, 0, 0, 1, -9, -6)" filter="url(#Trazado_904820)">
                    <g id="Trazado_904820-2" data-name="Trazado 904820" transform="translate(9 6)" fill="#fbedfe">
                      <path d="M 44.99999618530273 88.49995422363281 C 39.12687301635742 88.49995422363281 33.43022155761719 87.35002899169922 28.06829643249512 85.08213043212891 C 22.88852119445801 82.89126586914062 18.23629570007324 79.75455474853516 14.24084663391113 75.75910186767578 C 10.24540901184082 71.76364898681641 7.108683586120605 67.11144256591797 4.917821407318115 61.93166351318359 C 2.649921178817749 56.56974029541016 1.499996185302734 50.87310028076172 1.499996185302734 44.99997711181641 C 1.499996185302734 39.12685394287109 2.649921178817749 33.43021392822266 4.917821407318115 28.06828880310059 C 7.108683586120605 22.88851547241211 10.24540901184082 18.23630142211914 14.24084663391113 14.24085235595703 C 18.23629570007324 10.24540233612061 22.88852119445801 7.108689785003662 28.06829643249512 4.917827129364014 C 33.43022155761719 2.649927139282227 39.12687301635742 1.500002145767212 44.99999618530273 1.500002145767212 C 50.87311935424805 1.500002145767212 56.56977081298828 2.649927139282227 61.93169784545898 4.917827129364014 C 67.11147308349609 7.108689785003662 71.76369476318359 10.24540233612061 75.75914764404297 14.24085235595703 C 79.75458526611328 18.23630142211914 82.89131164550781 22.88851547241211 85.08216857910156 28.06828880310059 C 87.35007476806641 33.43021392822266 88.5 39.12685394287109 88.5 44.99997711181641 C 88.5 50.87310028076172 87.35007476806641 56.56974029541016 85.08216857910156 61.93166351318359 C 82.89131164550781 67.11144256591797 79.75458526611328 71.76364898681641 75.75914764404297 75.75910186767578 C 71.76369476318359 79.75455474853516 67.11147308349609 82.89126586914062 61.93169784545898 85.08213043212891 C 56.56977081298828 87.35002899169922 50.87311935424805 88.49995422363281 44.99999618530273 88.49995422363281 Z" stroke="none"/>
                      <path d="M 44.99999618530273 2.999992370605469 C 39.32870864868164 2.999992370605469 33.82865142822266 4.11004638671875 28.65262603759766 6.299331665039062 C 23.65165710449219 8.414566040039062 19.15968322753906 11.44333648681641 15.301513671875 15.30150604248047 C 11.44333648681641 19.15967559814453 8.414566040039062 23.65163421630859 6.299339294433594 28.65260696411133 C 4.110054016113281 33.82864761352539 2.999992370605469 39.32868957519531 2.999992370605469 44.99997711181641 C 2.999992370605469 50.6712646484375 4.110054016113281 56.17130661010742 6.299339294433594 61.34733581542969 C 8.414566040039062 66.34830474853516 11.44333648681641 70.84026336669922 15.301513671875 74.69844818115234 C 19.15968322753906 78.55661773681641 23.65165710449219 81.58537292480469 28.65262603759766 83.70062255859375 C 33.82865142822266 85.889892578125 39.32870864868164 86.99994659423828 44.99999618530273 86.99994659423828 C 50.67128372192383 86.99994659423828 56.17134094238281 85.889892578125 61.34736633300781 83.70062255859375 C 66.34834289550781 81.58537292480469 70.84030914306641 78.55661773681641 74.69847869873047 74.69844818115234 C 78.55665588378906 70.84026336669922 81.58542633056641 66.34830474853516 83.70065307617188 61.34733581542969 C 85.88993835449219 56.17130661010742 87 50.6712646484375 87 44.99997711181641 C 87 39.32868957519531 85.88993835449219 33.82864761352539 83.70065307617188 28.65260696411133 C 81.58542633056641 23.65163421630859 78.55665588378906 19.15967559814453 74.69847869873047 15.30150604248047 C 70.84030914306641 11.44333648681641 66.34834289550781 8.414566040039062 61.34736633300781 6.299331665039062 C 56.17134094238281 4.11004638671875 50.67128372192383 2.999992370605469 44.99999618530273 2.999992370605469 M 44.99999618530273 -7.62939453125e-06 C 69.85281372070312 -7.62939453125e-06 90 20.14717864990234 90 44.99997711181641 C 90 69.85277557373047 69.85281372070312 89.99994659423828 44.99999618530273 89.99994659423828 C 20.14717864990234 89.99994659423828 -7.62939453125e-06 69.85277557373047 -7.62939453125e-06 44.99997711181641 C -7.62939453125e-06 20.14717864990234 20.14717864990234 -7.62939453125e-06 44.99999618530273 -7.62939453125e-06 Z" stroke="none" fill="#7b3289"/>
                    </g>
                  </g>
                </g>
              </g>
            </g>
          </g>
        </g>
      </g>
    </g>
    <g id="_30-Labour_Day" data-name="30-Labour Day" transform="translate(641 1454)">
      <path id="Trazado_1043275" data-name="Trazado 1043275" d="M24,23v9a2,2,0,0,1-4,0V25.96A16.6,16.6,0,0,1,24,23Z" fill="#f19563"/>
      <path id="Trazado_1043276" data-name="Trazado 1043276" d="M44,25.96V32a2,2,0,0,1-4,0V23A16.6,16.6,0,0,1,44,25.96Z" fill="#f19563"/>
      <path id="Trazado_1043277" data-name="Trazado 1043277" d="M22,32a2.015,2.015,0,0,1-2-2v2a2,2,0,1,0,4,0V30A2.006,2.006,0,0,1,22,32Z" fill="#d25242"/>
      <path id="Trazado_1043278" data-name="Trazado 1043278" d="M42,32a2.006,2.006,0,0,1-2-2v2a2,2,0,0,0,4,0V30A2.015,2.015,0,0,1,42,32Z" fill="#d25242"/>
      <path id="Trazado_1043279" data-name="Trazado 1043279" d="M36,21.47V34H28V20a2.006,2.006,0,0,1,2-2h4a2.006,2.006,0,0,1,2,2Z" fill="#f19563"/>
      <path id="Trazado_1043280" data-name="Trazado 1043280" d="M34,18H30a2.006,2.006,0,0,0-2,2v2a2.006,2.006,0,0,1,2-2h4a2.006,2.006,0,0,1,2,2V20A2.006,2.006,0,0,0,34,18Z" fill="#d25242"/>
      <path id="Trazado_1043281" data-name="Trazado 1043281" d="M44,25.96A16.915,16.915,0,0,1,49,38H15a16.915,16.915,0,0,1,5-12.04V32a2,2,0,1,0,4,0V23a16.8,16.8,0,0,1,4-1.53V34h8V21.47A16.8,16.8,0,0,1,40,23v9a2,2,0,0,0,4,0Z" fill="#fdca80"/>
      <g id="Grupo_1205134" data-name="Grupo 1205134">
        <path id="Trazado_1043282" data-name="Trazado 1043282" d="M40,34a2,2,0,0,0,4,0V32a2,2,0,0,1-4,0Z" fill="#fad6a6"/>
        <path id="Trazado_1043283" data-name="Trazado 1043283" d="M20,27.96v-2A16.915,16.915,0,0,0,15,38h.127A16.9,16.9,0,0,1,20,27.96Z" fill="#fad6a6"/>
        <path id="Trazado_1043284" data-name="Trazado 1043284" d="M49,38a16.915,16.915,0,0,0-5-12.04v2A16.9,16.9,0,0,1,48.873,38Z" fill="#fad6a6"/>
        <path id="Trazado_1043285" data-name="Trazado 1043285" d="M40,23a16.8,16.8,0,0,0-4-1.53v2A16.8,16.8,0,0,1,40,25Z" fill="#fad6a6"/>
        <path id="Trazado_1043286" data-name="Trazado 1043286" d="M20,34a2,2,0,1,0,4,0V32a2,2,0,0,1-4,0Z" fill="#fad6a6"/>
        <path id="Trazado_1043287" data-name="Trazado 1043287" d="M28,21.47A16.8,16.8,0,0,0,24,23v2a16.8,16.8,0,0,1,4-1.53Z" fill="#fad6a6"/>
      </g>
      <path id="Trazado_1043288" data-name="Trazado 1043288" d="M51,40a2.013,2.013,0,0,1-.16.78,1.813,1.813,0,0,1-.43.63A1.955,1.955,0,0,1,49,42H15a2,2,0,0,1-2-2,1.955,1.955,0,0,1,.59-1.41,1.752,1.752,0,0,1,.46-.35A2.028,2.028,0,0,1,15,38H49A2,2,0,0,1,51,40Z" fill="#f19563"/>
      <path id="Trazado_1043289" data-name="Trazado 1043289" d="M50.41,39.41A1.955,1.955,0,0,1,49,40H15a1.994,1.994,0,0,1-1.714-1.013A1.958,1.958,0,0,0,13,40a2,2,0,0,0,2,2H49a1.955,1.955,0,0,0,1.41-.59,1.813,1.813,0,0,0,.43-.63A2.013,2.013,0,0,0,51,40a1.975,1.975,0,0,0-.277-1,1.774,1.774,0,0,1-.313.41Z" fill="#d25242"/>
      <path id="Trazado_1043290" data-name="Trazado 1043290" d="M15.85,42a18.99,18.99,0,0,0,32.3,0H49a1.955,1.955,0,0,0,1.41-.59,1.813,1.813,0,0,0,.43-.63l1.11.5a22,22,0,0,1-39.9,0l1.11-.5A2.013,2.013,0,0,0,15,42Z" fill="#9c9c9c"/>
      <path id="Trazado_1043291" data-name="Trazado 1043291" d="M13,32a18.961,18.961,0,0,0,1.05,6.24,1.752,1.752,0,0,0-.46.35A1.955,1.955,0,0,0,13,40a2.013,2.013,0,0,0,.16.78l-1.11.5a22,22,0,1,1,39.9,0l-1.11-.5a2,2,0,0,0-.89-2.54A19,19,0,1,0,13,32Z" fill="#9c9c9c"/>
      <path id="Trazado_1043292" data-name="Trazado 1043292" d="M63,27V37H57.51a25.881,25.881,0,0,1-3.93,9.51l3.88,3.87-7.08,7.08-3.87-3.88A25.881,25.881,0,0,1,37,57.51V63H27V57.51a25.881,25.881,0,0,1-9.51-3.93l-3.87,3.88L6.54,50.38l3.88-3.87A25.881,25.881,0,0,1,6.49,37H1V27H6.49a25.881,25.881,0,0,1,3.93-9.51L6.54,13.62l7.08-7.08,3.87,3.88A25.881,25.881,0,0,1,27,6.49V1H37V6.49a25.881,25.881,0,0,1,9.51,3.93l3.87-3.88,7.08,7.08-3.88,3.87A25.881,25.881,0,0,1,57.51,27Zm-9,5a21.992,21.992,0,1,0-2.05,9.28A21.992,21.992,0,0,0,54,32Z" fill="#d9d9d9"/>
      <path id="Trazado_1043293" data-name="Trazado 1043293" d="M37,64H27a1,1,0,0,1-1-1V58.326a26.681,26.681,0,0,1-8.374-3.468l-3.3,3.3a1.029,1.029,0,0,1-1.414,0L5.837,51.092a1,1,0,0,1,0-1.414l3.305-3.3A26.681,26.681,0,0,1,5.674,38H1a1,1,0,0,1-1-1V27a1,1,0,0,1,1-1H5.674a26.681,26.681,0,0,1,3.468-8.374l-3.3-3.3a1,1,0,0,1,0-1.414l7.071-7.071a1,1,0,0,1,1.414,0l3.3,3.3A26.7,26.7,0,0,1,26,5.674V1a1,1,0,0,1,1-1H37a1,1,0,0,1,1,1V5.674a26.7,26.7,0,0,1,8.374,3.467l3.3-3.3a1.029,1.029,0,0,1,1.414,0l7.071,7.071a1,1,0,0,1,0,1.414l-3.3,3.3A26.7,26.7,0,0,1,58.326,26H63a1,1,0,0,1,1,1V37a1,1,0,0,1-1,1H58.326a26.7,26.7,0,0,1-3.467,8.374l3.3,3.3a1,1,0,0,1,0,1.414l-7.071,7.071a1,1,0,0,1-1.414,0l-3.3-3.3A26.681,26.681,0,0,1,38,58.326V63a1,1,0,0,1-1,1Zm-9-2h8V57.515a1,1,0,0,1,.809-.982,24.74,24.74,0,0,0,9.14-3.784,1,1,0,0,1,1.266.122l3.17,3.171,5.657-5.657-3.171-3.17a1,1,0,0,1-.122-1.266,24.712,24.712,0,0,0,3.784-9.14A1,1,0,0,1,57.515,36H62V28H57.515a1,1,0,0,1-.982-.809,24.712,24.712,0,0,0-3.784-9.14,1,1,0,0,1,.122-1.266l3.171-3.17L50.385,7.958l-3.17,3.171a1,1,0,0,1-1.266.122,24.712,24.712,0,0,0-9.14-3.784A1,1,0,0,1,36,6.485V2H28V6.485a1,1,0,0,1-.809.982,24.712,24.712,0,0,0-9.14,3.784,1,1,0,0,1-1.266-.122l-3.17-3.171L7.958,13.615l3.171,3.17a1,1,0,0,1,.122,1.266,24.74,24.74,0,0,0-3.784,9.14A1,1,0,0,1,6.485,28H2v8H6.485a1,1,0,0,1,.982.809,24.74,24.74,0,0,0,3.784,9.14,1,1,0,0,1-.122,1.266l-3.171,3.17,5.657,5.657,3.17-3.171a1,1,0,0,1,1.266-.122,24.74,24.74,0,0,0,9.14,3.784,1,1,0,0,1,.809.982Z"/>
      <path id="Trazado_1043294" data-name="Trazado 1043294" d="M49,43H15a3,3,0,0,1,0-6H49a3,3,0,0,1,0,6ZM15,39a1,1,0,0,0,0,2H49a1,1,0,0,0,0-2Z"/>
      <path id="Trazado_1043295" data-name="Trazado 1043295" d="M16,38H14A17.943,17.943,0,0,1,27.766,20.5l.468,1.943A15.952,15.952,0,0,0,16,38Z"/>
      <path id="Trazado_1043296" data-name="Trazado 1043296" d="M50,38H48A15.952,15.952,0,0,0,35.766,22.441l.468-1.943A17.943,17.943,0,0,1,50,38Z"/>
      <path id="Trazado_1043297" data-name="Trazado 1043297" d="M36,35H28a1,1,0,0,1-1-1V20a3,3,0,0,1,3-3h4a3,3,0,0,1,3,3V34A1,1,0,0,1,36,35Zm-7-2h6V20a1,1,0,0,0-1-1H30a1,1,0,0,0-1,1Z"/>
      <path id="Trazado_1043298" data-name="Trazado 1043298" d="M42,35a3,3,0,0,1-3-3V23h2v9a1,1,0,0,0,1,1,.959.959,0,0,0,.693-.287A.977.977,0,0,0,43,32V25.96h2V32a3.015,3.015,0,0,1-3,3Z"/>
      <path id="Trazado_1043299" data-name="Trazado 1043299" d="M22,35a3.015,3.015,0,0,1-3-3V25.96h2V32a.959.959,0,0,0,.287.693A.977.977,0,0,0,22,33a1,1,0,0,0,1-1V23h2v9A3,3,0,0,1,22,35Z"/>
      <path id="Trazado_1043300" data-name="Trazado 1043300" d="M50.9,38.569l-1.889-.658a18,18,0,1,0-34.012,0l-1.889.658a20,20,0,1,1,37.79,0Z"/>
      <path id="Trazado_1043301" data-name="Trazado 1043301" d="M32,52a19.889,19.889,0,0,1-17-9.473l1.7-1.054a17.992,17.992,0,0,0,30.6,0L49,42.527A19.889,19.889,0,0,1,32,52Z"/>
      <path id="Trazado_1043302" data-name="Trazado 1043302" d="M32,55A23,23,0,1,1,55,32,23,23,0,0,1,32,55Zm0-44A21,21,0,1,0,53,32,21,21,0,0,0,32,11Z"/>
    </g>
  </g>
</svg>
