<svg xmlns="http://www.w3.org/2000/svg" xmlns:xlink="http://www.w3.org/1999/xlink" width="108" height="108" viewBox="0 0 108 108">
  <defs>
    <filter id="Trazado_904820" x="0" y="0" width="108" height="108" filterUnits="userSpaceOnUse">
      <feOffset dy="3" input="SourceAlpha"/>
      <feGaussianBlur stdDeviation="3" result="blur"/>
      <feFlood flood-opacity="0.161"/>
      <feComposite operator="in" in2="blur"/>
      <feComposite in="SourceGraphic"/>
    </filter>
  </defs>
  <g id="Grupo_1205256" data-name="Grupo 1205256" transform="translate(-219.022 -911.605)">
    <g id="Grupo_1202073" data-name="Grupo 1202073" transform="translate(228.022 917.605)">
      <g id="Grupo_1178821" data-name="Grupo 1178821" transform="translate(0 0)">
        <g id="Grupo_1173585" data-name="Grupo 1173585">
          <g id="Grupo_1173428" data-name="Grupo 1173428">
            <g id="Grupo_1171958" data-name="Grupo 1171958">
              <g id="Grupo_1167341" data-name="Grupo 1167341">
                <g id="Grupo_1166792" data-name="Grupo 1166792">
                  <g transform="matrix(1, 0, 0, 1, -9, -6)" filter="url(#Trazado_904820)">
                    <g id="Trazado_904820-2" data-name="Trazado 904820" transform="translate(9 6)" fill="#fef9e7">
                      <path d="M 44.99999618530273 88.49994659423828 C 39.12687301635742 88.49994659423828 33.43022155761719 87.35002136230469 28.06829643249512 85.08212280273438 C 22.88852119445801 82.89125823974609 18.23629570007324 79.75454711914062 14.24084663391113 75.75910186767578 C 10.24540901184082 71.76364898681641 7.108683586120605 67.11143493652344 4.917821407318115 61.93165969848633 C 2.649921178817749 56.56973648071289 1.499996185302734 50.87309646606445 1.499996185302734 44.99997329711914 C 1.499996185302734 39.12685012817383 2.649921178817749 33.43021011352539 4.917821407318115 28.06828498840332 C 7.108683586120605 22.88851165771484 10.24540901184082 18.23629760742188 14.24084663391113 14.24084854125977 C 18.23629570007324 10.24539852142334 22.88852119445801 7.108685970306396 28.06829643249512 4.917823314666748 C 33.43022155761719 2.649923324584961 39.12687301635742 1.499998331069946 44.99999618530273 1.499998331069946 C 50.87311935424805 1.499998331069946 56.56977081298828 2.649923324584961 61.93169784545898 4.917823314666748 C 67.11147308349609 7.108685970306396 71.76369476318359 10.24539852142334 75.75914764404297 14.24084854125977 C 79.75458526611328 18.23629760742188 82.89131164550781 22.88851165771484 85.08216857910156 28.06828498840332 C 87.35007476806641 33.43021011352539 88.5 39.12685012817383 88.5 44.99997329711914 C 88.5 50.87309646606445 87.35007476806641 56.56973648071289 85.08216857910156 61.93165969848633 C 82.89131164550781 67.11143493652344 79.75458526611328 71.76364898681641 75.75914764404297 75.75910186767578 C 71.76369476318359 79.75454711914062 67.11147308349609 82.89125823974609 61.93169784545898 85.08212280273438 C 56.56977081298828 87.35002136230469 50.87311935424805 88.49994659423828 44.99999618530273 88.49994659423828 Z" stroke="none"/>
                      <path d="M 44.99999618530273 3 C 39.32870864868164 3 33.82865142822266 4.110061645507812 28.65262603759766 6.299331665039062 C 23.65165710449219 8.414573669433594 19.15968322753906 11.44332885742188 15.301513671875 15.30149841308594 C 11.44333648681641 19.15969085693359 8.414566040039062 23.65164184570312 6.299339294433594 28.65261459350586 C 4.110054016113281 33.82864379882812 2.999992370605469 39.32868576049805 2.999992370605469 44.99997329711914 C 2.999992370605469 50.67126083374023 4.110054016113281 56.17130279541016 6.299339294433594 61.34732818603516 C 8.414566040039062 66.34829711914062 11.44333648681641 70.84025573730469 15.301513671875 74.69844055175781 C 19.15968322753906 78.55661773681641 23.65165710449219 81.58537292480469 28.65262603759766 83.70061492919922 C 33.82865142822266 85.88988494873047 39.32870864868164 86.99994659423828 44.99999618530273 86.99994659423828 C 50.67128372192383 86.99994659423828 56.17134094238281 85.88988494873047 61.34736633300781 83.70061492919922 C 66.34834289550781 81.58537292480469 70.84030914306641 78.55661773681641 74.69847869873047 74.69844055175781 C 78.55665588378906 70.84025573730469 81.58542633056641 66.34829711914062 83.70065307617188 61.34732818603516 C 85.88993835449219 56.17130279541016 87 50.67126083374023 87 44.99997329711914 C 87 39.32868576049805 85.88993835449219 33.82864379882812 83.70065307617188 28.65261459350586 C 81.58542633056641 23.65164184570312 78.55665588378906 19.15969085693359 74.69847869873047 15.30149841308594 C 70.84030914306641 11.44332885742188 66.34834289550781 8.414573669433594 61.34736633300781 6.299331665039062 C 56.17134094238281 4.110061645507812 50.67128372192383 3 44.99999618530273 3 M 44.99999618530273 0 C 69.85281372070312 0 90 20.14717102050781 90 44.99997329711914 C 90 69.85277557373047 69.85281372070312 89.99994659423828 44.99999618530273 89.99994659423828 C 20.14717864990234 89.99994659423828 -7.62939453125e-06 69.85277557373047 -7.62939453125e-06 44.99997329711914 C -7.62939453125e-06 20.14717102050781 20.14717864990234 0 44.99999618530273 0 Z" stroke="none" fill="#887013"/>
                    </g>
                  </g>
                </g>
              </g>
            </g>
          </g>
        </g>
      </g>
    </g>
    <g id="fisica_1_" data-name="fisica (1)" transform="translate(234.352 927.913)">
      <path id="Trazado_1043558" data-name="Trazado 1043558" d="M59.724,39.766,71,34.755,81.025,57.308,58.471,67.332,48.448,44.778Z" transform="translate(-27.734 -20.86)" fill="#0057e7"/>
      <path id="Trazado_1043559" data-name="Trazado 1043559" d="M37.766,117.681H65.532V93L10,117.681Z" transform="translate(-1.148 -61.136)" fill="#d62d20"/>
      <path id="Trazado_1043560" data-name="Trazado 1043560" d="M36.618,116.915H64.384A.617.617,0,0,0,65,116.3V91.617A.617.617,0,0,0,64.384,91L8.852,115.681a.628.628,0,1,0,.231,1.234H32.222a.617.617,0,1,0,0-1.234H11.706L63.844,92.543v23.138H36.7a.617.617,0,0,0,0,1.234m-2.16-1.234a.617.617,0,1,1-.617.617.617.617,0,0,1,.617-.617" transform="translate(0 -59.753)"/>
      <path id="Trazado_1043561" data-name="Trazado 1043561" d="M62.352,22l-4.385-9.867-2.819,1.253L57.5,7.279,63.6,9.628l-2.819,1.253,4.385,9.867" transform="translate(-32.367 -1.861)" fill="#008744"/>
      <path id="Trazado_1043562" data-name="Trazado 1043562" d="M60.149,20.14l-4.135-9.3-2.255,1a.67.67,0,0,1-.783-1l2.193-5.7a.938.938,0,0,1,1.128-.5L62,6.827a.617.617,0,0,1,.533.439.617.617,0,0,1-.313.814l-2.255,1,2.569,5.779a.617.617,0,1,1-1.128.5L58.583,9.02a.617.617,0,0,1,.313-.814l1.41-.626L56.234,6.013l-1.566,4.072,1.41-.626a.617.617,0,0,1,.814.313l4.385,9.867a.617.617,0,1,1-1.128.5m3.007-2.349a.617.617,0,1,1,.313-.814.617.617,0,0,1-.313.814" transform="translate(-30.781)"/>
      <path id="Trazado_1043563" data-name="Trazado 1043563" d="M138,53.852l9.867-4.385-1.253-2.819L152.722,49,150.373,55.1l-1.253-2.819-9.867,4.385" transform="translate(-89.659 -29.084)" fill="#008744"/>
      <path id="Trazado_1043564" data-name="Trazado 1043564" d="M137.178,49.649l9.3-4.135-1-2.255a.67.67,0,0,1,1-.783l5.7,2.193a.938.938,0,0,1,.5,1.128l-2.193,5.7a.67.67,0,0,1-1.253.219l-1-2.255-5.779,2.569a.617.617,0,1,1-.5-1.128l6.343-2.819a.617.617,0,0,1,.814.313l.627,1.41,1.566-4.072-4.072-1.566.626,1.41a.617.617,0,0,1-.313.814l-9.867,4.385a.617.617,0,1,1-.5-1.128m2.349,3.007a.617.617,0,1,1,.814.313.617.617,0,0,1-.814-.313" transform="translate(-88.837 -26.115)"/>
      <path id="Trazado_1043565" data-name="Trazado 1043565" d="M58.9,37.647,70.18,32.635a.617.617,0,0,1,.814.313L81.268,56.066,58.151,66.34a.617.617,0,0,1-.814-.313L47.313,43.473a.617.617,0,0,1,.313-.814l7.048-3.132a.617.617,0,1,1,.5,1.128l-6.484,2.882,9.523,21.426L79.64,55.439,70.117,34.013,59.4,38.775a.617.617,0,1,1-.5-1.128m-2.255,1a.617.617,0,1,1-.313.814.617.617,0,0,1,.313-.814" transform="translate(-26.913 -19.358)"/>
      <path id="Trazado_1043566" data-name="Trazado 1043566" d="M99.17,83v30.851h3.085l-4.628,4.628L93,113.851h3.085V83Z" transform="translate(-58.542 -54.221)" fill="#008744"/>
      <path id="Trazado_1043567" data-name="Trazado 1043567" d="M98.393,84.7v27.149h2.468a.67.67,0,0,1,.309,1.234L96.85,117.4a.938.938,0,0,1-1.234,0L91.3,113.085a.67.67,0,0,1,.309-1.234h2.468V87.016a.617.617,0,1,1,1.234,0v25.452a.617.617,0,0,1-.617.617H93.148l3.085,3.085,3.085-3.085H97.776a.617.617,0,0,1-.617-.617V82.234H94.69a.617.617,0,0,1,0-1.234h3.085a.617.617,0,0,1,.617.617Zm-3.7-1.234a.617.617,0,1,1-.617.617.617.617,0,0,1,.617-.617" transform="translate(-57.147 -52.838)"/>
    </g>
  </g>
</svg>
