<svg xmlns="http://www.w3.org/2000/svg" xmlns:xlink="http://www.w3.org/1999/xlink" width="100" height="100" viewBox="0 0 100 100">
  <defs>
    <filter id="Trazado_904820" x="0" y="0" width="100" height="100" filterUnits="userSpaceOnUse">
      <feOffset dy="3" input="SourceAlpha"/>
      <feGaussianBlur stdDeviation="3" result="blur"/>
      <feFlood flood-opacity="0.161"/>
      <feComposite operator="in" in2="blur"/>
      <feComposite in="SourceGraphic"/>
    </filter>
  </defs>
  <g id="Grupo_1205266" data-name="Grupo 1205266" transform="translate(-195.023 -1282.939)">
    <g id="Grupo_1179244" data-name="Grupo 1179244" transform="translate(204.023 1288.939)">
      <g id="Grupo_1173585" data-name="Grupo 1173585">
        <g id="Grupo_1173428" data-name="Grupo 1173428">
          <g id="Grupo_1171958" data-name="Grupo 1171958">
            <g id="Grupo_1167341" data-name="Grupo 1167341">
              <g id="Grupo_1166792" data-name="Grupo 1166792">
                <g transform="matrix(1, 0, 0, 1, -9, -6)" filter="url(#Trazado_904820)">
                  <g id="Trazado_904820-2" data-name="Trazado 904820" transform="translate(9 6)" fill="#fef9e7">
                    <path d="M 40.99999618530273 80.49997711181641 C 35.66686630249023 80.49997711181641 30.49406623840332 79.45581817626953 25.62527847290039 77.396484375 C 20.92181968688965 75.40709686279297 16.69737243652344 72.55879211425781 13.06927871704102 68.93069458007812 C 9.441184043884277 65.30260467529297 6.592878341674805 61.07815551757812 4.603490352630615 56.37471008300781 C 2.544160842895508 51.50592041015625 1.499996185302734 46.33312225341797 1.499996185302734 40.99999237060547 C 1.499996185302734 35.66686248779297 2.544160842895508 30.49406242370605 4.603490352630615 25.62527465820312 C 6.592878341674805 20.92182731628418 9.441184043884277 16.69738006591797 13.06927871704102 13.06928634643555 C 16.69737243652344 9.441192626953125 20.92181968688965 6.592886447906494 25.62527847290039 4.603498458862305 C 30.49406623840332 2.544168949127197 35.66686630249023 1.500004172325134 40.99999618530273 1.500004172325134 C 46.33312606811523 1.500004172325134 51.50592422485352 2.544168949127197 56.37471389770508 4.603498458862305 C 61.07817077636719 6.592886447906494 65.30261993408203 9.441192626953125 68.93071746826172 13.06928634643555 C 72.55880737304688 16.69738006591797 75.40711212158203 20.92182731628418 77.39649963378906 25.62527465820312 C 79.45583343505859 30.49406242370605 80.5 35.66686248779297 80.5 40.99999237060547 C 80.5 46.33312225341797 79.45583343505859 51.50592041015625 77.39649963378906 56.37471008300781 C 75.40711212158203 61.07815551757812 72.55880737304688 65.30260467529297 68.93071746826172 68.93069458007812 C 65.30261993408203 72.55879211425781 61.07817077636719 75.40709686279297 56.37471389770508 77.396484375 C 51.50592422485352 79.45581817626953 46.33312606811523 80.49997711181641 40.99999618530273 80.49997711181641 Z" stroke="none"/>
                    <path d="M 40.99999618530273 2.999992370605469 C 35.86870193481445 2.999992370605469 30.89250183105469 4.004287719726562 26.2095947265625 5.984992980957031 C 21.68494415283203 7.898750305175781 17.62075805664062 10.63911437988281 14.12994384765625 14.12993621826172 C 10.63911437988281 17.62075042724609 7.898757934570312 21.68494033813477 5.984992980957031 26.20959091186523 C 4.004287719726562 30.89249801635742 2.999992370605469 35.86869812011719 2.999992370605469 40.99999237060547 C 2.999992370605469 46.13128662109375 4.004287719726562 51.10748291015625 5.984992980957031 55.79037857055664 C 7.898757934570312 60.31503295898438 10.63911437988281 64.37921905517578 14.12994384765625 67.87004852294922 C 17.62075805664062 71.36085510253906 21.68494415283203 74.10121917724609 26.2095947265625 76.01497650146484 C 30.89250183105469 77.99568176269531 35.86870193481445 78.99997711181641 40.99999618530273 78.99997711181641 C 46.13129043579102 78.99997711181641 51.10749053955078 77.99568176269531 55.79038238525391 76.01497650146484 C 60.31503677368164 74.10121917724609 64.37922668457031 71.36085510253906 67.87004852294922 67.87004852294922 C 71.36087799072266 64.37921905517578 74.10123443603516 60.31503295898438 76.01499938964844 55.79037857055664 C 77.99570465087891 51.10748291015625 79 46.13128662109375 79 40.99999237060547 C 79 35.86869812011719 77.99570465087891 30.89249801635742 76.01499938964844 26.20959091186523 C 74.10123443603516 21.68494033813477 71.36087799072266 17.62075042724609 67.87004852294922 14.12993621826172 C 64.37922668457031 10.63911437988281 60.31503677368164 7.898750305175781 55.79038238525391 5.984992980957031 C 51.10749053955078 4.004287719726562 46.13129043579102 2.999992370605469 40.99999618530273 2.999992370605469 M 40.99999618530273 -7.62939453125e-06 C 63.64366149902344 -7.62939453125e-06 82 18.3563117980957 82 40.99999237060547 C 82 63.64366149902344 63.64366149902344 81.99997711181641 40.99999618530273 81.99997711181641 C 18.35631561279297 81.99997711181641 -7.62939453125e-06 63.64366149902344 -7.62939453125e-06 40.99999237060547 C -7.62939453125e-06 18.3563117980957 18.35631561279297 -7.62939453125e-06 40.99999618530273 -7.62939453125e-06 Z" stroke="none" fill="#887013"/>
                  </g>
                </g>
              </g>
            </g>
          </g>
        </g>
      </g>
    </g>
    <g id="note_8234433" transform="translate(225.628 1306.941)">
      <path id="Trazado_1039558" data-name="Trazado 1039558" d="M219.559,201.628l-24.608-3.351a1.922,1.922,0,0,1-1.645-2.163l3.351-24.608a1.922,1.922,0,0,1,2.163-1.645l24.608,3.351a1.922,1.922,0,0,1,1.645,2.163l-3.351,24.608A1.922,1.922,0,0,1,219.559,201.628Z" transform="translate(-174.303 -155.649)" fill="#ffab56"/>
      <path id="Trazado_1039559" data-name="Trazado 1039559" d="M199.207,169.861a1.922,1.922,0,0,0-2.163,1.645l-3.325,24.416H212.5a3.765,3.765,0,0,0,3.761-3.761V172.183Z" transform="translate(-174.689 -155.649)" fill="#ff982a"/>
      <path id="Trazado_1039560" data-name="Trazado 1039560" d="M36.274,104.486l-24.759,1.942a1.922,1.922,0,0,1-2.066-1.765L7.506,79.9a1.922,1.922,0,0,1,1.765-2.066L34.031,75.9A1.922,1.922,0,0,1,36.1,77.661l1.942,24.759A1.922,1.922,0,0,1,36.274,104.486Z" transform="translate(-7.5 -71.297)" fill="#9ff497"/>
      <path id="Trazado_1039561" data-name="Trazado 1039561" d="M97.68,112.16v23.048l19.558-1.534A1.922,1.922,0,0,0,119,131.608l-1.82-23.209H101.441A3.765,3.765,0,0,0,97.68,112.16Z" transform="translate(-88.465 -100.484)" fill="#6ce79a"/>
      <path id="Trazado_1039562" data-name="Trazado 1039562" d="M224.682,178.26l.393-2.886a1.922,1.922,0,0,0-1.645-2.163l-24.608-3.351a1.922,1.922,0,0,0-2.163,1.645l-3.351,24.608a1.922,1.922,0,0,0,1.645,2.163l24.608,3.351a1.922,1.922,0,0,0,2.163-1.645l2.554-18.759" transform="translate(-174.304 -155.648)" fill="none" stroke="#000" stroke-linecap="round" stroke-linejoin="round" stroke-miterlimit="10" stroke-width="1.3"/>
      <path id="Trazado_1039563" data-name="Trazado 1039563" d="M14.456,77.432l-5.185.407A1.922,1.922,0,0,0,7.505,79.9l1.942,24.759a1.922,1.922,0,0,0,2.066,1.766l24.759-1.942a1.922,1.922,0,0,0,1.765-2.066L36.1,77.662A1.922,1.922,0,0,0,34.03,75.9L17.419,77.2" transform="translate(-7.499 -71.298)" fill="none" stroke="#000" stroke-linecap="round" stroke-linejoin="round" stroke-miterlimit="10" stroke-width="1.3"/>
      <path id="Trazado_1039564" data-name="Trazado 1039564" d="M142.437,155.077H117.6a1.922,1.922,0,0,1-1.922-1.922V128.32A1.922,1.922,0,0,1,117.6,126.4h24.835a1.922,1.922,0,0,1,1.922,1.922v24.835A1.922,1.922,0,0,1,142.437,155.077Z" transform="translate(-104.625 -116.644)" fill="#ffe270"/>
      <path id="Trazado_1039565" data-name="Trazado 1039565" d="M354.868,126.4H352.29a1.922,1.922,0,0,1,1.922,1.922v24.835a1.922,1.922,0,0,1-1.922,1.922h2.578a1.922,1.922,0,0,0,1.922-1.922V128.321A1.922,1.922,0,0,0,354.868,126.4Z" transform="translate(-317.056 -116.645)" fill="#ffd250"/>
      <line id="Línea_827" data-name="Línea 827" y1="8.279" x2="9.368" transform="translate(25.394 4.355)" fill="none" stroke="#000" stroke-linecap="round" stroke-linejoin="round" stroke-miterlimit="10" stroke-width="1.3"/>
      <circle id="Elipse_12290" data-name="Elipse 12290" cx="2.516" cy="2.516" r="2.516" transform="translate(34.223)" fill="#5844a0"/>
      <circle id="Elipse_12291" data-name="Elipse 12291" cx="2.516" cy="2.516" r="2.516" transform="translate(34.223)" fill="none" stroke="#000" stroke-linecap="round" stroke-linejoin="round" stroke-miterlimit="10" stroke-width="1.3"/>
      <g id="Grupo_1202046" data-name="Grupo 1202046" transform="translate(17.156 16.397)">
        <line id="Línea_828" data-name="Línea 828" x2="16.477" fill="none" stroke="#000" stroke-linecap="round" stroke-linejoin="round" stroke-miterlimit="10" stroke-width="1.3"/>
        <line id="Línea_829" data-name="Línea 829" x2="16.477" transform="translate(0 3.848)" fill="none" stroke="#000" stroke-linecap="round" stroke-linejoin="round" stroke-miterlimit="10" stroke-width="1.3"/>
        <line id="Línea_830" data-name="Línea 830" x2="16.477" transform="translate(0 7.697)" fill="none" stroke="#000" stroke-linecap="round" stroke-linejoin="round" stroke-miterlimit="10" stroke-width="1.3"/>
        <line id="Línea_831" data-name="Línea 831" x2="16.477" transform="translate(0 11.545)" fill="none" stroke="#000" stroke-linecap="round" stroke-linejoin="round" stroke-miterlimit="10" stroke-width="1.3"/>
        <line id="Línea_832" data-name="Línea 832" x2="16.477" transform="translate(0 15.394)" fill="none" stroke="#000" stroke-linecap="round" stroke-linejoin="round" stroke-miterlimit="10" stroke-width="1.3"/>
      </g>
      <path id="Trazado_1039566" data-name="Trazado 1039566" d="M132.983,155.078h9.454a1.922,1.922,0,0,0,1.922-1.922V128.321a1.922,1.922,0,0,0-1.922-1.922H117.6a1.922,1.922,0,0,0-1.922,1.922v24.835a1.922,1.922,0,0,0,1.922,1.922h12.418" transform="translate(-104.625 -116.645)" fill="none" stroke="#000" stroke-linecap="round" stroke-linejoin="round" stroke-miterlimit="10" stroke-width="1.3"/>
    </g>
  </g>
</svg>
