<svg xmlns="http://www.w3.org/2000/svg" xmlns:xlink="http://www.w3.org/1999/xlink" width="401" height="353" viewBox="0 0 401 353">
  <defs>
    <filter id="Trazado_1043670" x="0" y="0" width="401" height="353" filterUnits="userSpaceOnUse">
      <feOffset dy="3" input="SourceAlpha"/>
      <feGaussianBlur stdDeviation="3" result="blur"/>
      <feFlood flood-opacity="0.161"/>
      <feComposite operator="in" in2="blur"/>
      <feComposite in="SourceGraphic"/>
    </filter>
  </defs>
  <g id="Grupo_1205266" data-name="Grupo 1205266" transform="translate(-7036 -5505)">
    <g transform="matrix(1, 0, 0, 1, 7036, 5505)" filter="url(#Trazado_1043670)">
      <path id="Trazado_1043670-2" data-name="Trazado 1043670" d="M0,0H383V335H0Z" transform="translate(9 6)" fill="#fff"/>
    </g>
    <path id="Trazado_1043675" data-name="Trazado 1043675" d="M0,0H154V39H0Z" transform="translate(7083 5591)" fill="#e0e0e0" stroke="#333" stroke-width="2"/>
    <path id="Trazado_1043677" data-name="Trazado 1043677" d="M-24.141,0l3.849-10.021h1.429L-14.762,0h-1.511l-1.169-3.035h-4.19L-22.733,0Zm2.892-4.115h3.4L-18.9-6.891q-.479-1.265-.711-2.078a12.775,12.775,0,0,1-.54,1.914ZM-8.391,2.946A12.3,12.3,0,0,1-10.114-.062a9.345,9.345,0,0,1-.7-3.568,9.29,9.29,0,0,1,.526-3.117,13.1,13.1,0,0,1,1.9-3.445h.882Q-8.336-8.771-8.6-8.162a11.092,11.092,0,0,0-.656,1.969,11.435,11.435,0,0,0-.294,2.57A12.336,12.336,0,0,0-7.509,2.946Zm1.969-5.571,1.292-.109a2.317,2.317,0,0,0,.667,1.418A1.81,1.81,0,0,0-3.2-.841a1.964,1.964,0,0,0,1.5-.67,2.525,2.525,0,0,0,.615-1.777,2.282,2.282,0,0,0-.591-1.661,2.062,2.062,0,0,0-1.548-.608,2.145,2.145,0,0,0-1.073.27,2.084,2.084,0,0,0-.752.7L-6.2-4.737l.971-5.147H-.25v1.176h-4l-.54,2.693A3.261,3.261,0,0,1-2.9-6.645,3,3,0,0,1-.68-5.735,3.178,3.178,0,0,1,.222-3.4,3.65,3.65,0,0,1-.571-1.046,3.176,3.176,0,0,1-3.2.171,3.242,3.242,0,0,1-5.435-.595,2.988,2.988,0,0,1-6.422-2.625ZM5.6,0V-10.021h1.23v5.715L9.745-7.26h1.593L8.562-4.566,11.618,0H10.1L7.7-3.712l-.868.834V0ZM12.37.6l1.2.178a1.14,1.14,0,0,0,.417.807,2.049,2.049,0,0,0,1.251.342,2.2,2.2,0,0,0,1.319-.342,1.682,1.682,0,0,0,.629-.957A7.859,7.859,0,0,0,17.271-.95a2.531,2.531,0,0,1-2.01.95,2.74,2.74,0,0,1-2.317-1.08,4.159,4.159,0,0,1-.82-2.591A4.822,4.822,0,0,1,12.5-5.588a3.008,3.008,0,0,1,1.09-1.357,2.944,2.944,0,0,1,1.678-.479,2.6,2.6,0,0,1,2.119,1.039V-7.26h1.135V-.984a5.952,5.952,0,0,1-.345,2.4,2.525,2.525,0,0,1-1.094,1.118,3.791,3.791,0,0,1-1.842.41,3.474,3.474,0,0,1-2.1-.584A1.976,1.976,0,0,1,12.37.6ZM13.388-3.76a3.149,3.149,0,0,0,.567,2.085,1.8,1.8,0,0,0,1.422.656A1.819,1.819,0,0,0,16.8-1.671a3.047,3.047,0,0,0,.574-2.047,2.977,2.977,0,0,0-.591-2.01,1.828,1.828,0,0,0-1.425-.677,1.776,1.776,0,0,0-1.395.667A2.96,2.96,0,0,0,13.388-3.76Zm7.8,6.706h-.882A12.336,12.336,0,0,0,22.35-3.623a11.227,11.227,0,0,0-.294-2.55,10.717,10.717,0,0,0-.649-1.969,23.1,23.1,0,0,0-1.1-2.051h.882a13.1,13.1,0,0,1,1.9,3.445,9.29,9.29,0,0,1,.526,3.117,9.306,9.306,0,0,1-.708,3.568A12.518,12.518,0,0,1,21.188,2.946Z" transform="translate(7154 5613)"/>
    <path id="Trazado_1043678" data-name="Trazado 1043678" d="M23,0A23,23,0,1,1,0,23,23,23,0,0,1,23,0Z" transform="translate(7251 5568)" fill="#d0d0d0" stroke="#333" stroke-width="2"/>
    <path id="Trazado_1043679" data-name="Trazado 1043679" d="M4,0A4,4,0,1,1,0,4,4,4,0,0,1,4,0Z" transform="translate(7270 5587)" fill="#333"/>
    <path id="Trazado_1043671" data-name="Trazado 1043671" d="M0,0H31V46H0Z" transform="translate(7260 5653)" fill="#e0e0e0" stroke="#333" stroke-width="2"/>
    <path id="Trazado_1043672" data-name="Trazado 1043672" d="M-2.863,0V-7.874H.091a3.656,3.656,0,0,1,1.448.239,1.861,1.861,0,0,1,.854.736A1.94,1.94,0,0,1,2.7-5.86a1.785,1.785,0,0,1-.274.951,1.956,1.956,0,0,1-.827.72,2.057,2.057,0,0,1,1.1.714,1.913,1.913,0,0,1,.384,1.192,2.3,2.3,0,0,1-.234,1.029,1.991,1.991,0,0,1-.577.733,2.41,2.41,0,0,1-.862.389A5.243,5.243,0,0,1,.14,0Zm1.042-4.565h1.7a3.8,3.8,0,0,0,.994-.091,1.1,1.1,0,0,0,.6-.392,1.129,1.129,0,0,0,.2-.687,1.266,1.266,0,0,0-.188-.69.951.951,0,0,0-.537-.408,4.486,4.486,0,0,0-1.2-.11H-1.821Zm0,3.636H.14A4.513,4.513,0,0,0,.849-.967a1.7,1.7,0,0,0,.6-.215,1.141,1.141,0,0,0,.4-.438A1.37,1.37,0,0,0,2-2.283a1.308,1.308,0,0,0-.226-.765A1.19,1.19,0,0,0,1.152-3.5,3.88,3.88,0,0,0,0-3.636H-1.821Z" transform="translate(7274 5679)"/>
    <path id="Trazado_1043673" data-name="Trazado 1043673" d="M-10.442,2.1a8.786,8.786,0,0,1-1.23-2.148,6.675,6.675,0,0,1-.5-2.549A6.636,6.636,0,0,1-11.8-4.819,9.359,9.359,0,0,1-10.442-7.28h.63q-.591,1.016-.781,1.45a7.923,7.923,0,0,0-.469,1.406,8.168,8.168,0,0,0-.21,1.836A8.811,8.811,0,0,0-9.812,2.1ZM-9.031-1.89l.879-.117A1.936,1.936,0,0,0-7.637-.93,1.272,1.272,0,0,0-6.75-.6,1.42,1.42,0,0,0-5.7-1.03a1.45,1.45,0,0,0,.427-1.064,1.348,1.348,0,0,0-.4-1,1.367,1.367,0,0,0-1.006-.393,2.523,2.523,0,0,0-.62.1l.1-.771a1.343,1.343,0,0,0,.142.01,1.81,1.81,0,0,0,1.011-.293,1,1,0,0,0,.449-.9,1.069,1.069,0,0,0-.327-.8,1.162,1.162,0,0,0-.845-.317,1.2,1.2,0,0,0-.854.322,1.618,1.618,0,0,0-.439.967l-.879-.156A2.259,2.259,0,0,1-8.21-6.7,2.117,2.117,0,0,1-6.79-7.187a2.341,2.341,0,0,1,1.079.251,1.819,1.819,0,0,1,.754.686,1.762,1.762,0,0,1,.261.923,1.511,1.511,0,0,1-.249.845,1.7,1.7,0,0,1-.737.605,1.661,1.661,0,0,1,.986.608,1.85,1.85,0,0,1,.352,1.155A2.113,2.113,0,0,1-5.027-.525,2.4,2.4,0,0,1-6.755.127,2.249,2.249,0,0,1-8.32-.435,2.171,2.171,0,0,1-9.031-1.89ZM-.447,0V-7.158H.432v4.082l2.08-2.109H3.65L1.667-3.262,3.85,0H2.766L1.052-2.651l-.62.6V0ZM4.387.43l.854.127a.814.814,0,0,0,.3.576,1.463,1.463,0,0,0,.894.244,1.569,1.569,0,0,0,.942-.244A1.2,1.2,0,0,0,7.825.449,5.614,5.614,0,0,0,7.888-.679,1.808,1.808,0,0,1,6.453,0,1.957,1.957,0,0,1,4.8-.771a2.971,2.971,0,0,1-.586-1.851,3.444,3.444,0,0,1,.269-1.37,2.149,2.149,0,0,1,.779-.969,2.1,2.1,0,0,1,1.2-.342,1.859,1.859,0,0,1,1.514.742v-.625h.811V-.7a4.251,4.251,0,0,1-.247,1.716,1.8,1.8,0,0,1-.781.8A2.708,2.708,0,0,1,6.438,2.1a2.481,2.481,0,0,1-1.5-.417A1.412,1.412,0,0,1,4.387.43Zm.728-3.115A2.25,2.25,0,0,0,5.52-1.2a1.287,1.287,0,0,0,1.016.469,1.3,1.3,0,0,0,1.016-.466,2.176,2.176,0,0,0,.41-1.462,2.126,2.126,0,0,0-.422-1.436,1.306,1.306,0,0,0-1.018-.483,1.269,1.269,0,0,0-1,.476A2.114,2.114,0,0,0,5.115-2.686ZM10.686,2.1h-.63a8.811,8.811,0,0,0,1.46-4.692,8.019,8.019,0,0,0-.21-1.821,7.655,7.655,0,0,0-.464-1.406,16.5,16.5,0,0,0-.786-1.465h.63a9.359,9.359,0,0,1,1.357,2.461,6.636,6.636,0,0,1,.376,2.227,6.647,6.647,0,0,1-.505,2.549A8.942,8.942,0,0,1,10.686,2.1Z" transform="translate(7274 5690)"/>
    <path id="Trazado_1043680" data-name="Trazado 1043680" d="M0,0H37" transform="translate(7237 5591)" stroke="#333" stroke-width="2"/>
    <path id="Trazado_1043674" data-name="Trazado 1043674" d="M0,0V62" transform="translate(7274 5591)" stroke="#333" stroke-width="2"/>
    <path id="Trazado_1043676" data-name="Trazado 1043676" d="M0,0H383" transform="translate(7045 5630)" stroke="#333" stroke-width="3"/>
    <g id="Grupo_1202095" data-name="Grupo 1202095" transform="translate(7098.969 5695.923)">
      <rect id="Rectángulo_416823" data-name="Rectángulo 416823" width="46" height="31" transform="translate(0.031 9.077)" fill="#e0e0e0" stroke="#333" stroke-width="1"/>
      <text id="A" transform="translate(23.032 29.077)" font-size="11" font-family="ArialMT, Arial"><tspan x="-3.668" y="0">A</tspan></text>
      <line id="Línea_1098" data-name="Línea 1098" x2="38" transform="translate(23.032 26.077)" stroke="blue" stroke-width="2"/>
      <text id="T" transform="translate(53.032 18.077)" fill="blue" font-size="11" font-family="ArialMT, Arial"><tspan x="0" y="0">T</tspan></text>
      <line id="Línea_1099" data-name="Línea 1099" y2="22" transform="translate(23.032 26.077)" stroke="red" stroke-width="2"/>
      <text id="W_" data-name="W₁" transform="translate(30.032 41.077)" fill="red" font-size="10" font-family="ArialMT, Arial"><tspan x="0" y="0">W</tspan><tspan y="0" font-family="SegoeUI, Segoe UI">₁</tspan></text>
      <line id="Línea_1100" data-name="Línea 1100" y1="23" transform="translate(23.032 3.077)" stroke="green" stroke-width="2"/>
      <text id="N" transform="translate(30.032 10.077)" fill="green" font-size="11" font-family="ArialMT, Arial"><tspan x="0" y="0">N</tspan></text>
      <line id="Línea_1101" data-name="Línea 1101" x2="23" transform="translate(23.032 26.077)" stroke="orange" stroke-width="1.5" stroke-dasharray="5 3"/>
      <text id="a-2" data-name="a" transform="translate(53.032 35.077)" fill="orange" font-size="9" font-family="ArialMT, Arial"><tspan x="0" y="0">a</tspan></text>
    </g>
    <g id="Grupo_1202096" data-name="Grupo 1202096" transform="translate(7336.432 5690.526)">
      <rect id="Rectángulo_416824" data-name="Rectángulo 416824" width="30" height="45" transform="translate(-0.432 8.474)" fill="#e0e0e0" stroke="#333" stroke-width="1"/>
      <text id="B" transform="translate(14.568 34.474)" font-size="11" font-family="ArialMT, Arial"><tspan x="-3.668" y="0">B</tspan></text>
      <line id="Línea_1102" data-name="Línea 1102" y1="31" transform="translate(14.568 0.474)" stroke="blue" stroke-width="2"/>
      <text id="T-2" data-name="T" transform="translate(22.568 11.474)" fill="blue" font-size="11" font-family="ArialMT, Arial"><tspan x="0" y="0">T</tspan></text>
      <line id="Línea_1103" data-name="Línea 1103" y2="29" transform="translate(14.568 31.474)" stroke="red" stroke-width="2"/>
      <text id="W_2" data-name="W₂" transform="translate(22.568 48.474)" fill="red" font-size="10" font-family="ArialMT, Arial"><tspan x="0" y="0">W</tspan><tspan y="0" font-family="SegoeUI, Segoe UI">₂</tspan></text>
      <line id="Línea_1104" data-name="Línea 1104" x2="23" transform="translate(14.568 31.474)" stroke="orange" stroke-width="1.5" stroke-dasharray="5 3"/>
      <text id="a-3" data-name="a" transform="translate(45.568 40.474)" fill="orange" font-size="9" font-family="ArialMT, Arial"><tspan x="0" y="0">a</tspan></text>
    </g>
    <path id="Contenido" d="M1.377,16V5.5h2.9q5.552,0,5.552,5.12a5.159,5.159,0,0,1-1.542,3.907A5.719,5.719,0,0,1,4.16,16Zm1.23-9.39v8.276H4.175A4.448,4.448,0,0,0,7.39,13.781a4.146,4.146,0,0,0,1.15-3.135q0-4.036-4.292-4.036ZM12.35,6.6a.761.761,0,0,1-.549-.22.742.742,0,0,1-.227-.557.769.769,0,0,1,.776-.784.776.776,0,0,1,.56.223.782.782,0,0,1,0,1.11A.769.769,0,0,1,12.35,6.6Zm.586,9.4h-1.2V8.5h1.2Zm7.8,0h-1.2V14.828h-.029A2.515,2.515,0,0,1,17.2,16.176a2.466,2.466,0,0,1-1.754-.593,2.055,2.055,0,0,1-.634-1.575q0-2.1,2.476-2.446l2.249-.315q0-1.912-1.545-1.912a3.692,3.692,0,0,0-2.446.923V9.027a4.648,4.648,0,0,1,2.549-.7q2.644,0,2.644,2.8Zm-1.2-3.794-1.809.249a2.937,2.937,0,0,0-1.26.414,1.193,1.193,0,0,0-.425,1.051,1.145,1.145,0,0,0,.392.9,1.514,1.514,0,0,0,1.044.348,1.928,1.928,0,0,0,1.476-.626,2.237,2.237,0,0,0,.582-1.586ZM29.4,15.4q0,4.131-3.955,4.131A5.31,5.31,0,0,1,23.017,19V17.8a4.994,4.994,0,0,0,2.417.7q2.769,0,2.769-2.944v-.82h-.029a3.035,3.035,0,0,1-4.83.436,4,4,0,0,1-.853-2.684,4.669,4.669,0,0,1,.919-3.04,3.071,3.071,0,0,1,2.516-1.128A2.445,2.445,0,0,1,28.173,9.54H28.2V8.5h1.2Zm-1.2-2.791V11.5a2.146,2.146,0,0,0-.6-1.531,1.989,1.989,0,0,0-1.505-.637,2.086,2.086,0,0,0-1.743.809,3.612,3.612,0,0,0-.63,2.267,3.1,3.1,0,0,0,.6,2,1.952,1.952,0,0,0,1.6.751,2.091,2.091,0,0,0,1.644-.718A2.675,2.675,0,0,0,28.2,12.609Zm7.545-2.893a1.469,1.469,0,0,0-.908-.242,1.533,1.533,0,0,0-1.285.725,3.352,3.352,0,0,0-.516,1.978V16h-1.2V8.5h1.2v1.545h.029a2.619,2.619,0,0,1,.784-1.234,1.787,1.787,0,0,1,1.179-.443,1.961,1.961,0,0,1,.718.1ZM42.422,16h-1.2V14.828h-.029a2.515,2.515,0,0,1-2.307,1.348,2.466,2.466,0,0,1-1.754-.593,2.055,2.055,0,0,1-.634-1.575q0-2.1,2.476-2.446l2.249-.315q0-1.912-1.545-1.912a3.692,3.692,0,0,0-2.446.923V9.027a4.648,4.648,0,0,1,2.549-.7q2.644,0,2.644,2.8Zm-1.2-3.794-1.809.249a2.937,2.937,0,0,0-1.26.414,1.193,1.193,0,0,0-.425,1.051,1.145,1.145,0,0,0,.392.9,1.514,1.514,0,0,0,1.044.348,1.928,1.928,0,0,0,1.476-.626,2.237,2.237,0,0,0,.582-1.586ZM55.336,16h-1.2V11.693a3.249,3.249,0,0,0-.385-1.8,1.458,1.458,0,0,0-1.293-.557,1.6,1.6,0,0,0-1.307.7,2.69,2.69,0,0,0-.538,1.685V16h-1.2V11.547q0-2.212-1.707-2.212A1.581,1.581,0,0,0,46.4,10a2.74,2.74,0,0,0-.513,1.725V16h-1.2V8.5h1.2V9.687h.029a2.548,2.548,0,0,1,2.329-1.362A2.166,2.166,0,0,1,50.37,9.877a2.676,2.676,0,0,1,2.49-1.553q2.476,0,2.476,3.054Zm7.641,0h-1.2V14.828h-.029a2.515,2.515,0,0,1-2.307,1.348,2.466,2.466,0,0,1-1.754-.593,2.055,2.055,0,0,1-.634-1.575q0-2.1,2.476-2.446l2.249-.315q0-1.912-1.545-1.912a3.692,3.692,0,0,0-2.446.923V9.027a4.648,4.648,0,0,1,2.549-.7q2.644,0,2.644,2.8Zm-1.2-3.794-1.809.249a2.937,2.937,0,0,0-1.26.414,1.193,1.193,0,0,0-.425,1.051,1.145,1.145,0,0,0,.392.9,1.514,1.514,0,0,0,1.044.348,1.928,1.928,0,0,0,1.476-.626,2.237,2.237,0,0,0,.582-1.586ZM75.753,16h-1.2V14.726h-.029a2.773,2.773,0,0,1-2.578,1.45,2.8,2.8,0,0,1-2.26-1.007,4.131,4.131,0,0,1-.846-2.743,4.5,4.5,0,0,1,.938-2.981,3.092,3.092,0,0,1,2.5-1.121A2.4,2.4,0,0,1,74.523,9.54h.029V4.9h1.2Zm-1.2-3.391V11.5a2.146,2.146,0,0,0-.6-1.538,2.014,2.014,0,0,0-1.523-.63,2.074,2.074,0,0,0-1.729.806,3.53,3.53,0,0,0-.63,2.227,3.175,3.175,0,0,0,.6,2.047,1.975,1.975,0,0,0,1.622.751,2.052,2.052,0,0,0,1.63-.725A2.7,2.7,0,0,0,74.552,12.609Zm9.662-.059h-5.3a2.805,2.805,0,0,0,.674,1.934,2.323,2.323,0,0,0,1.772.681,3.685,3.685,0,0,0,2.329-.835v1.128a4.353,4.353,0,0,1-2.615.718,3.17,3.17,0,0,1-2.5-1.022,4.182,4.182,0,0,1-.908-2.875,4.1,4.1,0,0,1,.992-2.853,3.182,3.182,0,0,1,2.465-1.1,2.82,2.82,0,0,1,2.278.952,3.97,3.97,0,0,1,.806,2.644Zm-1.23-1.018a2.444,2.444,0,0,0-.5-1.619,1.709,1.709,0,0,0-1.373-.579,1.94,1.94,0,0,0-1.443.608,2.759,2.759,0,0,0-.732,1.589ZM87.233,16h-1.2V4.9h1.2Zm6.089-.271V14.44a3.555,3.555,0,0,0,2.161.725q1.582,0,1.582-1.055a.915.915,0,0,0-.135-.509,1.35,1.35,0,0,0-.366-.37,2.819,2.819,0,0,0-.542-.289q-.311-.128-.67-.267a8.631,8.631,0,0,1-.875-.4,2.644,2.644,0,0,1-.63-.454,1.69,1.69,0,0,1-.381-.575,2.034,2.034,0,0,1-.128-.754,1.792,1.792,0,0,1,.242-.934,2.143,2.143,0,0,1,.645-.681,3.006,3.006,0,0,1,.919-.414,4.077,4.077,0,0,1,1.066-.139,4.3,4.3,0,0,1,1.743.337V9.877a3.4,3.4,0,0,0-1.9-.542,2.226,2.226,0,0,0-.608.077,1.488,1.488,0,0,0-.465.216,1,1,0,0,0-.3.333.878.878,0,0,0-.106.428,1.028,1.028,0,0,0,.106.491,1.08,1.08,0,0,0,.311.352,2.379,2.379,0,0,0,.5.278q.293.125.667.271a9.276,9.276,0,0,1,.894.392,3.065,3.065,0,0,1,.674.454,1.774,1.774,0,0,1,.428.582,1.878,1.878,0,0,1,.15.784,1.848,1.848,0,0,1-.245.967,2.1,2.1,0,0,1-.656.681,3,3,0,0,1-.945.4,4.665,4.665,0,0,1-1.121.132A4.255,4.255,0,0,1,93.323,15.729ZM100.758,6.6a.761.761,0,0,1-.549-.22.742.742,0,0,1-.227-.557.769.769,0,0,1,.776-.784.776.776,0,0,1,.56.223.782.782,0,0,1,0,1.11A.769.769,0,0,1,100.758,6.6Zm.586,9.4h-1.2V8.5h1.2Zm1.979-.271V14.44a3.555,3.555,0,0,0,2.161.725q1.582,0,1.582-1.055a.915.915,0,0,0-.135-.509,1.35,1.35,0,0,0-.366-.37,2.819,2.819,0,0,0-.542-.289q-.311-.128-.67-.267a8.631,8.631,0,0,1-.875-.4,2.644,2.644,0,0,1-.63-.454,1.69,1.69,0,0,1-.381-.575,2.034,2.034,0,0,1-.128-.754,1.792,1.792,0,0,1,.242-.934,2.143,2.143,0,0,1,.645-.681,3.006,3.006,0,0,1,.919-.414,4.077,4.077,0,0,1,1.066-.139,4.3,4.3,0,0,1,1.743.337V9.877a3.4,3.4,0,0,0-1.9-.542,2.226,2.226,0,0,0-.608.077,1.488,1.488,0,0,0-.465.216,1,1,0,0,0-.3.333.878.878,0,0,0-.106.428,1.028,1.028,0,0,0,.106.491,1.08,1.08,0,0,0,.311.352,2.379,2.379,0,0,0,.5.278q.293.125.667.271a9.276,9.276,0,0,1,.894.392,3.065,3.065,0,0,1,.674.454,1.774,1.774,0,0,1,.428.582,1.878,1.878,0,0,1,.15.784,1.848,1.848,0,0,1-.245.967,2.1,2.1,0,0,1-.656.681,3,3,0,0,1-.945.4,4.665,4.665,0,0,1-1.121.132A4.255,4.255,0,0,1,103.323,15.729Zm10.3.2a2.316,2.316,0,0,1-1.121.234q-1.97,0-1.97-2.2V9.525h-1.289V8.5h1.289V6.669l1.2-.388V8.5h1.89V9.525h-1.89v4.226a1.752,1.752,0,0,0,.256,1.077,1.023,1.023,0,0,0,.85.322,1.263,1.263,0,0,0,.784-.249Zm7.633-3.376h-5.3a2.805,2.805,0,0,0,.674,1.934,2.323,2.323,0,0,0,1.772.681,3.685,3.685,0,0,0,2.329-.835v1.128a4.353,4.353,0,0,1-2.615.718,3.17,3.17,0,0,1-2.5-1.022,4.182,4.182,0,0,1-.908-2.875,4.1,4.1,0,0,1,.992-2.853,3.182,3.182,0,0,1,2.465-1.1,2.82,2.82,0,0,1,2.278.952,3.97,3.97,0,0,1,.806,2.644Zm-1.23-1.018a2.444,2.444,0,0,0-.5-1.619,1.709,1.709,0,0,0-1.373-.579,1.94,1.94,0,0,0-1.443.608,2.759,2.759,0,0,0-.732,1.589ZM133.723,16h-1.2V11.693a3.249,3.249,0,0,0-.385-1.8,1.458,1.458,0,0,0-1.293-.557,1.6,1.6,0,0,0-1.307.7A2.69,2.69,0,0,0,129,11.723V16h-1.2V11.547q0-2.212-1.707-2.212a1.581,1.581,0,0,0-1.3.663,2.74,2.74,0,0,0-.513,1.725V16h-1.2V8.5h1.2V9.687h.029a2.548,2.548,0,0,1,2.329-1.362,2.166,2.166,0,0,1,2.124,1.553,2.676,2.676,0,0,1,2.49-1.553q2.476,0,2.476,3.054Zm7.641,0h-1.2V14.828h-.029a2.515,2.515,0,0,1-2.307,1.348,2.466,2.466,0,0,1-1.754-.593,2.055,2.055,0,0,1-.634-1.575q0-2.1,2.476-2.446l2.249-.315q0-1.912-1.545-1.912a3.692,3.692,0,0,0-2.446.923V9.027a4.648,4.648,0,0,1,2.549-.7q2.644,0,2.644,2.8Zm-1.2-3.794-1.809.249a2.937,2.937,0,0,0-1.26.414,1.193,1.193,0,0,0-.425,1.051,1.145,1.145,0,0,0,.392.9,1.514,1.514,0,0,0,1.044.348,1.928,1.928,0,0,0,1.476-.626,2.237,2.237,0,0,0,.582-1.586ZM154.14,16h-1.2V14.726h-.029a2.773,2.773,0,0,1-2.578,1.45,2.8,2.8,0,0,1-2.26-1.007,4.131,4.131,0,0,1-.846-2.743,4.5,4.5,0,0,1,.938-2.981,3.092,3.092,0,0,1,2.5-1.121A2.4,2.4,0,0,1,152.91,9.54h.029V4.9h1.2Zm-1.2-3.391V11.5a2.146,2.146,0,0,0-.6-1.538,2.014,2.014,0,0,0-1.523-.63,2.074,2.074,0,0,0-1.729.806,3.53,3.53,0,0,0-.63,2.227,3.175,3.175,0,0,0,.6,2.047,1.975,1.975,0,0,0,1.622.751,2.052,2.052,0,0,0,1.63-.725A2.7,2.7,0,0,0,152.939,12.609Zm9.662-.059h-5.3a2.805,2.805,0,0,0,.674,1.934,2.323,2.323,0,0,0,1.772.681,3.685,3.685,0,0,0,2.329-.835v1.128a4.353,4.353,0,0,1-2.615.718,3.17,3.17,0,0,1-2.5-1.022,4.182,4.182,0,0,1-.908-2.875,4.1,4.1,0,0,1,.992-2.853,3.182,3.182,0,0,1,2.465-1.1,2.82,2.82,0,0,1,2.278.952,3.97,3.97,0,0,1,.806,2.644Zm-1.23-1.018a2.444,2.444,0,0,0-.5-1.619,1.709,1.709,0,0,0-1.373-.579,1.94,1.94,0,0,0-1.443.608,2.759,2.759,0,0,0-.732,1.589ZM174.931,16h-1.2V14.726H173.7a2.773,2.773,0,0,1-2.578,1.45,2.8,2.8,0,0,1-2.26-1.007,4.131,4.131,0,0,1-.846-2.743,4.5,4.5,0,0,1,.938-2.981,3.092,3.092,0,0,1,2.5-1.121A2.4,2.4,0,0,1,173.7,9.54h.029V4.9h1.2Zm-1.2-3.391V11.5a2.146,2.146,0,0,0-.6-1.538,2.014,2.014,0,0,0-1.523-.63,2.074,2.074,0,0,0-1.729.806,3.53,3.53,0,0,0-.63,2.227,3.175,3.175,0,0,0,.6,2.047,1.975,1.975,0,0,0,1.622.751,2.052,2.052,0,0,0,1.63-.725A2.7,2.7,0,0,0,173.73,12.609Zm6.769,3.567a3.479,3.479,0,0,1-2.655-1.051,3.893,3.893,0,0,1-.992-2.787,4.056,4.056,0,0,1,1.033-2.952,3.713,3.713,0,0,1,2.791-1.062,3.364,3.364,0,0,1,2.618,1.033,4.1,4.1,0,0,1,.941,2.864A4.029,4.029,0,0,1,183.22,15.1,3.554,3.554,0,0,1,180.5,16.176Zm.088-6.841a2.285,2.285,0,0,0-1.831.787,3.234,3.234,0,0,0-.674,2.172,3.058,3.058,0,0,0,.681,2.1,2.315,2.315,0,0,0,1.824.769,2.2,2.2,0,0,0,1.791-.754A3.274,3.274,0,0,0,183,12.265a3.33,3.33,0,0,0-.626-2.168A2.186,2.186,0,0,0,180.587,9.335Zm5.114,6.394V14.44a3.555,3.555,0,0,0,2.161.725q1.582,0,1.582-1.055a.915.915,0,0,0-.135-.509,1.35,1.35,0,0,0-.366-.37,2.819,2.819,0,0,0-.542-.289q-.311-.128-.67-.267a8.631,8.631,0,0,1-.875-.4,2.644,2.644,0,0,1-.63-.454,1.69,1.69,0,0,1-.381-.575,2.034,2.034,0,0,1-.128-.754,1.792,1.792,0,0,1,.242-.934,2.143,2.143,0,0,1,.645-.681,3.006,3.006,0,0,1,.919-.414,4.077,4.077,0,0,1,1.066-.139,4.3,4.3,0,0,1,1.743.337V9.877a3.4,3.4,0,0,0-1.9-.542,2.226,2.226,0,0,0-.608.077,1.488,1.488,0,0,0-.465.216,1,1,0,0,0-.3.333.878.878,0,0,0-.106.428,1.028,1.028,0,0,0,.106.491,1.08,1.08,0,0,0,.311.352,2.379,2.379,0,0,0,.5.278q.293.125.667.271a9.276,9.276,0,0,1,.894.392,3.065,3.065,0,0,1,.674.454,1.774,1.774,0,0,1,.428.582,1.878,1.878,0,0,1,.15.784,1.848,1.848,0,0,1-.245.967,2.1,2.1,0,0,1-.656.681,3,3,0,0,1-.945.4,4.665,4.665,0,0,1-1.121.132A4.255,4.255,0,0,1,185.7,15.729Zm12.161-.813h-.029V16h-1.2V4.9h1.2V9.818h.029a2.84,2.84,0,0,1,2.593-1.494,2.749,2.749,0,0,1,2.26,1.007,4.158,4.158,0,0,1,.817,2.7,4.649,4.649,0,0,1-.916,3.014,3.048,3.048,0,0,1-2.5,1.132A2.467,2.467,0,0,1,197.862,14.916Zm-.029-3.025v1.047a2.23,2.23,0,0,0,.6,1.578,2.156,2.156,0,0,0,3.245-.187,3.831,3.831,0,0,0,.619-2.322,3.024,3.024,0,0,0-.579-1.963,1.915,1.915,0,0,0-1.567-.71,2.128,2.128,0,0,0-1.685.729A2.676,2.676,0,0,0,197.833,11.891ZM206.652,16h-1.2V4.9h1.2Zm5.568.176a3.479,3.479,0,0,1-2.655-1.051,3.893,3.893,0,0,1-.992-2.787,4.056,4.056,0,0,1,1.033-2.952A3.713,3.713,0,0,1,212.4,8.324a3.364,3.364,0,0,1,2.618,1.033,4.1,4.1,0,0,1,.941,2.864,4.029,4.029,0,0,1-1.014,2.875A3.554,3.554,0,0,1,212.22,16.176Zm.088-6.841a2.285,2.285,0,0,0-1.831.787,3.234,3.234,0,0,0-.674,2.172,3.058,3.058,0,0,0,.681,2.1,2.315,2.315,0,0,0,1.824.769,2.2,2.2,0,0,0,1.791-.754,3.274,3.274,0,0,0,.626-2.146A3.33,3.33,0,0,0,214.1,10.1,2.186,2.186,0,0,0,212.308,9.335ZM224.277,19.45h-1.2V14.711h-.029a2.688,2.688,0,0,1-2.563,1.465,2.823,2.823,0,0,1-2.267-1.007,4.108,4.108,0,0,1-.853-2.743,4.492,4.492,0,0,1,.938-2.985,3.12,3.12,0,0,1,2.52-1.117,2.365,2.365,0,0,1,2.227,1.216h.029V8.5h1.2Zm-1.2-6.826V11.532a2.182,2.182,0,0,0-.6-1.56,2.023,2.023,0,0,0-1.534-.637,2.063,2.063,0,0,0-1.714.8,3.58,3.58,0,0,0-.63,2.26,3.1,3.1,0,0,0,.608,2.032,1.94,1.94,0,0,0,1.567.736,2.113,2.113,0,0,0,1.681-.721A2.677,2.677,0,0,0,223.076,12.624Zm9.7,3.376h-1.2V14.813h-.029a2.467,2.467,0,0,1-2.314,1.362q-2.681,0-2.681-3.193V8.5h1.194v4.292q0,2.373,1.816,2.373a1.838,1.838,0,0,0,1.447-.648,2.48,2.48,0,0,0,.568-1.7V8.5h1.2Zm8.454-3.45h-5.3a2.805,2.805,0,0,0,.674,1.934,2.323,2.323,0,0,0,1.772.681,3.685,3.685,0,0,0,2.329-.835v1.128a4.353,4.353,0,0,1-2.615.718,3.17,3.17,0,0,1-2.5-1.022,4.182,4.182,0,0,1-.908-2.875,4.1,4.1,0,0,1,.992-2.853,3.182,3.182,0,0,1,2.465-1.1,2.82,2.82,0,0,1,2.278.952,3.97,3.97,0,0,1,.806,2.644ZM240,11.532a2.444,2.444,0,0,0-.5-1.619,1.709,1.709,0,0,0-1.373-.579,1.94,1.94,0,0,0-1.443.608,2.759,2.759,0,0,0-.732,1.589Zm2.594,4.2V14.44a3.555,3.555,0,0,0,2.161.725q1.582,0,1.582-1.055a.915.915,0,0,0-.135-.509,1.35,1.35,0,0,0-.366-.37,2.819,2.819,0,0,0-.542-.289q-.311-.128-.67-.267a8.631,8.631,0,0,1-.875-.4,2.644,2.644,0,0,1-.63-.454,1.69,1.69,0,0,1-.381-.575,2.034,2.034,0,0,1-.128-.754,1.792,1.792,0,0,1,.242-.934,2.143,2.143,0,0,1,.645-.681,3.006,3.006,0,0,1,.919-.414,4.077,4.077,0,0,1,1.066-.139,4.3,4.3,0,0,1,1.743.337V9.877a3.4,3.4,0,0,0-1.9-.542,2.226,2.226,0,0,0-.608.077,1.488,1.488,0,0,0-.465.216,1,1,0,0,0-.3.333.878.878,0,0,0-.106.428,1.028,1.028,0,0,0,.106.491,1.08,1.08,0,0,0,.311.352,2.379,2.379,0,0,0,.5.278q.293.125.667.271a9.276,9.276,0,0,1,.894.392,3.065,3.065,0,0,1,.674.454,1.774,1.774,0,0,1,.428.582,1.878,1.878,0,0,1,.15.784,1.848,1.848,0,0,1-.245.967,2.1,2.1,0,0,1-.656.681,3,3,0,0,1-.945.4,4.665,4.665,0,0,1-1.121.132A4.255,4.255,0,0,1,242.592,15.729Zm16.9-7.229-3.45,8.7q-.923,2.329-2.593,2.329a2.748,2.748,0,0,1-.784-.1V18.358a2.226,2.226,0,0,0,.71.132,1.472,1.472,0,0,0,1.362-1.084l.6-1.421L252.41,8.5h1.333l2.029,5.771q.037.11.154.571h.044q.037-.176.146-.557L258.247,8.5Zm11.8,7.5h-1.2V14.726h-.029a2.773,2.773,0,0,1-2.578,1.45,2.8,2.8,0,0,1-2.26-1.007,4.131,4.131,0,0,1-.846-2.743,4.5,4.5,0,0,1,.938-2.981,3.092,3.092,0,0,1,2.5-1.121,2.4,2.4,0,0,1,2.249,1.216h.029V4.9h1.2Zm-1.2-3.391V11.5a2.146,2.146,0,0,0-.6-1.538,2.014,2.014,0,0,0-1.523-.63,2.074,2.074,0,0,0-1.729.806,3.53,3.53,0,0,0-.63,2.227,3.175,3.175,0,0,0,.6,2.047,1.975,1.975,0,0,0,1.622.751,2.052,2.052,0,0,0,1.63-.725A2.7,2.7,0,0,0,270.094,12.609Zm4.25-6.013a.761.761,0,0,1-.549-.22.742.742,0,0,1-.227-.557.769.769,0,0,1,.776-.784.776.776,0,0,1,.56.223.782.782,0,0,1,0,1.11A.769.769,0,0,1,274.343,6.6Zm.586,9.4h-1.2V8.5h1.2Zm7.8,0h-1.2V14.828H281.5a2.515,2.515,0,0,1-2.307,1.348,2.466,2.466,0,0,1-1.754-.593,2.055,2.055,0,0,1-.634-1.575q0-2.1,2.476-2.446l2.249-.315q0-1.912-1.545-1.912a3.692,3.692,0,0,0-2.446.923V9.027a4.648,4.648,0,0,1,2.549-.7q2.644,0,2.644,2.8Zm-1.2-3.794-1.809.249a2.937,2.937,0,0,0-1.26.414,1.193,1.193,0,0,0-.425,1.051,1.145,1.145,0,0,0,.392.9,1.514,1.514,0,0,0,1.044.348,1.928,1.928,0,0,0,1.476-.626,2.237,2.237,0,0,0,.582-1.586ZM291.4,15.4q0,4.131-3.955,4.131A5.31,5.31,0,0,1,285.01,19V17.8a4.994,4.994,0,0,0,2.417.7q2.769,0,2.769-2.944v-.82h-.029a3.035,3.035,0,0,1-4.83.436,4,4,0,0,1-.853-2.684,4.669,4.669,0,0,1,.919-3.04,3.071,3.071,0,0,1,2.516-1.128,2.445,2.445,0,0,1,2.249,1.216h.029V8.5h1.2Zm-1.2-2.791V11.5a2.146,2.146,0,0,0-.6-1.531,1.989,1.989,0,0,0-1.505-.637,2.086,2.086,0,0,0-1.743.809,3.612,3.612,0,0,0-.63,2.267,3.1,3.1,0,0,0,.6,2,1.952,1.952,0,0,0,1.6.751,2.091,2.091,0,0,0,1.644-.718A2.675,2.675,0,0,0,290.2,12.609Zm7.545-2.893a1.469,1.469,0,0,0-.908-.242,1.533,1.533,0,0,0-1.285.725,3.352,3.352,0,0,0-.516,1.978V16h-1.2V8.5h1.2v1.545h.029a2.619,2.619,0,0,1,.784-1.234,1.787,1.787,0,0,1,1.179-.443,1.961,1.961,0,0,1,.718.1ZM304.415,16h-1.2V14.828h-.029a2.515,2.515,0,0,1-2.307,1.348,2.466,2.466,0,0,1-1.754-.593,2.055,2.055,0,0,1-.634-1.575q0-2.1,2.476-2.446l2.249-.315q0-1.912-1.545-1.912a3.692,3.692,0,0,0-2.446.923V9.027a4.648,4.648,0,0,1,2.549-.7q2.644,0,2.644,2.8Zm-1.2-3.794-1.809.249a2.937,2.937,0,0,0-1.26.414,1.193,1.193,0,0,0-.425,1.051,1.145,1.145,0,0,0,.392.9,1.514,1.514,0,0,0,1.044.348,1.928,1.928,0,0,0,1.476-.626,2.237,2.237,0,0,0,.582-1.586ZM317.329,16h-1.2V11.693a3.249,3.249,0,0,0-.385-1.8,1.458,1.458,0,0,0-1.293-.557,1.6,1.6,0,0,0-1.307.7,2.69,2.69,0,0,0-.538,1.685V16h-1.2V11.547q0-2.212-1.707-2.212a1.581,1.581,0,0,0-1.3.663,2.74,2.74,0,0,0-.513,1.725V16h-1.2V8.5h1.2V9.687h.029a2.548,2.548,0,0,1,2.329-1.362,2.166,2.166,0,0,1,2.124,1.553,2.676,2.676,0,0,1,2.49-1.553q2.476,0,2.476,3.054Zm7.641,0h-1.2V14.828h-.029a2.515,2.515,0,0,1-2.307,1.348,2.466,2.466,0,0,1-1.754-.593,2.055,2.055,0,0,1-.634-1.575q0-2.1,2.476-2.446l2.249-.315q0-1.912-1.545-1.912a3.692,3.692,0,0,0-2.446.923V9.027a4.648,4.648,0,0,1,2.549-.7q2.644,0,2.644,2.8Zm-1.2-3.794-1.809.249a2.937,2.937,0,0,0-1.26.414,1.193,1.193,0,0,0-.425,1.051,1.145,1.145,0,0,0,.392.9,1.514,1.514,0,0,0,1.044.348,1.928,1.928,0,0,0,1.476-.626,2.237,2.237,0,0,0,.582-1.586Zm3.012,3.523V14.44a3.555,3.555,0,0,0,2.161.725q1.582,0,1.582-1.055a.915.915,0,0,0-.135-.509,1.35,1.35,0,0,0-.366-.37,2.819,2.819,0,0,0-.542-.289q-.311-.128-.67-.267a8.631,8.631,0,0,1-.875-.4,2.644,2.644,0,0,1-.63-.454,1.69,1.69,0,0,1-.381-.575,2.034,2.034,0,0,1-.128-.754,1.792,1.792,0,0,1,.242-.934,2.143,2.143,0,0,1,.645-.681,3.006,3.006,0,0,1,.919-.414,4.077,4.077,0,0,1,1.066-.139,4.3,4.3,0,0,1,1.743.337V9.877a3.4,3.4,0,0,0-1.9-.542,2.226,2.226,0,0,0-.608.077,1.488,1.488,0,0,0-.465.216,1,1,0,0,0-.3.333.878.878,0,0,0-.106.428,1.028,1.028,0,0,0,.106.491,1.08,1.08,0,0,0,.311.352,2.379,2.379,0,0,0,.5.278q.293.125.667.271a9.276,9.276,0,0,1,.894.392,3.065,3.065,0,0,1,.674.454,1.774,1.774,0,0,1,.428.582,1.878,1.878,0,0,1,.15.784,1.848,1.848,0,0,1-.245.967,2.1,2.1,0,0,1-.656.681,3,3,0,0,1-.945.4,4.665,4.665,0,0,1-1.121.132A4.255,4.255,0,0,1,326.78,15.729ZM7.617,35h-1.2V33.726H6.387a2.773,2.773,0,0,1-2.578,1.45,2.8,2.8,0,0,1-2.26-1.007A4.131,4.131,0,0,1,.7,31.426a4.5,4.5,0,0,1,.938-2.981,3.092,3.092,0,0,1,2.5-1.121A2.4,2.4,0,0,1,6.387,28.54h.029V23.9h1.2Zm-1.2-3.391V30.5a2.146,2.146,0,0,0-.6-1.538,2.014,2.014,0,0,0-1.523-.63,2.074,2.074,0,0,0-1.729.806,3.53,3.53,0,0,0-.63,2.227,3.175,3.175,0,0,0,.6,2.047,1.975,1.975,0,0,0,1.622.751,2.052,2.052,0,0,0,1.63-.725A2.7,2.7,0,0,0,6.416,31.609Zm9.662-.059h-5.3a2.805,2.805,0,0,0,.674,1.934,2.323,2.323,0,0,0,1.772.681,3.685,3.685,0,0,0,2.329-.835v1.128a4.353,4.353,0,0,1-2.615.718,3.17,3.17,0,0,1-2.5-1.022,4.182,4.182,0,0,1-.908-2.875,4.1,4.1,0,0,1,.992-2.853,3.182,3.182,0,0,1,2.465-1.1,2.82,2.82,0,0,1,2.278.952,3.97,3.97,0,0,1,.806,2.644Zm-1.23-1.018a2.444,2.444,0,0,0-.5-1.619,1.709,1.709,0,0,0-1.373-.579,1.94,1.94,0,0,0-1.443.608,2.759,2.759,0,0,0-.732,1.589Zm12.271,4.124a3.9,3.9,0,0,1-2.051.52,3.4,3.4,0,0,1-2.589-1.044,3.782,3.782,0,0,1-.985-2.706,4.158,4.158,0,0,1,1.062-2.977,3.715,3.715,0,0,1,2.834-1.124,3.945,3.945,0,0,1,1.743.366v1.23a3.054,3.054,0,0,0-1.787-.586,2.415,2.415,0,0,0-1.886.824,3.127,3.127,0,0,0-.736,2.164,2.977,2.977,0,0,0,.692,2.08,2.386,2.386,0,0,0,1.857.762,3.01,3.01,0,0,0,1.846-.652ZM35,35H33.8V33.813h-.029a2.467,2.467,0,0,1-2.314,1.362q-2.681,0-2.681-3.193V27.5h1.194v4.292q0,2.373,1.816,2.373a1.838,1.838,0,0,0,1.447-.648,2.48,2.48,0,0,0,.568-1.7V27.5H35Zm8.454-3.45h-5.3a2.805,2.805,0,0,0,.674,1.934,2.323,2.323,0,0,0,1.772.681,3.685,3.685,0,0,0,2.329-.835v1.128a4.353,4.353,0,0,1-2.615.718,3.17,3.17,0,0,1-2.5-1.022,4.182,4.182,0,0,1-.908-2.875,4.1,4.1,0,0,1,.992-2.853,3.182,3.182,0,0,1,2.465-1.1,2.82,2.82,0,0,1,2.278.952,3.97,3.97,0,0,1,.806,2.644Zm-1.23-1.018a2.444,2.444,0,0,0-.5-1.619,1.709,1.709,0,0,0-1.373-.579,1.94,1.94,0,0,0-1.443.608,2.759,2.759,0,0,0-.732,1.589Zm6.96-1.816a1.469,1.469,0,0,0-.908-.242,1.533,1.533,0,0,0-1.285.725,3.352,3.352,0,0,0-.516,1.978V35h-1.2V27.5h1.2v1.545H46.5a2.619,2.619,0,0,1,.784-1.234,1.787,1.787,0,0,1,1.179-.443,1.961,1.961,0,0,1,.718.1Zm2.536,5.2H51.69V38.45h-1.2V27.5h1.2v1.318h.029a2.84,2.84,0,0,1,2.593-1.494,2.747,2.747,0,0,1,2.263,1.007,4.171,4.171,0,0,1,.813,2.7,4.649,4.649,0,0,1-.916,3.014,3.048,3.048,0,0,1-2.5,1.132A2.509,2.509,0,0,1,51.719,33.916Zm-.029-3.025v1.047a2.23,2.23,0,0,0,.6,1.578,2.156,2.156,0,0,0,3.245-.187,3.831,3.831,0,0,0,.619-2.322,3.024,3.024,0,0,0-.579-1.963,1.915,1.915,0,0,0-1.567-.71,2.128,2.128,0,0,0-1.685.729A2.676,2.676,0,0,0,51.69,30.891Zm10.753,4.285a3.479,3.479,0,0,1-2.655-1.051,3.893,3.893,0,0,1-.992-2.787,4.056,4.056,0,0,1,1.033-2.952,3.713,3.713,0,0,1,2.791-1.062,3.364,3.364,0,0,1,2.618,1.033,4.1,4.1,0,0,1,.941,2.864A4.029,4.029,0,0,1,65.165,34.1,3.554,3.554,0,0,1,62.444,35.176Zm.088-6.841a2.285,2.285,0,0,0-1.831.787,3.234,3.234,0,0,0-.674,2.172,3.058,3.058,0,0,0,.681,2.1,2.315,2.315,0,0,0,1.824.769,2.2,2.2,0,0,0,1.791-.754,3.274,3.274,0,0,0,.626-2.146,3.33,3.33,0,0,0-.626-2.168A2.186,2.186,0,0,0,62.532,28.335ZM73.411,35h-1.2V23.9h1.2Zm3.048-9.4a.761.761,0,0,1-.549-.22.742.742,0,0,1-.227-.557.769.769,0,0,1,.776-.784.776.776,0,0,1,.56.223.782.782,0,0,1,0,1.11A.769.769,0,0,1,76.459,25.6Zm.586,9.4h-1.2V27.5h1.2Zm3.664-1.084H80.68V35h-1.2V23.9h1.2v4.922h.029A2.84,2.84,0,0,1,83.3,27.324a2.749,2.749,0,0,1,2.26,1.007,4.158,4.158,0,0,1,.817,2.7,4.649,4.649,0,0,1-.916,3.014,3.048,3.048,0,0,1-2.5,1.132A2.467,2.467,0,0,1,80.709,33.916Zm-.029-3.025v1.047a2.23,2.23,0,0,0,.6,1.578,2.156,2.156,0,0,0,3.245-.187,3.831,3.831,0,0,0,.619-2.322,3.024,3.024,0,0,0-.579-1.963A1.915,1.915,0,0,0,83,28.335a2.128,2.128,0,0,0-1.685.729A2.676,2.676,0,0,0,80.68,30.891Zm11.53-2.175a1.469,1.469,0,0,0-.908-.242,1.533,1.533,0,0,0-1.285.725,3.352,3.352,0,0,0-.516,1.978V35H88.3V27.5h1.2v1.545h.029a2.619,2.619,0,0,1,.784-1.234,1.787,1.787,0,0,1,1.179-.443,1.961,1.961,0,0,1,.718.1Zm7.333,2.834h-5.3a2.805,2.805,0,0,0,.674,1.934,2.323,2.323,0,0,0,1.772.681,3.685,3.685,0,0,0,2.329-.835v1.128a4.353,4.353,0,0,1-2.615.718,3.17,3.17,0,0,1-2.5-1.022A4.182,4.182,0,0,1,93,31.279a4.1,4.1,0,0,1,.992-2.853,3.182,3.182,0,0,1,2.465-1.1,2.82,2.82,0,0,1,2.278.952,3.97,3.97,0,0,1,.806,2.644Zm-1.23-1.018a2.444,2.444,0,0,0-.5-1.619,1.709,1.709,0,0,0-1.373-.579,1.94,1.94,0,0,0-1.443.608,2.759,2.759,0,0,0-.732,1.589Zm3.466,4.629a.777.777,0,0,1-.575-.242.8.8,0,0,1-.238-.579.808.808,0,0,1,.238-.582.772.772,0,0,1,.575-.245.792.792,0,0,1,.586.245.8.8,0,0,1,.242.582.789.789,0,0,1-.242.579A.8.8,0,0,1,101.778,35.161Z" transform="translate(7060 5778.889)" fill="#212429"/>
  </g>
</svg>
